<mxfile host="app.diagrams.net" modified="2021-06-10T06:41:10.424Z" agent="5.0 (Macintosh; Intel Mac OS X 10_15_7) AppleWebKit/537.36 (KHTML, like Gecko) Chrome/91.0.4472.77 Safari/537.36" etag="pRWAPdR1Gqj9a2YF89cv" version="14.7.7" type="github">
  <diagram id="_PDK2hlyaxgzYSzCFhS6" name="Page-1">
    <mxGraphModel dx="1298" dy="761" grid="1" gridSize="10" guides="1" tooltips="1" connect="1" arrows="1" fold="1" page="1" pageScale="1" pageWidth="827" pageHeight="1169" math="0" shadow="0">
      <root>
        <mxCell id="0" />
        <mxCell id="1" parent="0" />
        <mxCell id="0Xuf8h8N83wWfE4gXQEN-1" value="" style="shape=image;verticalLabelPosition=bottom;labelBackgroundColor=#ffffff;verticalAlign=top;aspect=fixed;imageAspect=0;image=data:image/png,iVBORw0KGgoAAAANSUhEUgAABA0AAAG4CAYAAAAuQh6MAAAgAElEQVR4AeydCfwX0/7/VZIle0hZQpstWRJFiJC4ypa97KJNuORGEgkl3FIp13YLv4qyK1ubLBch1b3J/k+2hGQJ5/94Hs7nO5/5znw+M59ZPjPzeb8fj+93Zs6cOefM67w/M/N+nfd5n7WUiCAgCAgCgoAgIAgIAoKAICAICAKCgCAgCAgCDgis5ZAmSYKAICAICAKCgCAgCAgCgoAgIAgIAoKAICAIKCENRAkEAUFAEBAEBAFBQBAQBAQBQUAQEAQEAUHAEQEhDRxhkURBQBAQBAQBQUAQEAQEAUFAEBAEBAFBQBAQ0kB0QBAQBAQBQUAQEAQEAUFAEBAEBAFBQBAQBBwRENLAERZJFAQEAUFAEBAEBAFBQBAQBAQBQUAQEAQEASENRAcEAUFAEBAEBAFBQBAQBAQBQUAQEAQEAUHAEQEhDRxhkURBQBAQBAQBQUAQEAQEAUFAEBAEBAFBQBAQ0kB0QBAQBAQBQUAQEAQEAUFAEBAEBAFBQBAQBBwRENLAERZJFAQEAUFAEBAEBAFBQBAQBAQBQUAQEAQEASENRAcEAUFAEBAEBAFBQBAQBAQBQUAQEAQEAUHAEYFApMGYMWPURRddJH+CgeiA6IDogOiA6IDogOiA6IDogOiA6IDogOhABDrw7rvvOhrzcSUGIg2efPJJNXLkSPmLEYNLLrlEHXPMMYJ5jJjfdNNNqlWrVoJ5jJhXwnOlZcuW6tZbbxW9Er0KTQcOOeQQdfXVV4dWXiX8DuUeo/mGu/HGG1Xr1q1FF+X5lhoduP7661WbNm1S0155dkXz7Eoyrh9++GFc/IBjPYFIA8cSJTFSBP7v//5PnXDCCZHWIYXnI/D//t//U1tvvXV+ohwJAgER2HDDDdV3330XsBS5XBCoQmDfffdV8+bNq0qQPUGgTAjwcbv99tuXqXapVhDwj8D//vc/1bhxY/8XyhWCQIUgIKRByjpaSIP4O0xIg/gxr4QahTSohF6O9x6FNIgXb6nNHQEhDdyxkTPJREBIg2T2i7QqOQgIaZCcvvDUEiENPMEUaiYhDUKFUwr7CwEhDUQVwkZASIOwEZXySkVASINSkZPryoWAkAblQl7qTQsCQhqkpaf+aqeQBvF3mJAG8WNeCTUKaVAJvRzvPVYKafDHH38o/kSSi4CQBsntG2mZMwJCGvyJizxfnfVDUpUKnTT48ccf1aOPPqouvvhiteOOOwrGISMgpEEVoD///LPiI/nMM8+sSoxgL+2kwaJFi9Rpp52meCE6CXOgzzjjDLXffvup7t27q4cffrjoB7n8zp2Q9JeWVtLg5ZdfVqeccorWl/POO0+9+uqrBW/8+eef14FEC2ZSSolOFUOo+Pkskga//fabuuKKK1S/fv1yf4ceeqh67733coDwkTtu3DjVqVMn1b59e3Xdddepb7/9NnfebYcyCEbaoUMHRcBbkfAQyDJp8Ouvv6qxY8eq/v37OwL2wQcfqPPPP1+1bdtWdevWTT377LOO+Ugs9n62Xyg6a0ckvOMskgbF9MvL8/XFF19Up59+ug4Sefnll6s33nijKOjyPi8KUSozhE4aLFu2TN1+++1qvfXWU2utFXrxqQQ5zEYLaVCFJkHkNt54Y7XrrrtWJUawl1bSYOnSpfpBX7NmTf1bfPvtt6uhM3nyZFWjRg119913q5UrV6pJkyapddZZx/VjyBQgv3ODROnbNJIGEyZMULS7c+fOmgjgGb/++uvrD18nJFasWKG22WYbrX/FRoZFp5wQ9JeWRdJg4sSJWn/QNfN3wAEH5AHTt29fVbduXfX666+rr7/+Wh188MFaP3mmFRJWgDr66KN1uQMHDiyUVc75RCCLpAHPsPHjx6tGjRppnenSpUs1VD755BP9jDz77LPVqlWrFO/YWrVqqfvvvz8vr5f3c94Ffx2IzjqhEk5alkgDr/pV7Pl65513Kr4h69Wrl3v+1qlTR73wwgsFQZf3eUF4UnsyMqt+r7320gqWWmQS2vA4SYOXXnpJDRs2LDIkwij/iy++UKtXr46sjRScVtKA9Vz5gGYUjY9tJ9KAZf/23HPPPPyOPfZY/YLIS3Q5kN+5CzAektNGGvA7a968uWIUzUivXr20bt1yyy0mKW970kknaVIK/StGGpgLRacMEv63WSQNeD7dd9996v3338/9MYplhOccRhnLpRlhdA2du+yyy0yS6/axxx7TeYU0cIWopBNZJA0YlZ07d66aPXu21hkn0qBr165qk0020YSBAY60ddddV7+PTZqX97PJa9+KztoRCec4S6SBV/0q9Hxdvny5ql+/vpo1a5YGeMmSJXrAgGernbh16wF5n7shk870yEgD1udFsUTCRSAu0uCzzz5TW221lbrhhhvCvYG/Sou6/DAbnVbSwGCAWxm/RSfSoGHDhnqEzvoRftxxx6kddtjBXF5wK7/zgvAUPJk20oARNPtUhOeee07r1h133FHtXjH0OnbsqE488USdxytpIDpVDUrPCVkjDWbMmKG9FvGAgiB2EqbK8Hyzu8yy3N9mm21WlFR++umn9fVCGjihW3paFkkDgwYEFjpnJw3++9//6vRjjjnGZNXbe+65R6c7TYEp9H7OK8RyIDprASPE3SyRBgaWQvpV7PnKFJyRI0eaovTWELKQYF5E3udeUEpPnsiseidF+eGHH9QDDzygcNuCpWIO4u+//67Ruvbaa/UcMOaB9ejRQ3355Zc6ffTo0Tqd+YxGcHm96qqrFPMacS3EZdbIxx9/rEcchg8frp544gl1xBFHqIceesicztvykUE5Q4cOVW+++aae143BZFg1k7lQuzk3ZcoUBZPMj4m28MLg+D//+Y+CmR41apRi9Ja2vvbaa6ZYvS10L3kZ/zrwQhrwYX/RRRepQw45RM+n+/e//50rivlIYMwfQpvN8ZVXXqnTcGsy7netWrXS53H75IV4zTXXqNtuu0099dRTel5zu3bt9HQU049Bys810rLz+eefq5tvvlnPVUVvqN8I0xN4GWOUGHnwwQdz98N9Meea7QUXXKDoKyOm/cw57N27t8KVyk2yTBoQy4CPH3QWfOjnDTbYQM8JdsPDmu70O+d3xe+Z3x6xFNAnI+X4nZu6k7ZNG2nghB/PzyZNmqjvv/8+7zTeCMS04fcbBmlQ6BksOlUFfdZIg8MPP1w/n3hG4SJ7wgknVHtWN2vWTHsamHeQQYN3OdcxKlxI3Awwt+cY6eadyRZyDOHb48ILL9TnmANsxO1ds2bNGoWrOb+Pjz76SL+HeA7/9NNP5tJUbyuRNOD7A53jmWSVd955R6fzzWqXQkadPa85Fp01SIS7rTTSoNjzFU+DX375pRrIm2++eTUP1WqZ/kpw+kaM432e9eerG95Rp8dKGjDPEGMUY2/x4sVq7bXXVieffLK+Rz4yGRnggWsNGoNLLPlwCUMgE5gjO2TIEMWL+aijjtLX4B47ffp0tfPOO+vjXXbZRbvSMt+WDym7EEzmyCOP1Hn5uN177721oc2PgTne/FiMFGo383223XZbXU6LFi30HHKMUOb8MFpLHXxY9OzZU4+YMLILkYAUuhdTt31bjDSAGeSep02bpj/kIU/AlMCUfFTxcc/oC2lG6As+yLbbbjud9M033+hpCeQ555xz9Oji448/rvEkjXvAUDBueKT9/e9/19eWWr5b0CpGKgmCReAh5t0TwwDBkCfoFXVjfBnhow3iAnIG9yw+MslDPxhBd9AJXrwQV8Tf4J7c5r9mmTRg9Jh7B6OmTZvqaQk33nijgaro1v5CIOgdrsKMPPOygejhtzB//nxdVty/86I3UMYMaSYN+D0ydQm94XdpFZ5vkHEExEXCIA0KPYNFp6rQzxppgIcBz3/IaXSNP+bW8kxGMLB53vBOs8u5556r8zNnt5A4GWCFnmN4zOCVQFvatGmTVzQkGu8aQ2AUetcQwLd27dq6HPqNqT+UCcmQBalE0oD+pw/tnld4VpLOO9YuYZEGorN2ZP0fVxppUOz56oQg9gK6zHe2F7F/I3JN1O9z6sj689UL9lHkqbIcQy7drigYELizWJlWXpR8ABjBDQZlxPAzwocnUd2NMHKJwhlhFJNrMPYRvAQ4hpygTlwaeWA7iVH+ffbZR0fuJg+j2lxvRg+8tJt5k1xj/XjGs4C0f/7zn7mqTRrGLFLsXnIXWnYKkQaffvqpHiW2GsimHtpiPA7AnWOrMG/JkAakmzlz1ukJBD7hOq6HxUMwBiF1ttxyy9yc5VLLt7aHfYgbCByIDyP2jzQIGytpgNcIBg2COz4fZRtttJECGwTPCtpLPAUjZrTd2lfmHNsskwbcH0aXCVzKbxQd8yr23/mgQYO0jpjRPT6A0Rmri1vcv3Ov9xJ3vrSSBoyK8kwmYCZ9yx/kqZHBgwdrssgcByUNvDyDRaf+RJtnL6uhZFEYrd199921vhm3cD7y0T/e93bBO5FzvNMLiRNpUOw5hk42aNBAv1/Mu4U69thjD/XMM8/o6ry8a1jpgTZC9iO8Tw3hoBNS/K8SSYNTTz1V9+e9996b13MMptDPDOjYJSzSQHTWjqz/40ojDawIOT1frefNPoNKW2+9tet0MZPPbO3fiHG9z6k/y89Xg2/c23zLMcTa7YpC0bjrY4CxVB5u/FtssYUmEky1eBVAImDAmOkJfHCaFyov00033VQTBLyczV/jxo21hwGusEwz4OGMO3oxYZSVvNRhhBc+aQMGDDBJRduNyzzXmI8FLjSMs9VrghET8mF8e7mXXAMsO4VIA0gLymcJKaswb4l0lv5BnPqGh0Ax0oDRe8oh+JlVcKkk3Ywml1q+tUz2wQgdYSQJTwZcmpjOYRU8SyAF7AKpgfcI7SLasZERI0boNKM7bBnhoRxrn5v8bLNMGvCbQ/+ZLmS8MsDM+tHDyJr9z+Bj72s+jiBkyA8pBzFGeZA5RuL+nZt6k7ZNK2lgcKSvzXxynsv0OVOjcBfnt2rEiTSw6xPHRuw6RXrS3h2mrUnbZpk0AGu84PAqINAcgtcizxe8pexignQawtKucya/E2ng5TmGdyN1X3rppboovBfxgjRGv5d3zd/+9jddBt8uWZNKJA0uueQS3Z94MFoFvUVXrINk5nwh0kB01qAUz7aSSQMQtj9f7agvXLhQD9JZB93IY9fTJLzPaVeWn6/2vonrOFbSAEMOlopomsQqIGqnPZiGYUtx/+PFzQeCcRtnhIsHr3Veux0oQxpYvRXsecyxE2nAFAfqsBqQxdrtRBpcffXVuhwraUCZlE0dXu7FtNO6LUQaGFLCfCSZ6xgJoV6mbCBOH+VBSANDkDz88MOByjfttW6ZgsKUBNrPyI59mRc30gC3UK5hXr1VunfvrqdimCki1nNu+1kmDfid8CFjyBijy/wuTZwHyCSwNH94lRhx0iXII7xdGHUxH9ZW0oBr4/ydm7YmbZt20sDgSdwTdINnGs92VuvgmWD+cMnlPGuam6kvfnWq2DNYdOrP3sg6acBdEvMIfTLEFMQycVjsYjzIZs6cqf71r3/lnl/mOcY3COJEGpBe7DlmlvyFtGb/H//4h9Z50w4v7xrzUWudDmmuT/u2EkkD4lehX/bVZIxHLHGm7OJGGojO2pGK/rjSSQMQtj9fDeoM9jLIdvvtt5uk3DaJ73Mal+Xnaw78mHdiJQ2YVrDrrrvqFyz3eeCBB1YjDWC6+ADAkOGljuFhhOXjeCDbDUHOM7eRQERRkAbF2m0MLaunQTHSwMu9mPu2bguRBsbTwBo0kmtxPwc3M23BydALQhoQs4HywR4ptXzrfbIPW4mxQKRi8+NnusHLL7+cy+pEGsCGMo+ejzmIIasQW4K2OrnwEujRSbJKGjCNAy8OsLUKcSzAyMwFZooQumX+rIFH7X0NSYbbOnkR5llSlp00iPN3br23JO1nhTSADKCPMXwwWhlttf7hkst50pgKhvjRKfIXewaTR3RKafydnm0a9Iz8g4xiZR8jxM9AvwzxadLRGdKJlwOhZZ5fZst7AnEiDbw+xwgeTB1MgSA2EkaHES/vGvNeE9LAoJaOrdvqCcark7hWVmFkFj3p06ePNVnvu5EGorPVoIo8QUiDP72krc9XQMd7ivhzTD10kiS+z2lnlp+vTv0QR1pspIFZmosPTCPMi8W4swsPVh6wzD3nIWwVYhcQtI8XvREUmvXACZYYNmngpd2lkAa0vdi9mPuzbguRBsZ7gQCMVveg+++/X+PJ6Duy//7762M8ORDcxfmw56PeCIEP6QM+0Iy4TU/AHZmYCDCRSKnlm3rMlhcz3hNGxowZo9tkDcACaYDxZQRdMPXfddddJlm7N3NPxC3gvg466KBc7AMy8aFNtG0nyTJpQL8bQ87cO2QBGE2ePNkkuW7tpAHTHIhDYXTBTPcxI8zWguL6nVvrTNJ+VkgDSNyWLVu6Qmvm+VqfSa6ZHUhHL89gU16l61QleBocdthheYMJLGPH82rq1KlGDXQ8I6Y5QhwUEyfSwOtzDG8svLL4VoG8sIqXd02WP2or0dOA9x5TtezPw+uuu07rqN2tG31xIw2sumTfF521IxLOsZAGStmfryDLKmRmdTWDNLEJSC8m9m/EuN7ntCvLz9diuEd1PjLSwKyE8NVXX+m2Y+zyYsfARGkwYBnlJI1lhzAQjTC/jxc+Li9mfqA5Z1z8+eBmRJ35+xiAxrg1CsmqCsWEebLUTxR+I8YljFECxEu7jTsPbJsRk2adT88yiNT3yCOP6GzF7sWUZd0WIg3IR7R66uA+ED7UO3furEdBIAcQVlIgD1sC1ZkAjZAxhqRZsmSJzsOHEPtMeTCkAcGoTFmM+lOWdQ5fqeXrxln+oRMQGYbcIM4FdeECaIS5rHgfmOkG6AN5cJE2gg7xcGMJTkaj8EAgD54uLB/J3FfiYhh3fHOd2aadNMBlnPt1+mAxy5IRf8AIsS/AyMvol/13zhQY6mL6AcE0CVzJMSy11ROHuuL6nZv7Sto2baQBAWXxQmGJWfNcJngSz2qr948dZ7+kgV2nvDyDTZ2VrlNZIg0wjAicTFBi83yH0GR6lDUGAJ4EjIwR9MoQUxjsfF+gn8WEZXt5RvHeMuLnOda3b199vfUdSDle3jWQE9TNuzVrkmXSwASKdiKl+LaFODfLbvL9QqBOBracpND72Sk/aaKzbsgES88iaeCmX16fr8Rs4RnFdC9WJOCPWFUM2FkH8NyQL9f7nPZk+fnqhnfU6aGTBhhYZik8FI1OY+135vwRw4A0mHkMZuYAckwEfAxTq7B+KHnsYtgts1QRHwYYhLhaM5K800476TI5TwAuQ1rYy8EgNT8mvB0gIHClNssnwhbzEVCs3YxsEZSJ++BDg5cJropcTxrEBx86GLPWfBjrhe7F3l5zXIw04KOJoIHEgjj66KP1UlX0h/UjC7dMM8+YvmCOEn1D4EDcj8wHGmQM94AXAfM7DWnABxp/fNBh1OMBYJVSy7eWwT59xEg4H4nMvWfuNH1KX/Nw5yVM+/jjXiGBjCs0uONxwDW0nzxm+sScOXP0S9xci86YF7y9DRynlTSgv84666wcRox+ECvEKug3gSzpRz6a8f7hA4e4G4XE7XdOAEXIJ7ClPlYzwTjm2OplZMqO+ndu6kniNm2kAc9oQ7hB/vJcOf744/UqJYXw9UoauOlUsWdw3O+OQvda7nNZIg2YIlC3bl397EDfIHnRJVZEssuCBQt0QFtGySC2iHNgpkjZ81qPIaB59vF84v1slg728xyDMOO9Y8hta/lu7xre07y/zMAJwXgN0W+9Ps37WSUNrr/+ej34hc7wruPbhH42AqHKtyvfHbxTeQ8Sy8BOwnt5P5syrVvRWSsa4e5niTQopl9enq8EoUfPnf4gxuzvXmtvlPN9XgnPVyvWce6HThoUajzGKD9K47pMXgLEYDxbhfgEGIqcc5NVq1YpPhR+/PFHtyyhpXttd6kV+rmXYqSBaQMvLubou+FDH2DcG48Bpw8xyiIeghlVNKQBI/MEp6QvzciOqddsSynfXGu21Es56Ad1ubXR5Pe7Rb/sMQ+cykgraeB0L25p6AFTNNAZ4kgEEeJ1WHHF6ANDuyTtd25vX9THaSMNwINnIQQiy5nSf3GJ12dwpetUlkgDo2+QvbzrzVK6hXSOj1hW8OCdGlS8PscIekfQw0Li9V1TqIy0ncsqaeC1H9BBCCVwiEtEZ4MhnSXSwAsSvFf9PF+9lOklj7zPvaCUzDyxkgbFIDAfBSxVxFwUkeoIeCUNql8ZPMVKGgQvLT0lVAJpEGdvyO/8T7TTSBrEqSd+6hKd+hOtrJEGfnQgzrwQqxDmEKJ4tRkvtjjbkPS6Kp00SFr/iM4W75FKIw2KI1KeHPI+Lw/uXmpNDGlA0DpcvZo0aaKnLzCaJVIdgXKSBib4TpcuXao3LMMpQhqE17nyO6/CUkiDKiyC7IlOVaEnpEEVFlHtMUoGUcBSwMTUYcqcSHUEhDSojkm5UkRnvSEvpIE3nKLMJe/zKNENXnZiSAPiCfASZs4sgY9EnBEoF2lAsErmlTK3ifmbBHX89NNPnRuZsVQhDcLrUPmdV2EppEEVFkH2RKeq0BPSoAqLKPeIocOcXoIv4hIuUh0BIQ2qY1LOFNHZ4ugLaVAco6hzyPs8aoSDlZ8Y0oDbwH3KzJ8PdlvZvbpcpAHuQszRs/5VSl8JaRDu70l+53/iKaRBeHolOvUnlkIahKdTxUqyxmYqlrcSzwtpkLxeF50t3CdCGhTGJ66z8j6PC2n/9SSKNPDf/Mq7olykQeUhXXXHQhpUYSF74SEgpEF4WEpJfyIgpIFoQlIQENIgKT0h7fCKgJAGXpGSfJWKQCDSgIjGM2fOlL8YMRg6dKgOEim4x6d3jz76qJ6aIZjHh3klYM36xcQJqYR7lXuM57fTpk0bvVSw4B0P3oKzO86TJk1Su+66qzzfYvw+FH1010cv2Dz00EOqRYsWorOis4nVgW+++aasfEUg0oB111k7Wf7iw6BVq1Zq9913F8xj1Ds+xFlHW/Q8Pj0XrAVr0QHRAdEB0QHRAdEB0QHRAdGBP3Vg7ty56SUNytryCq1cpifE3/EyPSF+zKVGQUAQEAQEAUFAEBAEBAFBQBBIBgKBPA2ScQuV1QohDeLvbyEN4sdcahQEBAFBQBAQBAQBQUAQEAQEgWQgIKRBMvrBcyuENPAMVWgZhTQIDUopSBAQBAQBQUAQEAQEAUFAEBAEUoaAkAYp6zAhDeLvMCEN4sdcahQEBAFBQBAQBAQBQUAQEAQEgWQgIKRBif3w66+/qrFjxyqCQcYpQUmDRYsWqdNOO02xtIybFMvz4osvqtNPP10RIPDyyy9Xb7zxhltRJad7wbdYnlWrVqmBAweq9u3bq86dO6u77rpLrV692nebhDTwDZlcIAgIAoKAKwJ33nmn6tevn+Mf75cgsnTpUsdyqe/KK68MUrR6++23VZ8+fVTHjh1Vjx49HMv6/fffVdeuXdX48eMdz8eVeO+996pGjRq5vp//+OMPNX36dHXJJZeonXbaSf3222+BmhbW+zZQI+RiQUAQEAQEgcgQENLAJ7S8aPkY4GW81lprqS5duvgsIVj2UkkDPqQw9GvWrKnbzcePXbzk4WOPMurVq6fLAYM6deqoF154wV5cScde8PWSZ+XKlXrFg9q1a6uNN94419ajjjpKrVmzxlfbhDTwBZdkFgQEAUHAFYEvv/xSrbPOOrlnMu8Q699jjz3meq2XExjB1vKs+3vttZeXIqrl+e6779TJJ5+s2z1o0CCFgewmN998s67/mmuuccsSSzrt5N5Z+tBJIAluu+02VbduXZ0vCGkQ5vvWqa2SJggIAoKAIFB+BIQ08NkHvFhZ8mL27Nn6RZsW0uDdd99VX3/9terQoYNutxNpUCzP8uXLVf369dWsWbM0akuWLNEj+HyYHHDAAT6RdM7uBV8vefr27avOOecctWLFCvXLL78oyBbIDdr63HPPOVfukiqkgQswkiwICAKCgE8EMKpPOOEEtXjxYm18Y4Dzd+ONN6oNN9xQ/fzzzz5LrMr+008/qW222UY98sgj+tlvysao3XTTTdUNN9xQldnjHtfut99++v3Be7+QvPXWW2q99dbT75koSIOXXnpJDRs2rFATcud4T3766ae5Y7ed1q1b6/aSv1QJ831bahvkOkFAEBAEBIFoERDSoER833//ff2iTQtpYG4TbwMMZyfSoFgepmOMHDnSZNNbpjJQ3rrrrpuXzsHLL7+sDfZqJ/5KmD9/vmLUyUm84OuWB0+EVq1aVfv4ZKSItvJx6keENPCDluQVBAQBQcAdgYkTJzpOE2vbtq0ezbde+e233xZ8V0EIz5w5M3fJsmXL1FNPPZU7NjszZszQz36ICr9yxBFH6Gvt7z57OUx923333dW4ceN0/rBJg88++0xttdVWJREf9rZaj5lmyHuxVNIg7PettW2yLwgIAoKAIJAcBFJBGjB3HTe6Tp066ZFyXsaw/0YYmYB9x4A/8sgj1YABA9QHH3xgTis+PCZMmKBHxfmouOmmm9Rhhx2mhgwZos8xYn7++efn/h588EF97XvvvZdLe/bZZ3PlseNmsOZliuCg1OkJpilBSAM8DfhIs8vmm2+u9txzT3uyjp3AdACnkaOnn35aj/xAHDiJF3wL5XEaYbnjjjv0x9G0adOcqnRNE9LAFRo5IQgIAoJAYAQwiGvUqFHNlR5ye7PNNlP29y8V4lWAQX/KKacUrZ/3+6677lo0nz3DvHnz9DujQYMG6scff1QLFy5UtNVJevbsqb89+G7ACC+VNHjmmWdU9+7d9fcKMYPwLmDqoJkSCSHO/bz++uvq448/Vtdff70aPny4euKJJzQeDz30kG7ef/7zHx2vwHzPmDa/+uqr+voDDzxQXXbZZRoXO2mAh95VV12lDslSfyUAACAASURBVD30UHX00Ufr7ydzvdM2zPetU/mSJggIAoKAIFB+BBJPGvCiZh4ixu7nn3+uMPh4wRGICIE82G233RTG6VdffaUY+eYYN3pjkN5yyy36w4PrWrZsqc466yz9MuT4oosu0uUQNIjjbbfdNq9XcLuDrLCz8IUM1rwCQj4oJ2ngdCuM3IAbHzd2gWDgg4O+shIHhjAoNE3AC75e8ljbhKfB2muvnUc4Wc+77Qtp4IaMpAsCgoAgEByB22+/Xbv1O8UK4D3B1AKMaSOGMOD94kRkm3xseXdvscUWJRnxxjtto4020m3g/cH7rl27dooBCCN4N2DMEy8nCGmAQU8MHt45kBNMHRgxYoT65ptv9MAIdTPtjnxMwdh55511e3bZZRcdw2f99ddX++67r/rnP/+pv2XID6FgZPLkyXoKyMMPP6y/l3hvk4c/842D9x9TPBhUISgl31ac5zvKj5T6vvVTh+QVBAQBQUAQiA+BxJMGvXr10sGHfvjhhxwqGP6QArjF9e7dW7/QXnnlldx5VgZg1KJx48a5NKIZ8+LD6EZ4QfIhsMMOO+TyQE6QZ8GCBbm0vffeW82ZMyd3bHb8GqzmuqDbpJEGuPpvvfXW6osvvnC8NT7oIF3wAOFDzwthQEFe8PWSxzQK/SF44+DBg02S562QBp6hkoyCgCAgCPhGgJg4hab6Mb0A4oD3hx/CgIZAOvBeLzQlz63BGONcyyo8GO4MYpx77rk67ZhjjtGXYWTvuOOOOkYDCUFIA1ZkwKvBfO8wSDJ06FBdDwEiaYs1LgPxhUjDC4F3Le9h4wlx991363OGNPj+++/VlltuqUy7KRQvTuqjDEMasLrSwQcfrOvkH14OnMej0KsEed96rUPyCQKCgCAgCMSLQOJJA+bwHX744XmoMGrNyxvBM4CPCZY5sgrzI3nRffjhhzr57LPP1se80I0Q3Mj6srz//vv1MUQEwkcGXgtO4sdgdbq+1LQkkQa4ahK4CvfJQkJ/MVqxzz776L4q5GFgyvGCr5c8pjzcPdEju56Y84W2QhoUQkfOCQKCgCBQOgI8XyH5//3vfxcshOUBN9lkE/0ewfAt5mFgCrvgggvyBhBMupetWVnAfG9wDe8zPBcY1Wf/2GOPVaNGjcoVF4Q0MFPomEpBrAYGRsxUTCfS4M0339TfLNyjXfAm4Pvm1ltv1afM940hEUx+a0wD3o98T0EQ7LHHHrk/BmDwasDb04sEed96KV/yCAKCgCAgCMSPQKJJA+br8dJzWw+ZwEOcZwTZLrjwcc54FjiRBtaXJdebjwFemoxmsB4zbpNO4sdgdbq+1LSkkAZgxUeFGz72+8Mtkv7AhRNsi4kXfL3koR7meDZt2lS7Yxar1+m8kAZOqEiaICAICALBEcBQZglGYxy7lcj7Hs8/3iNTp051y5aXbqYmXHHFFXnpXg/wRKQ++zvruOOO0+l4rrFaQv/+/XUMAOIAmG8PvCc4ZiqBV+G9etJJJ+myqRfj29RdiDS48MILq1VhJw2uvPJKXa49PoT1O+ijjz7SeUqNx0Ajgr5vq92IJAgCgoAgIAgkAoFEkwaw+3xM4BFgF16ufBBst912+iXHOspWOfPMM3W6mbbghTTgevNiHT9+vPZiICCQk3g1WJ2uDZKWBNKA0QjmK3p19X/yySdzwazwOCB4lfkQcsPCC75e8tD/RLR2CtTkVrc9XUgDOyJyLAgIAoJAOAgQkI/3QiHhfUHwYqYwEPAPjwOmKhST559/Xn8HvPbaa8WyOp43KydYAyuTsVu3brpcpi0w/9/6x9RJDH6mP5LOahFeBe8JvAvGjBmjvRkoh+l9SFDSgADRlEf8JqtYSQOWZSYP920X+oCBnEISxvu2UPlyThAQBAQBQaB8CCSaNAAW5tbxErOOLPBiZY48sQtg4p1ehMwxxGPAuBV6JQ1g2mvVqqXXZIZ4cBMvBqvbtUHSk0AanHfeeZpcsd4HfUK6XQxhYKYwQPbwgchUgULEgRd8i+V555139PQS5mRa5fHHH1d4PngVIQ28IiX5BAFBQBDwjgDP1po1ayrm37sJ74kOHTpowoA5+IiZquC0vKK1HEbgGVhwEgYd7IMN9nwEIeT7guWGrQIRTVBE4hzYhe8SrrGP1nupjyDNxB5AiJXQokULjQ8xAnhvUS7eC0bM9IRCngZmOgLTHbiebyer7L///jrdTPdgagJ9YiVlGCjAA2Lu3LnWS/P2w3rf5hUqB4KAICAICAKJQSDxpAEva150vKB5MbK8EHPjWSoIeeutt/T8O2IPmJctaVwDW2+EKMuksUyREeOlALtuFeYoktcpAKLJZ1h/a8Agcy7KbVDSwAR7NEa8U1sL5bn00ks1NmeccYaCVOGPwEnMd7SvoMBHB8tl2esyxAEfgm7EgRd8C+VhGU1II6ZDmHayRQ9ok9PHnhMWpAlp4IaMpAsCgoAgUDoCRPmHpLe/g02JvCsgmPEwMISBOWeIA4hpJ8FIJ/AfKyDZBSO4efPmuu5JkybZT+eOeT81bNhQ5zXTJ1h6GKPaxD7KZf5rx4k08Fofq0SZGAQUx+pO3APeB7zT+C4hXhP7I0eOzAV5dPLUGDdunM4/aNAg3TLw491HGVdffbX65JNPlMlDGstW0w/GI4F4Rf369dPtOeigg/LICvs9h/m+tZctx4KAICAICALJQCDxpAEwTZgwQQcd4sVWu3ZtxfxEPgiMEHgI5n+nnXbSbvN8DNxzzz3mtF46iHmHXL/nnnsqXOhOPfVUfUwahj/LNRrhY4Ty3ATiolmzZvp6Ph4gMwoRDG7llJJeKmmAeyajGNwvf6xAgWulVYrlMQSOKcO6JZAVHw5WgVhgdMNJ+BikD8z0EWseL/gWyoNumDWtrW00+3yY+REhDfygJXkFAUFAEPCGAEsXHnrooa6ZeX/gJWgnDMwFvKt5rznJCy+8oN91s2fPrnaadwTveN4J1tUEqmVUShHwlxF/4uL07NlTv/uJs0SMBSdxIg281se7iWkNfJPgucd7jHs0gvFOm5kCQSwIvnk45rvoxBNPzH3HQDyYQRFIB+NtMG/ePNWkSRN9DddRDytEQPoz3ZDpmMZrkDLJA6lDW9z6IOz3rblX2QoCgoAgIAgkC4FUkAZAhnseL2+3FzV5YMmZXhCGBJkDH0b9bmWUShq4lSfpxREQ0qA4RpJDEBAEBAG/CDDajRt+FMK3wn//+1/XFXMgrlm+cMiQIZ6qZz7/yy+/nPNo9HSRJZOX+sx0SjBZvHixo6FOfAU8F0oVroXgx2MCWbZsmWNRq1at0stPmzY5ZpJEQUAQEAQEgYpBIDWkQcX0SJEbFdKgCEARnBbSIAJQpUhBQBAQBMqIwBtvvKEIAuhmNIfdtLjrC7v9Up4gIAgIAoJAZSMgpEHK+l9Ig/g7TEiD+DGXGgUBQUAQiBIBpjD6iW0TtC1x1xe0vXK9ICAICAKCgCBgRUBIAysaKdgX0iD+ThLSIH7MpUZBQBAQBAQBQUAQEAQEAUFAEEgGAkIaJKMfPLdCSAPPUIWWUUiD0KCUggQBQUAQEAQEAUFAEBAEBAFBIGUICGmQsg4T0iD+DhPSIH7MpUZBQBAQBAQBQUAQEAQEAUFAEEgGAkIaJKMfPLdCSAPPUIWWUUiD0KCUggQBQUAQEAQEAUFAEBAEBAFBIGUIBCINunfvrrbeemv5ixED1lyuV6+eYB4j5qyJvdlmmwnmMWIuzxV5rooOiA6IDogOiA6IDogOiA6IDvypA9OnTy8rzRCINCDyMKOw8hcfBmPGjFGdOnUSzGPUO5bKgqwRPY9PzwVrwVp0QHRAdEB0QHRAdEB0QHRAdOBPHfj555/TSxqUteUVWrlMT4i/43lYwXKKCAKCgCAgCAgCgoAgIAgIAoKAIFBpCATyNKg0sJJwv0IaxN8LQhrEj7nUKAgIAoKAICAICAKCgCAgCAgCyUBASINk9IPnVghp4Bmq0DIKaRAalFKQICAICAKCgCAgCAgCgoAgIAikDAEhDVLWYUIaxN9hQhrEj7nUKAgIAoKAICAICAKCgCAgCAgCyUBASINk9IPnVghp4Bmq0DIKaRAalFKQICAIpASB1atXq8GDB6v27durI444Qt10003q119/Da31UZcfWkMTVNB7772nbr31VtWhQwfdH+Vq2r333qsaNWqkCBLsJp999pkaPXq06tixoxoyZIhbNk/pq1atUgMHDtS62LlzZ3XXXXcp9EdEEBAEBAFBID4EhDSID+tQahLSIBQYfRUipIEvuCSzICAIpByBH3/8Ue21115ql112UV27dlUbb7yxWmuttdTZZ58dyp1FXX4ojUxgIU8++aQ6+uijdV9gRJdLBg0apNswadIk1ya8+uqr6thjj9X5BgwY4Jqv2ImVK1eq5s2bq9q1a+f0EF086qij1Jo1a4pdLucFAUFAEBAEQkJASIOQgIyrGCEN4kK6qh4hDaqwkD1BQBDIPgK33HKLuvTSS3M3+vnnn2ujbcMNN1S///57Lr3UnajLL7Vdabjusccei4Q0oF//9re/eYLgt99+U59++mnRvE8//XRg0qBv377qnHPOUStWrFC//PKL4huoTp06utznnnuuaBskgyAgCAgCgkA4CAhpEA6OsZUipEFsUOcqEtIgB4XsCAKCQAUg8Mgjj1QjBw444AC12WabVbv7b7/9Vr399tvV0k0Cht7MmTPNod76KT/vQjlQxhAP29MAbwBG88OU6dOnByIN/vjjD9WqVStlX5v85JNP1uXeeOONYTZXyhIEBAFBQBAogICQBgXASeIpIQ3i7xUhDeLHXGoUBASB5CDw5Zdfqk022UTPUbe3CsIAMuHZZ5+1n1I//fSTjodwyimnVDtnTShUvjXfggULdJyFK6+8UvFc7tWrlzrkkEN0Ggbmu+++q9MOOugg9Y9//EMxIm7khx9+UA888ICeYgEBMm7cuBwxQvr555+f+5s3b57q06ePPr7gggsUnhZOwv1NmTJFdenSRX3yySfqqquuUgcffLA6/fTTFfEHrILhO2zYMJ33yCOPVBjpH3zwgTWL3set/6KLLtL31a1bN/Xvf/87L08Q0uCZZ55R3bt3V8QFuPzyy9VLL72ky77mmmu0EV6zZk19zxzj+s90iBNPPFF99NFHqnfv3uqYY47Rffqf//xHXXLJJerBBx/MaxsEEV4k3B95L7vssmqkAR4D4HTooYfqqRYTJkzIK8N+4OTRcMcdd+hyp02bZs8ux4KAICAICAIRISCkQUTARlWskAZRIeterpAG7tjIGUFAEMg2AosXL1Z777232mOPPRTGvZPgJr7pppsqjFIjhjBgDj7GpJt4KZ9rMbAxYJnP3qBBA9W6dWt19dVX67aRdtppp6n99ttPp+2zzz4635gxY3LVYswTvO+7775T1Ln22msrRqwRCIfrrrtOX7PnnnvqtGuvvVbtuuuu6uOPP86VYd8hxsM666yjr2vWrJnq1KmT2n///fXx5ptvnnPhZ17+brvtpufhf/XVV2rRokX6uH79+mr+/Pm5YseOHavWX399hTH8/fffq+HDh+uyLr744hzBUSppABlBbAreZwQpBL8RI0bout955x1F+8GRfJAzZ555pvY8IG3ffffVcQXYv/DCC9W2226r89I+I/Q3ZMxhhx2mSZbZs2drvLnGxDRAf7bZZhsdGPHFF1/UeHAeosGP0G/0H7iKCAKCgCAgCMSDgJAG8eAcWi1CGoQGpeeChDTwDJVkFAQEgQwhwIoJW265pTYQMe522GEHRSR7J5kxY4YmDjBqvRIGfsqnTuqmHY0bN865rL/11ls6jbZhaCMm7fjjj9fHkBbrrruuHt3WCUppQ7hevXrmUG8Z/aZ8VijgvhcuXJh33umgXbt2+hpiDSAQEIbcGDlypE5jlJ5yX3nllVwR//vf/1SNGjX0vZDIiPoGG2ygR+lzmZTSZAjXGo+DUkmDHj16aLIFjwsEYmLo0KG5qgh8aZ+ewMoZ1A2ZgUBwEPvg7rvv1ulW0oCyyGtdUWHUqFE6zZAGEDuQN0aWLl2qz0OweBXaT7+xsoeIICAICAKCQHwICGkQH9ah1CSkQSgw+ipESANfcElmQUAQyBgCGKoYahiFZnTa6RaZw840Bkb6cU8v5GFgvd5r+RjktAGPAiMsA0kaI/xGIC1Iw6A3gks9z3KmCeASv8UWW2giwZxnizcDhjvX3nzzzdZTrvtE8Sf/N998k8uD4Uwa0wAQRubxxLAHkWzbtq3O9+GHH+YMcQgLq0DGUBZTFZBSSQPj0o/3BDEmwNI6Uu9EGhAYkbrt0zMefvhhnW5t64477qg9Gaz3aI1pQDoYQBDgtWL+IIB23nnnanVYMbDuM73i8MMPr4alNY/sCwKCgCAgCISPgJAG4WMaaYlCGkQKr2PhQho4wiKJgoAgUEEIPPHEE9pQxGhzk9WrV+emC0ydOtUtm2O6l/KdSAOMUQxbK2lALAPS2rRpk6uLOfoEzsM4Hj16tGIaAt4HdmGuPtcWuk/rNU6kAWQJXgQYw2BCeXavBspgVQDO8V6/4oor9L7xTjB14IFAHpa/REolDSBLTjrpJF2WuT/IFSOFSIPly5ebbHprJw24R+IhWPuAjFbSgLgI1Eu8hFLloYceUk2bNlVM8RARBAQBQUAQiBcBIQ3ixTtwbUIaBIbQdwFCGviGTC4QBASBjCFgDEPc3J0EA5T57AQFhADA4wAD16sUK59ygpAGuMUzyk5MA+TAAw+sRhpgHDPn3szZt8ZocLsPJ9Jg2bJl2kA2Sxhut912+tjUbcoibgCGNNMWjMt/v379zGm9xfuBPAQXREolDSAywI84D3hZUCYxGIwEIQ1+/PFHHduBmBFWsZIGX3/9ta7ziCOOsGbR++hOodgRZAKj3XffPRcnolohkiAICAKCgCAQKQJCGkQKb/iFC2kQPqbFShTSoBhCcl4QEASyjgArCmBoOnkQYPR16NBBEwZMF0DMVIWnnnrKEzSFyjcFlEoaEKiRtvfv398Upac41KlTJ3fMDkEbhwwZogjih6cAxr6JAZCX0XLgRBqwqgD13XbbbTonXgsc33vvvZYrlcKlH5d9jG4zEk9sBu7TyP3336+vpV2IG2nA0pfW68z1ZnvWWWflYj4QkLBFixbaO8DcH8Eu8RawLm9opie4eRpYYxqwigX3aI3bwIoaVtyZmkAdVjIJTxE8IObOnWuaWm1LoEYCSRIDwSqPP/64mjx5sjVJ9gUBQUAQEAQiQkBIg4iAjapYIQ2iQta9XCEN3LGRM4KAIJA9BO688069ZCGGLIJhR8R64hTYDVOMTOaY42FgCAODiCEOWLrPKn7Kt173xRdfaCOU+fBGTBoeAkYwijFWMYwR3pscs0IABAIGeK1atXQabXv//fcVbcIwZRoD0rNnT33exBLQiQ7/DGlgAhUyNaJjx45qp512yhngBGbEYKZ8e7BG6woPrMZAO//1r3/pmsCauAiQC3hiIPfcc4/Ow4oKRlgyEmOcWBL2PjB5WAbSGoOAZR0J9mj6kyCF1D1p0iQ1ceJE9d///levhkDaa6+9ZorRW5arJH3QoEG5dLPSA/cNccA9481BvlatWmkihoCIHG+44YYKjwraw/KYLMHoJkuWLNHECmXgmWH+IHhY6tMaS8KtDEkXBAQBQUAQCI6AkAbBMYy1BCENYoVbVyakQfyYS42CgCBQPgRYVg/jjuUEMYox7DAKraPQpnUE1cPYdTNWIQ4Y5baKn/LNdSyTaFYqwAuAMlm60KTRXgzs9957L2esYkifd955eqlIYhiQhzgGGK//+Mc/9DFTEfr06aOX8GMZQmPUm6kDXANZAhngJIY0wLDHsIUYYNSdKQpWoV2412NUQ8A0b95cEwDWPBjwf//737UxjFHMvTGFwAQiZDUCyBHaxPQP8iKGFCHdunqBtWxIg4022kivXgAmTCWgb4ywmgLGPJidf/75egUIQ6zQVkNkYOib6RaQDsbbAHwgIliBgXawdCQeFuutt572JCCgI1MkqNvkoXyO3XSHMmkn5Tn9cU8igoAgIAgIAvEgIKRBPDiHVouQBqFB6bkgIQ08QyUZBQFBICMIEGxuzpw5esWBKG4p6vLtbcYAZZlDK/GBu7vXFR7s5ZljQxrg3YDHAtMECglz+40Hh1s+PDsY6WfaglfB4wJCwhrc0HqtKYt2QsA4Geq0nfYFkRUrVmgyB48Npj4YEsZaJktnLliwwNf9Wa+XfUFAEBAEBIH4ERDSIH7MA9UopEEg+Eq6WEiDkmCTiwQBQUAQyDwChjQop5s8hAjeG0OHDs083nKDgoAgIAgIAuVBQEiD8uBecq1CGpQMXckXCmlQMnRyoSAgCAgCmUaAKQ24zr/99ttlu0+WZWQZRBFBQBAQBAQBQSAqBIQ0iArZiMoV0iAiYAsUK6RBAXDklCAgCAgCFYgA8QeIe2Dm/bdp0yY3778C4ZBbFgQEAUFAEMg4AkIapKyDhTSIv8OENIgfc6lREBAEBIGkI8CKBszPN3/WeAlJb7u0TxAQBAQBQUAQ8IOAkAZ+0EpAXiEN4u8EIQ3ix1xqFAQEAUFAEBAEBAFBQBAQBASBZCAgpEEy+sFzK1gWqW/fvp7zS8bgCLB0Vvv27TXuYC9/gkEYOoBO9erVS/RJflOh6UDHjh31EnZh6KeUIc+5IDrA8osdOnQITbeDtEWuFV32ogMEEz388MNFZ+WdnFgdYNWZcoqQBuVEv4S6xdOgBNACXoKnAetRsz61/AkGYelAnTp11JAhQ0Sn5HcVmg5st912qnfv3qGVF5auSzmV99wcMGCA2nTTTUUX5fmWGh3o37+/qlevXmraK8/VynuufvDBBwEtmmCXC2kQDL/YrxbSIHbI9TrlW2+9dfwVS42ZRmDDDTdU3333XabvUW4uXgT23XdfNW/evHgrldoEAQcEPvzwQ7X99ts7nJEkQSCZCPzvf/9TjRs3TmbjpFWCQAIQENIgAZ3gpwlCGvhBK5y8EtMgHByllHwEhDTIx0OOgiMgpEFwDKWEcBAQ0iAcHKWU+BAQ0iA+rKWmdCIgpEHK+k1Ig/g7TEiD+DGvhBqFNKiEXo73HoOSBkT/32ijjRz/Jk6cGO/NVGBtw4YNc8S+YcOGqUMjKtJg4MCBjhi1aNEidRilscGbb765I/4jR45M4+3ktTkq0kB0Ng/m2A+yrLNxgymkQdyIB6xPSIOAAJZwuZAGJYAmlxRFQEiDohBJBp8IhEEarLXWWqpt27bVAkHJtAefnVFC9hkzZlTDfY899lA8K9ImUZEGV155papVq1Y1nK699tq0QZTK9l522WV52Pfo0UPxzBg+fHgq78fa6KhIA9FZK8rx72dZZ+NGU0iDuBEPWJ+QBgEBLOFyIQ1KAE0uKYqAkAZFIZIMPhEIizS48cYbfdYs2aNC4JJLLhHSwAIuBhhBZEWSgQBxeYQ0KNwXorOF8Yn7bJZ0Nm7shDSIG/GA9QlpEBDAEi4X0qAE0OSSoggIaVAUIsngE4E0kAaLFi1Sp512mmJULwoJs3yma4wePVp17dpVHXvsser55593bPLvv/+u84wfP97xfJBEIQ3y0YvaAPv111/V2LFjFZH0o5Aw9ZP2vf3226pPnz6K5VYZ9XeSKPUzSwZYlJ4GURJdorNOWu+eliWddb/LaM4IaRANrpGVKqRBZNC6FiykgSs0ciIAAkIaBABPLnVEIMmkwdKlS9Xpp5+uatasqUcmMXbClLDLf/TRR9W2226rmB7w+uuvF2zqzTffrO/pmmuuKZivlJNCGuSjFhVp8McffyhIn0aNGum+7NKlS37FAY/C1k8Mn5NPPlmts846atCgQWrVqlWuLYxSP7NkgKWNNBCddVX5gieypLMFbzSCk0IaRABqlEUKaRAlus5lC2ngjIukBkNASINg+MnV1RFIMmnw7rvvqq+//lp16NAhEtIgzPInTJig581jOP7yyy/VgbakvPXWW2q99dYT0sCCCbtRxjSIYtT2t99+U3PnzlWzZ8+OhDQIUz9Xrlyp9ttvPz1Ng/YWkqj1M0sGWNpIA9HZQprvfi5LOut+l9GcEdIgGlwjK1VIg8igdS1YSANXaOREAASENAgAnlzqiECSSQPTYLwNmAPt5mnw7bffup6jDIz4mTNnmuKqbYuVX+0CW8KcOXM0YbDTTjspPi4LyerVq9Xuu++uxo0bJ6SBDai0kQam+e+//35B0qDc+kk7jzjiCN3GYisWxKGfWTLA0kYaiM4aBPxts6Sz/u48eG4hDYJjGGsJQhrECreuTEiD+DGvhBqFNKiEXo73HrNAGkAmbLbZZurZZ5+tBt5PP/2kDaZTTjml2jmTEJQ0OPLII7VBNmbMGMWzf8GCBYrYBk7Ss2dPNWDAAPXee+8JaWADKKukQbn1k1VMIN0aNGigfvzxR7Vw4UL12Wef2dD/8zAO/cySAZZV0kB0Nv/nkSWdzb+z6I+ENIge41BrENIgVDg9FSakgSeYJJNPBIQ08AmYZC+KQBZIA27yueeeU5tuuql65plncvdsCIOjjz664JSBIKTB4sWLtUGGUbbLLrto92/2aYt9VPepp55SrVq1UmvWrBHSINdLVTtZJQ3KqZ/UTRwDdHKjjTbSern22mvr43bt2qlly5blOiAu/cySAZZV0kB0Nvez0DtZ0tn8O4v+SEiD6DEOtQYhDUKF01NhQhp4gkky+URASAOfgEn2oghkhTTgRmfMmKGNoqefflp5JQy4LghpwPsVg4ypCQQ/JNDYyy+/rOrVq6fT33jjDd0HX375pdpxxx0VJAMingYahrx/WSYNuNFy6Cf1QmahowMHDlTffPON9jY499xzddoxxxyj+yBO/cySAZZl0kB0Vv809L8s6WzVXcWzJ6RBPDiHVouQBqFB6bkgIQ08G7p4egAAIABJREFUQyUZfSAgpIEPsCSrJwSyRBpww9OnT1ebbLKJ2meffRQGUbGghFwThDQYNmyYNr4uv/zyPLyHDx+u06+77jqdzvKLo0aNyuUR0iAHRW4n66QBNxq3flJn3bp1tS4yNcEI02e22GILtf766+upNHHqZ5YMsKyTBqKzf/5isqSz5hkQ11ZIg7iQDqkeIQ1CAtJHMUFJg9tvv11H1ybCtvnr3r27jxZIVjsC/A4MlmZLcKg0SRDSQHQq/J7Ogk5ljTQgkNvee++tjaSpU6d66vQgpMF9992n67riiivy6nrnnXd0+gEHHKAee+wx/ezp37+/uuqqq/TfOeeckztP2quvvpp3fZADWXIxH72ollw0tRQLhGjysY1bP6lzhx120LqG941VjjvuOJ0+ePDgWPUzSwZYJZAGorNKB7jFWwcyWMQfAkIa+MOr7LnLQRr8/vvvZb9v3ET5K4cEJQ14MDVt2lTPz2WOLn8sgyRSOgK4ZRos2Z555pmqTZs2pRdYhiuDkAaiU+F3WBZ0KkukAUbRYYcdplj28IknntAeB0xVKCZBSAMTZI7niVUYNecjs3379uqhhx5S22yzTd5f/fr19XnmmXNu4sSJ1ssD7QtpkA9fUkiDcugnSJiVEz744IM8YLp166Z1kGkLceqnkAZ53eB4IDr752oforOO6pGqRCENHLrrxRdf1C6OGCG4KZp5jA5ZY0+KmjTA3a5fv365v169eqnzzjvP8T5xiRs9erTq2rWrwh3u+eefd8znN5G1Zxnpsbbj0EMP1fNG7WVF1QZrPWGQBrjXikSHwI033lhxpIHoVHT6RMlp1KmskAYYZB06dNCEwa+//qo72riCE+CtkBQiDVgurxD5zCgcBEDDhg2VlSyfMmWKNsh4JzkJI5SQCtdcc43T6UBpQhrkw5cEAywq/eTbByO8kIwYMULr2tixY/OysfQnQREhP+0SpX4KaWBHu/qx6KzobHWtSGeKkAa2frvzzjtVzZo1c4GP+BCoU6eOeuGFF2w5y3MYJWnAx1Tz5s31C4n7Nn9EsrbLo48+qrbddlu1xx576IBR9vNBjhmlMXWbLW6hdomyDda6hDSwopHM/TQaeEE9DYQ0iFYX06hTaSAN9tprL/18f+mllxw7ECL48MMPzyMMTEZDHDz55JMmqdrWrfwHHnhAv9v53RgiotrFSqk77rhDt89qlF188cVqgw02UJ9++qnTJSpKo0xIg3zIozbAmH7Cd8fBBx+cX/FfR1HpJyQV31+1atVSkyZNcqybRAgLSC3yrly5Uudbvny51u3evXs7Xhelfgpp4Ah5XqLorOhsnkKk+EBIA0vn8eBllGHWrFk6dcmSJapz5876BeJktFoujW03StJg2rRpig8u5vSZP6ePpAkTJugXG26jXgJT+QVnzz33VMwtNW1gaw36Q3lRt8Ha5iSQBkTwZm3y/fbbT3t+hDlnlnuNonzWBu7Tp4/q2LGj6tGjhxXS3D4fSniqjB8/PpdWyk4aDbxykwZR9Lm176Io34tO0Qa8nlgOL4ikUaeSTBq89tpr6qyzztLvU4yyli1b6gjw9j6aOXOmOvvss10Ne4gDyrFLsfJ5dxoSupD3IM8kAh4SK4Vn02mnnaYaNWqU+y6w18txlEaZkAb5iEdpgF1//fWqWbNmWk8YPLrwwgvVnDlz8hoQlX7iZYC3ADpqVkHIq9hysHDhQtWiRQs97bFnz566zbxj8ZRxkij1U0gDJ8Tz00RnlRKdzdeJtB4JaWDpOUYW7GsxL1q0SD/E1113XUvO8u1GSRq0bdtWfyRhkFpdM613ywsUJpwlqYq50WE0FCIV5s+fr1gayCosY8THGkz7F198YT2V2/fThtxFAXbKTRpAkGBgQmBhCPFRQZRkdDMMCbt89IK1pNdZZx01aNAgtWrVKtdm3nzzzfp+grr1ptHAKydpEHaf2zs47PL96NSKFSv0nF5+J4Vc0e1tth+nUaeSTBrY8S3HMe8U3l2M1hYT8kBEYHAF0aNi9RQ7L6RBPkJRGmD5NcV/hBfDDTfcoIYMGeKp8o8//lgT/t9//72n/FFkEtKgOKqis1UYic5WYZHGvUSQBrgK3nbbbapTp056HiMGhHG7AlQepCyFxMj2kUceqQYMGKCsATWYp8hHKkbVsmXL1E033aQDKPHg5RweA+eff37u78EHH9R9xTJJJv3ZZ59VeBo4Gbmbb765YvS7mOD+aMpjS1AlRlrZv+CCC9Tnn39erIii56MiDTDwzSgM26233lpxP3YBf86PGTNGYUwvWLBA9489H8eM0Bx11FGO5wlotemmmyqIA6vglmraAdN/wgkn6D615vHTBut1pe6XkzRg5AA3RKu+E2cCjG655ZZSbyl3Xdjl87vFG4IpPbNnz87V47RDMEgIIu5FSAMnhNzTCIRY6vSEsPvc3sqwy/ejU7TlpJNOUjVq1NB6FcTYE9LA3rPpPmYkl5HjoUOHpupGhDTI764sG2B4wBBLi+/YtIiQBsV7SnS2OEZx5siSzsaJG3WVnTTA7RyXeIIXYVTjIo8RgUszwgfjbrvtpo3Pr776So+ucsw0AmNwYjxtttlm+jpcHnFdJHAe5Vx00UW6nHvvvVcfMw/fKn379tVkBR8UTrJ48WJ9nX3dZqe8fKDi1ki9hmS49tpr1a677qpg18KQqEgDjFIMEZYCZL1f7oE/lpUyYrAgfZdddtGGIfsY/3YPDa6BgDn66KN1X0L8GDGEgVOsBDwMCILYrl27XBvq1aunCQqu99sGU2eQbTlJg08++aTa8l3gBu7MvbWLX+8Ov+Xb67Mfm8jOTvpgzYthiSvmuHHj9L0IaWBFp/h+ENLAb5+nRadAjWlNvDtOPPFErVdCGhTXJWsOntM8WyBMsiZMtXv44YdTd1tCGuR3WZYNsHvuuccxkGE+Ask6ypIBhldR48aNQwdYdDZ0SAMVmCWdDQRECReXnTRg1BQ35h9++CHXfAx/SAE++AjswkfMK6+8kjvPD5uRJOuPm7mH5MOoRiABWP6INW2NmABJjI4bYQ1o+5w1c44tH0+Muru5ylvzmn1DWNx6661qyy231HN5zLmg26hIA2u7cMvERY6Rfv7efPNNfZq6wRj3ztdff133DwYFRj3pTvNEIQ7wIME7gHILEQbWNrDP2thmjh9eJkgpbbCX6/e4nKSBU1tZB7xJkybKySWxFO8Oex2FyrfntR6b5coaNGigY1Awh+2zzz6zZsntMw8TjyG8fdAdIQ1y0HjaCUIaOFVQqM/TolMQnzvuuKMmn4U0cOrl4mlZJg2K330ycwhpkN8vWTbA8u80HUdZMsCENEiHzgVtZZZ0NigWfq8vO2mw1VZb6UjJ1obz4WIC3+EZwEi2fY498+8xNlg/GSFwEscYIUZwkybNeBHcf//9+thEmCWoFl4LboLRw7xjtyjPbtfx8UqkZepmznaYEgdpYNqLlwT3wNQRhCkiHNu9LjBgSMfLwknoT6Yp4E5NXzp5GDhdRxrLB+FFsskmm+gspbbBrXwv6UkhDZjGY+7/7rvvdmx6Kd4dpiAv5Zu8TlviGKAHkHX0M8s/cYzXiNXdkiXTiM2wZs0aIQ2KLK/lhDNpYZEGXvo8DTrFM553AiuqIEIauGlO4XQhDQrjU46zQhrkoy6kQT4e5T7KkgEmpEG5tSme+rOks/EgVlVLWUkDXPYxKtwiq+PCzHlGsu1yzjnn6HMY0YgTacDcMK43pAEfRLjeY9Aw6k28gdtvv91etD4mL8sJup13vMiSyIueunH3D1MeeeQRde6554ZZpGtZeFdwD5dddpnOg+svx0wfsAoeAaQXWmFi8uTJOg/GItj7EfSD8vFGCdIGP3Va82LwBonEHoaB99FHH+lYAXjlgAV/LA/qJKV4d/gp36lO0piyQrsGDhyoyR6IP3SVNBMNmsCXjAYzzQSpZE8DCEsnbxE3fK3polNVOgUugwcP1u8Ag1GlkgZMBwuysoqQBkaDkrNNK2nAO4VvsLBFSIOwEQ1WXpYMMOKfMcgRtojOho1osPKypLPBkPB/dVlJA4wKjCA8AuzCxwvG/nbbbaeNDjrZKmeeeaZON9MWvJAGXM+PFyOGJd7wYiDStl3wamDUlA/RUoSAittss40un7qeeeaZUopxvCZOTwOMT6aBjB49WrfFuJ+DvVXw9uA+27dvb03O7bOmNt4CBJvE44B5736IA1yn8UhBSm1DrjEl7CTF04CmY2Sy9CJ4Q365zdnm91OKd4fX8p1grFu3rm6X8RIiD+2AqGO1B/aPPfZYNWrUqNzllUwalHP1hFwHZECnMJJZJs06xa1SSQNZPcGq2dnYTytpwHfB9ttvH3oniAEWOqSBCsySASaeBoFUITUXZ0ln4wa9rKQBN3vwwQdrQ2Pq1Km5e8dYZQ48P2BG6jGQCGRoFUYrMZqMgeKVNID9ZslAorvbjV9T/nnnnafJBXPMljaR7kUY7WHlBqLHY3RDfFg/aL2U4ZYnTtKAWA+4mDNNA8Hzg1gTDRs2zJsuMmXKFN1H/fr1q9ZsQxiYKR7GmGWVBK/EwWGHHaZOPfXUkttQrVE+E5JEGpimm6UX0Wc3CeLd4aV8e73ED+G3au/X4447TqdDwrFaAsE1IYL4Mx5DeKlwXOooaRoj3SeFNDD96KXPk6ZTTHUiVk2HDh1yOoUeNW3aVOsculZqUL806pSQBkabs7MV0iC/L4U0yMej3EdZMsCENCi3NsVTf5Z0Nh7EqmopO2kwduxY/XGHccpySNdff72e+25c4lmWjSUPra68pGGcsOyfEQx10gjQZ8R4KXz99dcmSW8Z7SSvUwDESy+9VJ8744wzNKkAsUAgsJ133jk3lx8jctasWdX+MKpxGaetzNdGCPhGXd26dctrQ6kHUZEGLG3INAAemghLVbZu3bpagDoi9nM/9JuRiy++WMdwIDq1VQh6iIeBIQzMOUMc8KFvNTDJTxBJpiCYKSUTJ07UwSSty1X6aYOpM8g2iaQBxhD9gFeLkxiyplTvjmLlO9VpVk6wLg9JPnSftjJtAQ8c6x8kFOeIg0A6/V2KpNHASxppUKzPk6hTPIcxlK06xT6eLegV+6UuTZlGnRLSoJSnR7KvEdIgv3+ENMjHo9xHWTLAhDQotzbFU3+WdDYexKpqKTtpQFMmTJiQ+8irXbu2njNvjEbO48JMFH2i9jNtgHXrWZrGCKP6Zr13ljpkygIj03w08oc3A8s1Gpk+fbouzxybrSEwzHXWLR4DzHdCMNwZGbX/MdIO+YGxbeYqm2kUlMW8but9mXr9bKMiDTDgaSP4M7LPqhLUZRembhDwELxZsQJCpVGjRppAseeFeJk5c6Y9WR9DHNBHZnoJiRi4xsUdd+MDDzxQ57GvXOGnDY6V+0xMImmAgc4qI05ijDtD1hiSxo93h7189JYHbSEZMWKE1iEroUR+frv8LghqaRde0uidrJ5gR6bwcRgxDew12Pvcej5NOkW7zfPfbfqO9d7c9oU0cENG0uNEQEiDfLSFNMjHo9xHWTLAhDQotzbFU3+WdDYexKpqSQRpQHNw38cNntF6N8FjoJA7ttt1Tun2UXGnPElMi4o04F4JUjd37ly9LXbveAi89tpr2jMhyIe5vR6MU5Z4ZFlMIrsXkqjaYK+znKQBSxbiws8UELOCCIEnIW1Y7tIufr07vJRPvRB1TOuZNGmSvcrcMf3B1BXyrly5UqfjCcGynWbFklzmv3aSThqsWrVKe0gQr6Nz587qrrvuKviMst9foeNyeRp46XNru9OmU7Q96aQBv11ikxDPh2lvpU7LsfYT+0n2NODdzhQlfksQVDfddFPRZ7z9/godR1E+hCsxfSDI8VB8/vnnHZvAM5I8xEoKW6ImDaLADQzSGNMgqt8leESFM6uAEdS7Y8eOrkHFo9TPOAywKPvF+ntNI2kQJTais1bt8LcfZb/4a0m4uRNDGoR7W9ktLUrSILuoBbuzcpIGeLfgus9oPN4XnTp1Uscff7ziQ8FJ/Hp3eCkfIgdvAeMt41SvSYP4a9GihZ5TztQc2sy0F14+TpJk0gDiAwIE75uNN95Y3z8YEGDSTD9yuievaeUiDbz0ufUe0qZTtD3JpAGedfQ9JJSJI8F0ikWLFllhL2k/qaQBsYeIPcEKKxjX5vdELKIwJIryWb6TYMmsomSd9ujUXpZWDsNjyqnsKEmDKHAz95A20iDK32UUOGOs43lLMPFBgwYpCG43iVI/oyYNouwXO15pIw2ixEZ01q4d3o+j7BfvrYgmp5AG0eAaWalCGkQGrWvB5SQNaBRG+/z58zVRYI0B4dpgnye8lM+I2w033KADfHopnuVUYVrNNB0v1wTJE4Ured++fbWXByusEAiV3x4BVDEOCMAXVMpFGtBuL30e5P68lF+JOgV5BhFljfvRq1cvrVO33HJLEMj1tUklDbg34gUZIUYNZBy/AeNBZc6Vsg27fD768Kzq0qWL/u0XahMxlsz0yKDTrJzqiZI0CBs3a/vTRBpE/bsMG2cIbbyUeB8RcLuQRK2fUZIGUfeLHbc0kQZRYyM6a9cOb8dR94u3VkSXS0iD6LCNpGQhDSKBtWCh5SYNCjYuppNvvPGGXnN72bJlMdXor5pipAGBPd28M6gJUsAaf4MpN4wCY9hahZEdSAPqCyrlJA2Ctj2M69OuU2AAMYbuuAlkH9O+jHzyySfVpiJAQKFTBHgNKkklDR555JFq5AAxgQiUaxe/v1Wu91O+vT77MQGSIQyIoYRBVEj4QMQLa9y4cboPy0kalBs3O05pIg38/C6TgDPTe3hmjBw50g573nEc+umHNEja8zIPLKX0dNvGjRvbkwMfRxGHQ3S29G7Jks6WjkJpVwppUBpuZbtKSIP4oRfSQOnAo06BDOPvDecai5EGEAYYKATbtAveG3yEMcfcKk5xT8zKHdOmTbNmLWm/0kkDgtmmWafodALBMl3FTi5xjlgQLAsMcVBIWCKySZMmoXjlJJU0sN8/RMomm2yi4wXYz5XyW7WXUah8e177Mcs9Y5CxOhPPfuLrOPUv1zEFa8CAATpYM9eUkzQoN252HNNEGtjbzrHb77LcOM+bN0/rZ4MGDfSS40wJJE6Nk8Shn34MsKQ9L+2YpcnTwN52jkVnnVCpnpYlna1+d9GmCGkQLb6hly6kQeiQFi1QSIOiEJU9QzHSgAYyoosR98wzz+TaawgDlmwtNGJsLsDTgJUgTKBHk17KttJJg1Iwi/MaLzqFzqA7BCGzGpaGMCg0jYVAr8OGDdMGwN133x3KraWBNFi8eLFenYdYAVYvDCsAQX6rXsq31mXd51qMf/6Iv2CmI/HcsI/qPvXUU9obifgmrPBUbtKA+ygXblYMzX5aSQMvv8ty4my83Yh1hF7yPkL32rVrp6yegHHppx8DLGnPS6OrZptW0kB01vSgt22WdNbbHYeXS0iD8LCMpSQhDWKBOa8SIQ3y4EjkgRcDj4bPmDFDf2hh1PklDFjhpV69ejoCfBggCGkQBorRleFVp/gQJkApI9TolBfCgFWAmJNMEDNjpN55552BbybppAErJmy55Za5e95hhx1cA7iV8lv1U74T2Lxf6Q+mJhD8kGlKuFTzuyedKTUIZMeOO+6oIBmQpJAGtKUcuGkQbP/SSBr4+V2WC2fILHRx4MCB2lOLgHXnnnuuTmNZbyRO/fRjgNG2JD0vbSqbqukJpu2iswYJ79ss6az3uw4np5AG4eAYWylCGsQGda4iIQ1yUCR2x6uBxw1Mnz5du0bvs88+io8sPmK8SPfu3dXhhx9ebW62l2ud8ghp4IRKctL86BReBkxTQKcY/SvkYWC9QwKFMi0GI4Drgi5fG5Q0YMSqdevW6t5777U2M/R9iBVjiI8YMcK1/FJ/q17Lt1dsPD8uv/zyvFPDhw/XfXTdddfpdJZfHDVqVC5PlKTB7bffrg466KBcXV524sbNqU1RkQYsgdmmTRunKkNL8/q7LAfOdevW1boIWWCE588WW2yhWIWF/Tj1k3bw3CF4qFdJyvPS3t6oPA1EZ0Vnw3rH23U27mMhDeJGPGB9QhoEBLCEy4U0KAG0mC/xY+ARHGrvvffWH15Tp0711NKHHnpILyP51VdfecrvJZOQBl5QKl8ePzpFKydPnqx1igCaeBz4EbP0IqNGQSQoacDHPCsBEDk7anniiSc0XpBxblLKb9WU5aV8k9ds77vvPt2mK664wiTp7TvvvKPTCd742GOPaYz69++v5xAzj/icc87Jnef41Vdfzbs+yAFtwTvDj8SNm1PboiINrr76ak36OtUZdlqx32U5cMY7BwPE/ow57rjjdPrgwYNj1U8IFp4ZfgO5JuF5adeXqEgD0VnR2WLPErsuJvVYSIOk9oxLu4Q0cAEmwmQhDSIEN6SivRp4fGgddthheik1jAqCsTEqWUheeeUVHSHdKTBioeuKnRPSoBhC5T3vVado5ZNPPpkLtInHAYE17R/1he4GAxRDYPny5YWyFT0XBmlAO7j3qAWDq2bNmqpHjx6OVZXyW7UWVKx8a16zb4LMnXnmmSZJbzGAwaV9+/YKAnGbbbbJ+6tfv74+zzxzzk2cODHv+iAHfpdcLAduTvcXFWkQRSR6p/aTVuh3WS6czcoJ1mVbaWu3bt20DjJtIU799OvqTVuT8ry093tUpIHo7J+rfYjOBn/H23U27mMhDeJGPGB9QhoEBLCEy4U0KAG0mC/xYuDxkdehQwdNGOCGjRj3UoJGOQkjjLvttptaunRp3unHH39cjyznJfo8ENLAJ2AxZ/eiUzTJfAC/9NJLuoXG9ZapLOicF8EQaNmypZesBfOkiTQwBrqTt08pv1U7ME7ls1xeoSkgEA0QAA0bNsybhjRlyhRtkPXr189ejT7G2IBUKOfqCTQkKtwcb7pIYhZIA7ffZVQ4//bbb0WX+WQ6D7o2duzYvB5g6U+CIjqtSBOlfvolDZL0vMwDMGVLLtrbbo5FZw0S7tss6az7XUZzRkiDaHCNrFQhDSKD1rXgJJAGBONi7jPB084777xQ3V+58SjKZ2mqPn366MjybqOJv//+u+ratasaP368K/5eThQz8DDkMOK6dOmiDGFgyjXEAR8zVlmyZImeZ45bGSOP5o9o+Szf6PRxZr2+2H65SYMo+tx6z1GU70WnaMPzzz+vI9tb2+N3v5hOUR5eKuiCIQxMHYY4gKSyEgcsjYYrO0Youo9ATOHeC15BJamkAUEe//GPfygz/YJ7Jwo8MUXsRnwpv1Uv5T/wwAPas4G4E/ZngBV3s6yq1Si7+OKL1QYbbKDcvI2iNMq8ehpEhZsVGz/7aSIN/Pwuo8KZ30Tz5s1VrVq11KRJk1yh5nkCqUVes4oPHkp47fTu3dvxuij1048BlrTnpR0scGrcuLE9OfBxFJ4GorOld0uWdLZ0FEq7UkiD0nAr21VCGsQPfblJAwIMYWB27txZG0KMMhDwaNGiRaGAEXb5PJAxCIgMP2jQINfo6DT+5ptvDmWErpiBN3PmTHX22We7GgsQB2eddVYOT0Z8GjVqpNsG3va/008/PZe31J1ykgZh97kdg7DL96NTK1as0O659JndILW3s9BxMZ3i2jPOOEOhW06CcXHqqacqprcYgYjChZ22NWvWTK+6cPzxxyvIkDAkqaTBhRdeqO+ZZwLTNwjsR3BBMLKL398q13spn3en+R2bVRDsdXOM8UbAQ4gcCE3WludZMGvWLKfsOi1Ko8wraRAVbq43XeREmkgDP7/LqHDmnYO3ADpqVkFwg3jhwoWqRYsWOs5Oz5499bMEYh5PGSeJUj/9GGBJe17asUoTaSA6a+8978dZ0lnvdx1OTiENwsExtlKENIgN6lxF5SQN+AhgRME6F6xXr176wyKMYGVhl8/IB94QrG8+e/bsHIZOO2+99Zb+MOcjKahbrxcDz6kN5UwrF2kQdp/bMQy7fD86RVtOOukkVaNGDf0biZo0sN+7l2OMg/nz52uiwOqF4OXaYnmSShrQboKIzpkzR/E8jUK8lP/FF1/o5RS94E6e1157TS/DFkSPgt6rV9Kg1Hq84FZK2WkiDbi/KH+XlO8FZ0i0G264QQ0ZMsQT5B9//LH2UCIYYbnEjwFWShuj7hdrm9JEGtDuqLERnbVqh/f9qPvFe0vCzymkQfiYRlqikAaRwutYeDlJg08++aTaVASWc8PQdopWjItzoSUEMVZYw9mI3/LNdW5bE6Rp5MiRbll0OoYloyrjxo3T9yKkQUG4qp1klBY361LEb5+nRafAguj3HTt2VCeeeGJiSYNS+szrNUkmDbzeQ1T5+JDDI2Ho0KFRVRFJuVGTBpE0WimVNtIgKhz8lIsHDMtJLlu2zM9lZc0bNWkQ582ljTSIExu3ukRn3ZDJZrqQBinrVyEN4u+wcpIGTnfLkl5NmjRRTqMLuNLi/uvk9st8QtaChzgoJIXKL3SdCTzWoEEDxdrNuFAy785JcKkcMGCACmt9c/E0cELZe1qhPk+LTuGNs+OOO6rPP/9cSAPvXZ+Xk+cGhCS/J5FkICCkQX4/RDE/PL8GOfKDgJAGxdESnS2OUZw5sqSzceJGXUIaxI14wPqENAgIYAmXJ4U0IHjXsGHD9Ef93Xff7XgneBkQqI/RVitxYAgDvBTcxEv5bteSThwDDA7mbENOEMmZ43bt2uWNnLBSAcEF16xZI6TBd98VgtT1XBBPA2uhXvo8DTrFKHLbtm3Vo48+qm9PPA2svex9X0gD71jFlVNIg3ykxQDLx6PcR1kywMTToNzaFE/9WdLZeBCrqkVIgyosUrEnpEH83ZQE0oCo48QKIJAYhjh/RAx3Eoy8Tp06qSOPPFJHbvdCGPgp36lO0nbZZRfdLtaJZmUBvA3OPfdcnWYCOzE1gtHgxYsX62LE06B8pIGfPk8jIM4DAAAgAElEQVSyTqFIgwcP1oEujW4KaWCQ8LcV0sAfXnHkFtIgH2UhDfLxKPdRlgwwIQ3KrU3x1J8lnY0HsapahDSowiIVe0IaxN9NSSANzF0zJYGlFyENGM13C9DFxz/TFJj3Tr5CHgambLZey7deY/br1q2r2wVZYIR2bLHFFnq1B/aPPfZYNWrUKHNaPA3K7GlAR3jt86Tq1Kuvvqqjh//www85vRLSIAeFrx36mGeLTE/wBVukmYU0yIdXSIN8PMp9lCUDTEiDcmtTPPVnSWfjQayqFiENqrBIxd7UqVOV25r3qbiBFDaSoEQsEVaqhOVKbq0f934+7s2659ZzZn/y5Mk6D3m9RAs317H1Ur41P/s77LCDrs9e13HHHafTGQ1mGbP+/fsr5tDzx5r13McBBxygjzEAS5E0xjRo3bq1Y1wKL/cvOvWnTkGG7bXXXqpDhw45nUKvmjZtqvUKXSvVAE6jTrF8IxH/SxUhDUpFLrrr0koa8G469NBDQwdGSIPQIQ1UYJYMMJYxPPzwwwPh4XSx6KwTKuVLy5LOxo2ikAZxIx6wPvE0CAhgCZcnydPANB9jCGN7+fLlJilv++STT6rNNttMPfvss9rjgFUN7MZ83gW2g2Ll27LrQ7NygnV5SE5069ZNt5VpC9tss03eX/369fU54iBwbuLEiU5FF01Lo4FXriUX3cAs1udJ1KlZs2YpVgyw69X666+v9Yr0UleZSKNOyeoJbtqd3vS0kgayekJ6dc5Py7NkgImngZ+eT2/eLOls3L0gpEHciAesT0iDgACWcHkSSQMM9JYtWzrejTHuXnrpJX3euJXDoHslDuzlE2iOB20hGTFihDbUxo4dm5eNpRUJikicA7vwkob8kCUX7cgUPo7C08De59YWpEmnaPepp56q9cpt+o713tz2hTRwQ0bS40RASIN8tGXUNh+Pch9lyQAT0qDc2hRP/VnS2XgQq6pFSIMqLFKxJ6RB/N1UTtKAJQtx4Z8yZYr6/fff9c2/88472s3/5ZdfrgYGQQ/xMDCEgclgiAPcuK3EgZfyqbd58+aqVq1aatKkSabIalvKbdiwoc67cuVKfR5PiJo1a6revXtXy0+CkAaFiRhH0JRSQUgDL31urTdtOkXbhTSw9qD3fZme4B0rcppnsr+r/OUW0iAfLyEN8vEodARpGoQ4LVS2OZclA0xIA9Or5duKzpYPey81C2ngBaUE5RHSIP7OKCdpwBw7XPcZjW/WrJleFYF5y2+//bYjEGeccYaaOXOm4zkMAoypV155JXfeS/l4GeAtQBvMKgi5Amw7CxcuVC1atNBzynv27KnbTAyO1atX23L+eSikQfykgZc+t3ZW2nSKtgtpYO1B7/thkwYs6YnnEVNfopBFixap0047TZOPpZa/atUqxdSp9u3bq86dO6u77rrL8Xk1ffp01a9fv9xfr1691HnnnedYLTiOHj1ade3aVQd/ff755x3zeUkU0iAfpTBJg6j1M4zyveon7+krrrgip5/oKjElWKHISfiG6NOnj16eOUicLCENnNDNTxOddX6m+tHZMJ+pWdLZfE2L/khIg+gxDrUGIQ1ChdNTYeUkDWggD9b58+drosDqJeCp8R4yeSmfB/YNN9yghgwZ4qFEpT7++GOFJwSR+eOQNLqSlzOmgZc+D9JvXsoXnQqCsPO1SYlpwGjR+PHjVaNGjTTZ2KVLF+cGl5i6dOlSdfrpp2svJshMNxK1WPF4ROFFVbt2bbXxxhvrtlIeK8+sWbMmdzn3Qz7OWf+cVqV59NFH1bbbbqv22GMP9frrr+fKKHVHSIN85MIwwKLWz7DK96qfIEQ8IKtusk+AYbtgMJ188sl6+eZBgwYpSIkgkiUDLMmeBmHplFtfh1V+FDob9jM1Szrr1p9RpQtpEBWyEZUrpEFEwBYottykQYGmxXbqjTfeUG3atFGsJJFEEdIgib1SuE2iU4XxKeVsUkgDSKO5c+eq2bNna0MmbNLg3XffVV9//bVeNQPjqFTSoG/fvnr614oVK9Qvv/yieL/WqVNHt9lKCEybNk2v0vH+++8r8/fpp59W66IJEyboaVzcL+WFIUIa5KMYBmkQtX6GVb5X/QShPffcU9133305/URPrcsfkweDbr/99tM6zm8zDMmSAZZk0iAsnXLr87DKD1tno3imZkln3fozqnQhDaJCNqJyhTSICNgCxQppoNQ999zjGMiwAGyxnhLSIFa4Q6lMdCoUGPMKSQppYBqF4YJR70YafPvttwUNfgxvt+lW1IG3QamkASNrLC2Lx4tVGIWlTJ4pRtq2baunGrAkrFscgzlz5mjCYKeddioaNNaU62UrpEE+SmGQBqbEYvpJPjzmChFAeAF++eWXpsi8rZfy8y6wHPjRzxkzZug4R8Qc+uKLLyyl5O+aFY5GjhyZfyLAUZYMsCSTBqaLvOhUVnQ2qmdqlnTW6EVcWyEN4kI6pHqENAgJSB/FCGngA6wyZRXSoEzAZ7jaNOpU2kgDPATM0rB2VWIqFkbOKaecYj+VOw5CGlCIk7fAHXfcoUkDvAsQPsAhEczf1ltvrR544IFcG8zOkUceqfOMGTNG8c5YsGBBNULC5PWzFdIgH624SQNiZjBdxU4u0SqCxG666aZ6+mB+K/888mLgOV1n0rzoJ3lZGcnoJ4GHTzjhhGpegfPmzdN5GjRooD0QiD9EUNygkiUDLCukQVZ0NqpnapZ0Nujv1+/1Qhr4RazM+YU0iL8DwiANmjRpop566qnc35tvvhn/jWSoRqZJWPEkWB/TJ9IkQWMaiE6F29tZ0Km0kQb0INMAMLyeeeaZXIcawuDoo48uOMoblDTIVWjZwdOAJWJx5UY++OADvVpJ9+7d1RZbbJEzzqzBHRcvXpxL32WXXXJTHLivoKO6QhpYOkcpFTdpgJcBetixY8c84sAQBtZpLPktVXqqAMa8m6eNPb+XY7t+cg0eBgRBbNeuXU4P69Wrp8krU6bxoCGwMnqJjtM2rgky7TBLBlhWSIMs6GyUz9Qs6az5fce1FdIgLqRDqkdIg5CA9FFMUNJg1KhRaoMNNsj7gwkWKR0BRgHtmBIpOk0ShDQQnQq/p7OgU2kkDehJ3KsxZDDEvBIGXBc2afDDDz8ojK3Bgwc7KhhtIyAso7n8GfKX9zIGGFMTCH6IazkeCpRFOvE7ShUhDfKRi5s0oHaMsE6dOilGPtEBL4QB1wX1NMi/c6WK6Sf5WZLZrHZkJSsgs9BFVgr55ptvtLfBueeeq9OKrYpkb4f1OEsGWFZIA/on7Tob5TM1Szpr/S3GsS+kQRwoh1iHkAYhgumxqKCkgcdqJFuFIRCENKgwqOR2PSKQVtKA22NJw0022UTts88+emlXPnqLSdikAd4EuHq7xS0w7bn22mu1sXXbbbfppGHDhunjyy+/3GTR2+HDh+v06667Li/dz4GQBvlolYM0oAVMT2CaAvoJwVXIw8C0OGzSwKt+Qgow7Yffk5G6detqXbQGR+Se8J5Zf/3187wozDVetlkywLJEGtB3adbZKJ+pWdJZL7/RMPMIaRAmmjGUJaRBDCDbqhDSwAaIHIaCgJAGocAohVgQSDNpsHr1arX33ntrw2bq1KmWu3LfDZM0eOihh1TTpk3VV1995V7hX2cINseo7WWXXaZTiFrPMS7iVmHUl3Snpe+s+QrtC2mQj065SANaMXnyZN2fBNDE46CYhEka+NFP2tWjRw/dVrwTkB122EEf29t93HHH6XQvJIjT/WbJAMsaaUB/pVVno3ymZklnnX6TUaYJaRAluhGULaRBBKAWKVJIgyIAyemSEBDSoCTY5KICCKSVNMCQOeyww/Tc7yeeeEKPkOICXkzCIg1eeeUV7dLtFHjOqQ14QdSoUUONHj1anzZB5s4888y87B9++KE2yNq3b5+X7udASIN8tMpFGjz55JO5oJ14HBCk026A57c0vOkJfvWTdlx11VVqq622yjXJrJxAjA6rdOvWTevorFmzrMme97NkgGWNNEizzkb5TM2Sznr+oYaUUUiDkICMqxghDeJCuqoeIQ2qsJC98BAQ0iA8LKWkPxFII2mA4dWhQwdNGPz666/6RsxUBYKdFpJCpAHrjvNxWEzwBthtt93U0qVL87I+/vjjepQuL/GvA5YCI5AcEegRvCTq16+vGjZsmDe1YcqUKdog69evn1MxntKENMiHqRykgTG+XnrpJd0Y4/bNVJZCxEExTwOWHCX+RSEpRT8pDxLu1FNPzRU9YsQIrYtjx47NpbFD/AN0mSkNpUiWDLAskQZp19kon6lZ0tlSfrNBrhHSIAh6ZbhWSIP4QRfSIH7MK6FGIQ0qoZfjvcekkQaPPfaYNlQOPvhgRyAwvjC8CNhmCAOT0RAHfPy6yV577aXLN8acyUdMgubNm6tatWrpyPIm3b5dsmSJnp+OuzleAuaPaPnMCceQYvk6XL0xKBAMvdatW6trrrkmrzizVKPVKLv44ot1wFavHgx5Bf51IKRBPiphkgbF9JOa8XhBF+w6ZogDCC834qBQ+SzbSTBNYiTYdd/csRf9pH0EAcadG6IMmThxotpyyy3V559/borSbYTU4ndhVgZZvny5bkPv3r1z+fzuZMkASwNpUEinTN9lRWejeqZmSWdNn8e1FdIgLqRDqkdIg5CA9FGMkAY+wJKsnhEQ0sAzVJLRIwJJIg2uv/561axZM23UYxxdeOGFihF6q8ycOVOdffbZrkYTxMFZZ51lvUTvv/baazqdeAH8tWzZUkeFNxkxnkwEebfI8ORp1KiRvt6UY93ixYBgFJJeu3ZtPXpL3AXew3aBqCDg4Xrrrae6du2qWCGH8kt1+zblC2lgkPhzGxZp4EU/qZHlfNFTJ4E4YDSf6QN2KVY+OmT0zWl1Da/6+eyzzyoT5JDf24EHHqjbRNwNu+AZ06JFCx27o2fPnvr3CSHGqG6pkiUDLOmkQTGdMn2YFZ2N6pmaJZ01fR7XVkiDuJAOqR4hDUIC0kcxQhr4AEuyekZASAPPUElGjwgkiTTw2OTIsmHQsTzikCFDAtfx5Zdfqrlz5yq2xYRRZ0gNDJBirufFyuK8kAb5KIVFGuSXWp4jDHuW6XTzVPDaKggGlv9csGCBKwFnLevjjz/WS4J+//331uSS9rNkgCWdNCipg0K+qBw6G/YzNUs6G3L3Fi1OSIOiECUrg5AG8feHkAbxY14JNQppUAm9HO89CmlQhTejt23atFHLli2rSkzhnpAG+Z2WFdIAQx/vm6FDh+bfYMqOsmSACWlQWPlEZwvjUwlnhTRIWS8LaRB/hwlpED/mlVCjkAaV0Mvx3qOQBlV433PPPSUHd6sqpfx7Qhrk90FWSAPiXDz88MP5N5fCIyENinea6GxxjOLMkSWdjRM36hLSIG7EA9YnpEFAAEu4XEiDEkCTS4oiIKRBUYgkg08EhDTwCVgKsgtpkN9JWTHA8u8qvUdZMsDE0yC9euin5VnSWT/3HUZeIQ3CQDHGMoQ0iBHsv6oS0iB+zCuhRiENKqGX473HsEiDxo0b6wCABAE0f88991y8N1OBtT344IM5vA3u22+/veJZkTb58MMPFW0PWyANatSoUQ2nbt26hV2VlOeAwFFHHZWH/SGHHKIDOg4fPtwhd7qSoiQNRGfLpwtZ1tm4URXSIG7EA9YnpEFAAEu4XEiDEkCTS4oiIKRBUYgkg08EgpIGv/zyi9p///0d/6ZNm+azNZLdLwIsm+eEPx+9aZOoSIM777zTEaO//e1vaYMole1ldQYnHZ0yZUoq78fa6KhIA9FZK8rx72dZZ+NGU0iDuBEPWJ+QBgEBLOFyIQ1KAE0uKYqAkAZFIZIMPhEIShr4rE6yCwKuCERFGrhWKCcEgYAIREUaBGyWXC4IJAYBIQ0S0xXeGiKkgTecwswlpEGYaEpZBgEhDQwSsg0LASENwkJSygmKgJAGQRGU6+NGQEiDuBGX+tKGQCDS4IorrtBLGrGskfzFg8Hee++tdtttN8E7Rp1r3bq1atasmWAeI+aV8Dxp2rSpdvOshHuVe4zn/bDzzjurVq1aybNKnlVl1wHem82bNy97O+TZE8+zJws4i86KriRdj+fMmVNWniEQabBo0SI1d+5c+YsRg5tvvlkxd09wj0/vHn/8cdWkSRPBPEY9rwT93nbbbdWMGTNEr0SvQtMB5hr/61//Cq28Svgdyj1G8y599NFHFSSW4BsNvoJr+LhOmjRJ7b777qKz8k5OrA6sWLEivaRBWVteoZXL9IT4O16mJ8SPeSXUKNMTKqGX471HmZ4QL95SmzsCMj3BHRs5k0wEZHpCMvtFWpUcBAJ5GiTnNiqnJUIaxN/XQhrEj3kl1CikQSX0crz3KKRBvHhLbe4ICGngjo2cSSYCQhoks1+kVclBQEiD5PSFp5YIaeAJplAzCWkQKpxS2F8ICGkgqhA2AkIahI2olFcqAkIalIqcXFcuBIQ0KBfyUm9aEBDSIC099Vc7hTSIv8OENIgf80qoUUiDSujleO8xKGnw888/q4022sjxb+LEifHeTAXWNmzYMEfsGzZsmDo0oiINBg4c6IhRixYtUodRGhu8+eabO+I/cuTINN5OXpujIg1EZ/Ngjv0gyzobN5hCGsSNeMD6hDQICGAJlwtpUAJocklRBIQ0KAqRZPCJQBikwVprraXatm2r+vbtm/c3b948n62R7H4RIDCqHfc99thD8axIm0RFGlx55ZWqVq1a1XC69tpr0wZRKtt72WWX5WHfo0cPxTNj+PDhqbwfa6OjIg1EZ60ox7+fZZ2NG00hDeJGPGB9QhoEBLCEy4U0KAE0uaQoAkIaFIVIMvhEICzS4MYbb/RZs2SPCoFLLrlESAMLuBhgderUsaTIbjkR+O6774Q0KNIBorNFAIr5dJZ0NmbolJAGcSMesD4hDQICWMLlQhqUAJpcUhQBIQ2KQiQZfCKQNNLg119/VWPHjlX9+/f3eSfesrPs82mnnaYYIQwqhcpatWqVwsW4ffv2qnPnzuquu+5Sq1evrlYl3hhnnHGG2m+//VT37t3Vww8/rP74449q+fwkCGmQj1aYBljU+hlm+YX0E4RefPFFdfrppyvWmb/88svVG2+8kQ+cUgo9HjJkiDriiCPUwQcfrK6//nq1dOnSavn8JGTJAIvS0yAsoitMnXLq5zDLD0Nno3imZklnnfowyjQhDaJEN4KyhTSIANQiRQppUAQgOV0SAkIalASbXFQAgaSQBhjK48ePV40aNdKjkF26dCnQav+nMHQwkGrWrKnLf/vtt/0X8tcVxcpauXKlat68uapdu7baeOONdX24Yx911FFqzZo1uXonT56satSooe6++27FNaz5vs466wQmTIQ0yEGsd8IgDaLWzzDLL6afgHLnnXfq30K9evVy+omR+sILL+TAI15Jq1atVLt27dTChQvVkiVL1LHHHqu23HJL9emnn+by+d3JkgGWZNIgTJ1y6uMwyw9LZ6N6pmZJZ536Mso0IQ2iRDeCsoU0iADUIkUKaVAEIDldEgJCGpQEm1xUAIGkkAa//fabmjt3rpo9e3YkpMG7776rvv76a9WhQ4fApEGxsogxcM4556gVK1aoX375RfEOxiCDOHjuuedyvdGyZUu155575o7ZwSjDkAsiQhrkoxcGaRC1foZZfjH9XL58uapfv76aNWuWBgoyAG8Y9POAAw7IgTd16lSdNm3atFza/Pnzddo///nPXJrfnSwZYEkmDcLUKac+DrP8sHQ2qmdqlnTWqS+jTBPSIEp0IyhbSIMIQC1SpJAGRQCS0yUhIKRBSbDJRQUQSAppYJr4/vvva6PEzdPg22//P3vnAr3XdOb/mkgnwUjVuKSoaBoSE+LSLgYlk6IJWhHalFZc0zKuI/xRJS5BWslo0pQiBs3fJYuoiGjSVNIgKqwQt5EuwlQtKsL4l7ZT0dn/9dmxz++c857L3uf2nve8z7PWu845+9372Xs/+zmX57uf/ez/VkleAhjpS5cuNexajngbYBwl8WgpFJMQxYvZN2ZnmaX10ze/+U1drz/2AzscbLLJJupPf/qTl3XMmDFqhx128K6znAhoEJRaEaCB4Zimn+R77LHHNFhkyoSPGN5r1qwJJ+trG/6RBSMSo/STbCz/Ce9cgFs490WfPn08TjfddJNOu/zyy720Z599VqfdeuutXprrSZMMsDqDBmZcbHSqKTpb1jO1STpr9KKqo4AGVUm6oHoENChIkA5sBDRwEJZktZaAgAbWopKMlhLoNNAAY//Tn/60WrhwYUsP//KXv+i110cffXTLfyYhzpAy/7sc43hFuW5Pnz5dG1v+WVtiGWCoffWrX1Xvv/++evLJJ9XGG2+s/EaaS3tMXgENjCTWH6sGDYiZwVKUMHBEa37xi1+ozTbbTAEcRJGNgRdVLiotTj/xNABcCxPbzPk9X0xbeO888MAD6m9/+5vi3sIT5p133gkXt75ukgHWFNCgKTpb1jO1STprfaMWlFFAg4IEWRUbAQ2qknRPPQIa9MhCzoqTgIAGxclSOK2XQKeBBrQaF38MrwULFnjDaACDww47LNIgMhnjDCnzv8vRhReeBhtuuKGOXWDqeO211xQzYwAHO+64ozbG/J4IJp/rUUCDoMSqBg0wyNHDUaNGBYADAxj4l6gEW6qUMdTjPG3C+ZOuXfRz1apVWg8JiOinSy65RKcTC2SPPfbQXjTkzUNNMsCaAho0RWfLeqY2SWfz3LtZygpokEVqbSwjoEH1whfQoHqZd0ONAhp0wyhX28dOBA2Q0KJFizRwgCFmCxhQzsWQShsJW154ETA7e8UVV7SwfOWVV1Tfvn21YYZrOO/rvCSgQVCCVYMG1I4Rduihh6qRI0dq/bQBDCjXLtAAsKp///7qrbfeCgpPKfXd735X6yfg1oEHHqhjdbRkckhokgHWFNCA4WuKzpbxTG2SzjrcqoVkFdCgEDFWx0RAg+pkbWoS0MBIQo5FSkBAgyKlKbyQQKeCBrT9l7/8pfrUpz6lvvCFL2gXfz5608jW0E/jw/+2vNhK8eCDD9bu3X6+bMH49a9/XQefO+qoozzDLM96cfgLaOCXslLtAA1oAcsTWKaAfuIZk+RhYFrcDtCAnRF4t/z61782zfCOtJllC9/73vf0EeCAYHPs9pGVmmSANQk0YDw7XWfLeqY2SWez3rdZywlokFVybSonoEH1gncBDaZNm6ZnmphtMj8+MoXKl8CwYcM8mRvZm4jS5dfuXoMLaMC2WKZPHDfaaCO9ZZZ7rVLCRQKdplOdDBrwgbjnnntqY5tI7zZka+gXxeuuu+7SSw/efvvtFpannHKK9kBglwXIuILjcfDGG2+05LdNENAgKKl2gQa0gi3gMLQJjolHTBpVDRpgJPLM4jskTK+++qp+h5gYG7SNIJ3058wzzwxnt75ukgHWNNCAQexknS3rmdoknbW+UQvKKKBBQYKsio2ABlVJuqceF9Bg6tSp+qOS9bnm9/TTT/cwk7PSJMD2bkbmHFm3yexlXckFNCAvH3v+/uEmLVSuBDpNpzoVNMAAw1Watd8EacPjABfwNKoSNHj88cfVLrvsErmn/Ycffqh69eqlvva1rwWazFaNGGV33HFHIN3lQkCDoLTaBRrMnz/fC9qJx8FXvvKVVOCgStCAwIbE2ohaNoMEL774Yq2LTz31lCfQ//qv/9LvSWJwZKUmGWBNAw06WWfLfKY2SWez3rdZywlokFVybSonoEH1gncFDXBfFGq/BNhLvUmgAcaUUHslUHed6kTQAMDgoIMO0oABH4qQWarw4IMPJg54EmjAvuN8HNpSEi+2phs6dKhavXp1gN28efP0TB7txvsn/OwHLAA0YLYvKwloEJRcO0ADY3wZl3/j9s0ylSSPgzTQgC1H2dbThpL0k/Ljx4/XSzf8vFjiQzp05ZVXal0Mv0cADNDtrNQkA6xJoEGn62yZz9Qm6WzW+zZrOQENskquTeUENKhe8FWDBrjpMlswYsQIPZvxgx/8QJmP6SJ6zx6+bLW099576w+K5cuX52LLntBs8cMLN4qWLFmi1wvvs88+imjOK1asaMn2wQcfqKuuukr3d/jw4WrSpEktH+gthVIS6m7guXoahD/2Urof+LtsnSqaP/rO/uMXXnhhoB/mQnTKSCJ4rBtocP/992tDhXs6ijC+MLzwMAg/4wxwwMdvHBEBHqPcGHMmH7OugwcP1rP/d999t0lOPMbxeumll/QadlzSx40b5/2IqM92kWa7ujFjxui2+KPRH3fccWrTTTdVbIuXlQQ0CEquSNAgTT+pGY8XxjmsYwY4APCKAw6S+M+aNUvP8gM0hXU/2OP1V3H6yb8TJkzQuscWdUZHeScPGTJEv3PJg4cB3jB4IxgCBNtggw3U+eefb5Kcj00ywDoBNEjSKTN4TdHZsp6pTdJZM+ZVHQU0qErSBdUjoEFBgnRgUyVo8Kc//UlvhbTzzjursWPHqn79+umPgRNPPNGhxfFZb7/9dh0kafTo0XpdJh/czJBh+LsSHxzMfrAMAD7suR6m6667Tv9PtHHy8MOYX7x4sZeVjy8+yPfff39FECc+0g8//HDFOv6oPdK9giknAhqsF1DZOlUkf2bdZs6cqQYMGKB1JWqrMtGpeMWvE2gA8LfTTjvpceQZwfrURx99NND4pUuXKp5tcUYTwMEJJ5wQKMPFE088odPNM4VgbhMnTvTy4WXAUgL+/+pXv+qlR50k8YKP0UVTl//I888QH6LUte2226rTTjtNg7KUzevtJKCBkfD6Y1GggY1+UiOGOHoaRby7jjnmGMXSlTCl8edbzuhSFJBu+CXpJ3kAVw2f8BFAgPepoTvvvFNtt912GqjjvgMMIeYS/chKTTLA6g4apOmUGcOm6GxZz9Qm6awZ86qOAhpUJemC6hHQoM1uISwAACAASURBVCBBOrCpEjS45ppr9KyBad6bb76pevfurQ19Zs/yELPBzL6xhY2hM844Q39wUK8rPffcc2rt2rXatZiPlTBowOza1ltvrUwwQj5eACvIu99++3nVEfSMtLlz53ppK1eu1Gk//vGPvTTXEwEN1kusTJ2ihiL5Y6QtW7ZMEUsAnQiDBqJTyXdBnUCD5JaW/y+GEC7ZeDBVSTxnf/Ob36jf/va3at26dbmrFtAgKMKiQIMg1/ZcsSXiwIEDYz0VymoV3wAAHcZLJk89TTLA6g4a5Bmnosq2Q2eLfqY2SWeLGldbPgIa2EqqJvkENKh+IKoEDe69996WrbwwsJkRCBPLDJK2JcPwXrNmjVfstddeU+GlCGzBhHE2ffp0L5/rSdxaS2ZAZsyYEWCHRwP1EVHc0E033aTTTFRn0llDTL4825UJaLBewi46xRrbMPhjxokj+haedXPh7+eVdB63Flh0Kklq9dtyMbm15f7L7C1LovLsXFBuC+24C2gQlFNTQAMAUrxvJk+eHOxgh101yQAT0CBZ+URnk+XTDf8KaNBhoyygQfUDViVoEO4dRj+RxK+//vrwXzqOAFGco1wLWdPGXtIAB0nEfs2DBg1Sf/zjH5OyJf4XBxowKxwFarBP9O677+7xNAYia/xZt49HBTEXWNKQZyZEQANPxIGTJJ0CMACgWrhwYaAMF6zbJWI4Y5NESfyTyvn/MzoR5WkgOuWXVPBcPA165HHLLbfken70cGrvmYAGQfk3BTRg6d3s2bODnevAKwEN0gdNdDZdRlXmaJLOVik36hLQoGqJ56xPQIOcAsxQvF2gAQG12LecfZf9HgOmCxhPBOMaNWpUADgwgAFeBHHEGuIpU6bo2fybb745LptVehxoEFWYPuFBQEBEP5k9zVn7TMAnYhz4A4r589qeC2jQKqk0naIEegPgxPaOhgxggL5FGe0mnw1/kzfpGAcaRJURneqRioAGPbJoypmABsGRbIoBFuxV5141yQATT4PO1UOXljdJZ136XUReAQ2KkGKFPFj/zTp0oeokgHsrEZJtaOrUqS3bbtmUC+dhxwQCAWJg89thhx0UOwyECQPu0EMPVSNHjtQzwTaAAXszs3PCJz/5SY8/weWykgtocPXVV6v+/fsr1sWF6bvf/a7XHvZsf/fdd8NZnK7rDhoQ+NHWw8N4YTgJIJTZVqcotmjRIg0coE+2gIEL/1DTWi5dQAPRqR7xERmdwGlZCa8lnjfIVKgeEuhU0ID3DIB20SSgQdESzcevSQYY7x2A8aJJdLZoiebj1ySdzScJ99ICGrjLrK0lxNOgevG3y9OAnmK0mZ0Hrr322sjO86HPMgW2bmKGOMnDwM8AgxVXc4wEytnuF+3nwbktaMDOCBi/4a2r4EGbWbbAcgmOtImI6O+99164OuvruoMGVW656BeajU6R32x5h14RFT7JwyALf3+Z8LktaCA6FZSceBoE5dGEq04FDV599VW1/fbbFz4EYoAVLtJcDJtkgImnQS5V6JjCTdLZqoUuoEHVEs9Zn4AGOQWYoXg7QQOayzp/jGi2Roqje+65R+fBrT9uz+i4spSBPzNDWcgGNADYYJnFtGnTWqrg47Jv377KBELEYMSzgjadeeaZLfltEwQ0iJeUjU4RsZjlMYwDHk4uZMM/iZ8NaCA61SpBAQ1aZdLpKQIaBEdQQIOgPNp91SQDTECDdmtTNfU3SWerkVhPLQIa9MiiI84ENKh+mNoNGmC8sdb/1FNPjez8/PnzveB1eBwQrM4FOLjwwgu1YUjgwiyUBhoQ2BC36SuuuCKS/cUXX6zrf+qpp7z/ATDo84477uiluZ4IaBAvsTSdQn9YIkIgQgAAgnHioWBLafzT+KSBBqJT0RIU0CBaLp2cKqBBcPQENAjKo91XTTLABDRotzZVU3+TdLYaifXUIqBBjyw64kxAg+qHqd2gAXt+x832GsDAuPybpQoHH3ywNXAAyMBSAD+x9Z7tcoU00GD8+PGKDz0/4epOOsRe6vQP49RPAAZDhw71JzmdC2gQL64knQIwIIYHgAEBMyGzVOHBBx+MZ+r7J4q/i06lgQaiUz5h+04FNPAJoyGnAhoEB1JAg6A82n3VJANMQIN2a1M19TdJZ6uRWE8tAhr0yMI7e+yxx/Rab4LF8XEa3tvey9iGkzJBAwLtTZw4UY0YMUKNHj1a3XjjjYoZwzBhEBx77LE6mB4u82wbZGtghnlFXS9ZskSvk2ePbaLss992mMpug7++KkEDAhJedNFF3lIBM6PKmvKwjJn5ZXs8AxiYNhvgAMPP73Hw+uuvq5NOOknNmTNHb2tI/meffVYvDUDnDc2aNUvP8rOW3RiN5r+oI7sdYPSH20HeCRMm6P/Ql3Hjxunft771LTVkyBBvBwU8DHr16qW9EQz/1atXqw022ECdf/75Jsn5WBZoYHufpDW4qpgGLjqF7gA4+QED0w8DHABU+cmGv6tO3X///Vpvhg8f7q9KnzdRp/yd5J4fO3asmjlzpj/Z6rxOoEGZ71HeS3gu8a4C9CQIp82zKkmIL774ot7GFsMhTLb3fBnvpSpBgzy6F5ZZ3WMalKmfyKJo/kn6SX02303o8VVXXaXvGZ6tkyZNUrxr81DVBthDDz2kd1fK0+a4snUHDYrWqbAciuZfhM6W8UytQmfLaHd4vNpxLaBBSOq33367DtaG0WzWem+00UYK5a8DlQUaEHBu8ODBqnfv3qpfv376gx1DEHf3devWeV1n7TzGHNv0Uebuu+/WUfhxcS+CMEBwSzfB/2gDxt/ixYs99mW3wavo45MqQYNTTjlFy56dDZD9AQccoNiRAWMuTBjiS5cuDSfra/Ifc8wx6vHHH/f+f+mll9Smm26q+e+0005614UjjzxSPfPMM14eTtAx5M4vCrAxmYnSfsIJJ3h58VYAdDJ0ww03eP8ZfuaIDtEeQ3feeafabrvttMF64oknajAEQCqq36ZM2rEM0MD2PklrG/9XBRq46BT6hPzjDDCAA8bcTzb8bXUKvnzIop/oCs8C+D/66KO6yibqlF+WnP/whz/UfWcbUleqC2hQ5nv0T3/6k96Wdeedd9bginlfobdZCKMJbyl0DZ0LPw9t7/my3ktVggZ5dC8s+zqDBmXqJ3Iokn+aflKfzXcT71K+adm1hwCyvH8PP/xwvUvT73//+/DwWV9XYYCZxrCj0rbbbqvv0/AkismT51hn0KBInYqSUZH8i9LZsp6pZetsWe2OGreq0wQ08Emc2QsM51deecVLZXtDPiSuueYaL62dJ2WBBmeffbaeheahjOs49WB00Xd/NH4Mw9133z0gAl48GPl5iTX1W2+9tXr44Yc1K15qgDe0Yb/99vPYl9kGrxLfSZWgAdW+/fbb2kii3qLpo48+UitXrtQfxn4vhHA9bIk4cODAgKdCOE8Z19x7AB3vvPNObvZlgAa294lN46sCDWhLmTply190Kl0rnn76ae35wzOvU0GDst+jvIvxNjH05ptvarCb+4mZcld67rnn1Nq1a/WSHOQeBg1s7/my3ktVgQZ5dS8s97qCBmXrZ9H80/TT9ruJYLbo99y5c72h4luAtB//+MdemutJ2QaYvz3f+MY39KQVbe4m0KBonfLLlPOi+Rels2U9U8vW2bLaHR63dlwLaOCT+muvvdayFAGDmQfU9OnTfTnbd1oGaMDDFwQ6PKtL8Dr67t+ze5tttlGbbLKJYrbH0JgxY3S0e3Ntjrg6JW3TxgtrzZo1JrtiFnHGjBneNSd4eNCGPn36eOkubfAK5TipGjTI0dRCigIsMLs7efLkQvi1i0kaaMAa+7CB4G8ruuv35HC5T/x84s6rBA3i2lBVuujUekmHdcovfz7cdtllF3XTTTfpZ16nggYu71HXexB53XvvvS3gAKAyS7XyUFRsFpd7vqz3ki1okEWWRl5F6J7hZY51BQ1c9JO+uH7HuPI38ko7RuknZWy/m8xzxexSRFmWJ/J9deutt6ZVH/u/iwHmKkt/pbfddpsaNWqU+vrXv67b3E2ggatOucrZlb9/XJLO8+psWc/UsnW2rHYnybqq/2oBGuAK+6Mf/Ui7S7MOm48lXAINYcxOmTJFr7MdOXKk+v73vx/wBuBliWsNs9JvvPGGXt9I5G/WbvEfM9bf+c53vB+u0NALL7zgpS1cuNBUFziyb/ygQYMUe9qnEet2/fWwpuWss87Sad/97ncVMyJ5qQzQgDZFuacBlPBC8SPTuMSTxhr7999/Xz355JNq44039rbL8/ePteu42IfBCPKwHn+zzTbTs96mDIh5FMiw+eabB7wbXNpgeOc5dhtogC4Qp6LTKQ00ADDA0Ii69/HCYK300UcfHRCD7X0SKBRz0U2ggeiU0l47UTpl1OP000/X7zbeSzxjOxU0MP3xH+Peo1nuQT9fzgGe2d3j+uuvD//ldB33gWt7z5f1XrIFDfLIsgjdCwu7rqBBuJ1cx+kn/7l+x7jyj8oflRann7bfTSa4LO8dgg7jlcP7DS/RPJ59LgZYVlnigfi5z31Of0N3I2gQpQ/doLNlPVPL1tmy2h2lB1WntR00MOsTeSBiVGOg8sEEoggBHhBBHeMTF1tmnrnGjZ2Zagh3RT7+KYdbCGtuv/zlL+vrf/3Xf9V5QFL5n3XTfsL18NBDD1XMhPkJIAOggjKs37chkE9QXMoYF/5LL71U/dM//ZP63e9+Z8MiNU9ZoEFUxXgabLjhhgEAB0QSFI0+Et2eF47fE8HPBwDgsMMO02PpBw4MYOBf9uAv5z9ftWqVrouAiIZc2mDK5Dl2G2iQR1Z1KpsGGtBWdBDwasGCBV7TDWCA7kaBWF7Gj0+i7pNwnqjrbgINovrfiWll6RS7UuDtRfyYJoEGNu/RPPcg74c999xTDRs2LOC1lkW34oyyKF5R93xZ7yVb0IB2ZpFlUboXllMngAY2+pnnO8aGf1hucdcu+hn13QRfgEi+3YjfQQBjnjnkzUMuBlgWWfJtvu+++6qf//znupndDhrY6FQWORsdsOFv8qYd8+psWc/UsnW2rHanybuK/9sOGhAzgKBvzFobwvAHFMAIP/PMM/VDzh/QjWAlBFL7/Oc/b4rogEg8DDGqIR40BH3bYYcdvDwmyvvzzz/vpfHBYYJsmUT2iGfnBNoFT34EmrElA1j8+7//uw4yQ9CZoqgq0IDxABAgQnWYQH379u2r5cKyASPzcD6ueXgByuAhgjHmAhhQHkCif//+ivXQfnJpg79clnMBDbJIrf1lbAw8Wrlo0SINHKCbroBB0n2SJgEBDdIkVL//y9ApZsqZRTMf700BDVzeo1nuQXZM2HLLLb13NO96osNnJdsP3KR7voz3kgtoQN9dZFmk7oXlXnfQwEU/s3zHuPAPyy7q2lY/KRv33cR/eL2a71o8coljlYdcDDDqcZUl36D+IKfdDBq46JSrnBkbF/42OlOEzpbxTC1bZ5FNGe22kXnZedoOGmy11VY6Yrq/o8xKmzXzeAYwExgOcATyyIOPFxPEQ4VrPrgMYfiTZrwIfvazn+lrgAgId76kfeBZkoD7Fjxog+0aKpQFl33KEY24SKoKNCByPVuvheXO2kce2qwhPeqoo3Qf6WfSmjjGE08RtvBDjjYeBsgMsAXDKryVX5Y25BkDAQ3ySK99ZW0NPFpothNER1l6wwvXhuLuE5uyAhrYSKleecrQKQLJ/uQnP/E62hTQwHTI9j2a9R4E7APg5j107bXXmmqdj7YfuHH3fFnvJVfQgI7byrJI3QsLvO6ggWmvrX5m/Y6x5W/aE3e01c+47yb48u3Fck9c2zlyzzBJ518OHFd/XLqrAQYfW1my3Tk76fgnFbsZNDBjYKtTtnI2fM3Rlr/JH3fMq7NlPVPL1FlkUVa74+RcZXpbQQNc9nlonXrqqZF9RvD8zwdBmNhvnv/MLHcUaLDPPvvoPAY04AbaYosttOHKjCLxBqZNmxZm3XKNCxd1gcLZEi96yvCBUSRVARrcddddeukBy0HCRIA8xsOg08bdDY8D4knEEVuQIA9kiezTiLHC5TRqfLK2Ia3OuP8FNIiTTL3TXQw8njV4HaGjRJm2oaT7xKa8gAY2UqpXnqJ16v7779deW2xZy4c8P/NuA5jlmg9nW8q75SIf53jxjR071rZK63xp79Es96CpnDXaed+3Nh+4Sfd8We8lPBfZCtmFbGRZtO6F21cWaMAERK9evcLV5b5O008qcP2O8TfKhr8/f/jcRj+TvpsYDzxETSBEYhzgncN9YybSwnXaXBNTgWfGuHHjbLJ7eWxkiXcwcc7Ms5Ejy2JpM8/MuKWxXiWOJ2VtuSg6G9zW2z8sSTpb1jO1TJ2lb2W12y+3dp23FTTAm4AlAHgEhAlFwtj/7Gc/qx8QIEN+4gHFg8MsW7ABDSh/wQUX6HIzZ87U8Q2M8evnHT7n4URdKJoNkY+9ZPGSoJx/vbRN+aQ8ZYMGyJMI3lHBn1jrxMv6a1/7WqCJ5iP3jjvuCKSbi/nz53sB53h4EgwsCTjAu4E1o1FLI7K2wbQly1FAgyxSa38ZWwMPXcRN84gjjtABogiqxuxlEiXdJ0nl/P8JaOCXRmecF61TGKG8K/w/lubx3mB5Helxz9UoieUFDXjvUnfRH+O0Nek9muUe9PcfI5l12nETEP68cedpRlnSPV/me8nV08BWlkXrXliuZYEGfMNxHxZNSfpJXa7fMeH2pfEP5w9fp+ln0ncTvC6++GJ9bz/11FMeaybCuG8wxLNSlllbW1nyPPM/GznfaKONdD84xzOwSCoLNBCdjQYNknS2zGdqmTpbZruL1PWsvNoKGtDo4cOH6weAf3YP12DWwHMDM1PPR0zY/Z01oLi6m2UMtqABD0kMX146tsgoRi4uXLZEADV2bnjkkUc0Agvw4XevsuUTla9M0IDtd1iusXr16kDV8+bN0wg7NwMP7PCDmo9axgjkOEzm5WCWGPBRCnDA0oc44GD8+PEa3PHzQidIz9IGP58s5wIaZJFa+8vYGHjoIDMZAAboFmRcewkQFkVp90lUmag0AQ2ipFLvtLJ0yt9r3ns8T5u0ewL9i3uPZrkH/fLinJ2KkJn/O4JJh/BkQ7ic/zrJKEu758t8L7mABnllmUf3/LLkvNNAgzj9pC9ZvmPC8ojiz+5etstek/STupK+m/j/yiuv1PcIXjl+AjBIWqbrzxt17mqA5ZXlMccco/thK7eoNseldRpoEKVTpm955QyfKP5V6WyZz9QydbbMdpuxbeex7aABe8zysidKPy4dkyZN0kbpueeeq+Xy9NNP67VXPNRYZwORRpmf/vSnnuww1EljC0BDxkth7dq1JkkfWcdH3nAAxNdff127hs6ZM8dby8/HAi5d7HtqiDS2dwr/uJkImEhbiYINsZURdR133HGmeK5jWaAB21ICwuBCB5hifsiVnSnMljxjxozR/TFBu+gMfWNWLOyJwWwtZQ1gYDpugAOMtTBwMGHCBM2fLUtMG9imZ8iQIcrsoODSBlNnnqOABnmk176yaQYeegh45QcMTGsNcMCL10+294m/TNy5gAZxkqlvehk6Fe5tHsOtDp4Gtu9R+p3lHuQde9FFF3nLBc1sFbFIjCFB2uDBg/UEwd133x0WceS1CZQcfl/Z3vNlvZdsQYMssgwLIo/uhXnVFTRw0U/65PodY8ufLbqZ5WcSxgDWYRn6r+P0kzw23014GDBhhhenISaIWFpw/vnnmyTno4sB5irLqMZ0I2hgq1NGXq5ytuVftc6W9UwtW2fLarcZ33Ye2w4a0Pnbb7/dczli7R4PMBOHgP8JDIXL/MCBA/UDj4+BW265xZMbs/ommj9bHeJGaB4sGOx4M/jX52MQwC9MfBxg/FKG4CtE/T/yyCN1wER/3oceekhHoCUKrf/3f/7P/9Hgx1577eUBHBi+8OPHR42/X36etudlgAa0acCAAV47TXvNEYTbEDcb/cA17LTTTtNLSyiLTMOE4b906dJwsr7mA4cxYqwMGQDJ1Os/8mJjfCCXNhjeeY5Vgwa42rI0Y8SIERrpJUq4zUeFbR8BwAjwybIgZidc1kxH1cE2qAA7fHBG0ZIlSxQ6RIwRgJ8VK1a0ZCPqOfcxyDb3K+Bh2OOlpVBKQpqBh27ioRQnW3Sa7VsNudwnpkzSsUrQoGydKpo/Y8LzAJfeKGqKTkX1LY/hVgfQwPY9St9d70HKMLnAu4GljXitHXDAAWrq1KkagDDy5F7lHU8+3ldJ9MQTT+j73Lxv8CqcOHGiLuJyz5f1XrIFDbLIMiyXPLoX5lVX0MBFP+mT63eMLX++5YzORb0TjTyT9JM8tt9N5L3zzjv1slnAct59TOrgzcv3WFZyMcBcZRnVJvNtbwDCqDxZ09B//65sWfmEy+VdnmCrU6ZeVznb8q9aZ8t6ppats2W124xvO4+1AA0QAO77RH3l4zOO8BhwCUYYx4f0qDX7pPORsHLlSg0UhGfBk/hV9V8ZoEGWtjNOuIT+9re/9bwqsvDJU6aqNlQJGrDchhmFnXfeWQcj69evn/6w4AVfBAHQYayOHj1ae5Xw0cKSEwx/V8KoBwxgtgQ+7EYSJmYF+d9ENycfxvzixYu9rHyw4OGy//7762cALzC8gdhOLe4+9QonnKSBBglFK/mrKtCgbJ0qkj8fgsSbMSAmXiBhEp0KS6Tnug6gAa0p+z3KJACegjyb44jnCi7ZgJFVUtHvJVvQoMo+2tRVV9CAtpetn7b82UqaybCqvzXZ4YsJG+NBajOecXlcDLA4HnVJrytogHxsdSqrLG35t0Nni36mVqWzRbc769gWWa42oEGRnWoyr7qABk2WcbhvVYIG11xzjXY1NG148803deRsDExcbvMQDzC8dPhgMHTGGWdog596Xem5555TAHksM4kCDViuQlC3hx9+WLMGDACsIC+R4Q2xDpm0uXPnmiQN3JH24x//2EtzPRHQYL3EytQpaiiSPx8uy5Yt0/FgGP8waCA6lXwX1AU0SG5lNf8ye4t3U9KuPtW0JF8tAhoE5Zd31jbIrX1XPOvwmpk8eXL7GlFAzVUZYAU0NZVFnUGD1MZXkEF0tgIh17wKAQ1qPkDh5gloEJZI+ddVggb33ntvCziAgY0bYZhYZkCAyDjCY2bNmjXe36+99lrLUgT2bcY4mz59upfP9SQuQBNukzNmzAiww6OB+tii09BNN92k08xWUKQTN4R84QCopozNUUCD9VJy0SniskR5jBh5o2/hJUcu/A2ftCPbgUWBBqJTyZIT0KBHPixhLGImtYdje84ENAjKvSmgAV50s2fPDnauA68ENEgfNNHZdBlVmaNJOlul3KhLQIOqJZ6zPgENcgowQ/EqQYNw8zD62QKQoJthIo4Aa3qj1iMSCIfAlgAHScS+x4MGDfJicCTljfsvDjRgVjgK1Nh8880VsUcMGQMRbwoiO+NRQcwFljTk+egX0MBIOHhM0ikAAwCqhQsXBgsppV1oiTnB2CRREv+kcv7/jE5EeRqITvklFTwX0CAojyZcCWgQHMWmGGDBXnXuVZMMMPE06Fw9dGl5k3TWpd9F5BXQoAgpVshDQIMKhf1xVe0CDdihYs8991TDhg0LeAwYCWA8sbvFqFGjAsCBAQzwIogjAs1NmTJFz+befPPNcdms0uNAg6jC9IkZZLMThsnD9nKkE/+AmA7EOPDv0GHyuRwFNGiVVppOUQK9AXBasGCBx4A1twAG6FuU0W4y2vA3eZOOcaBBVBnRqR6pCGjQI4umnAloEBxJAQ2C8mj3VZMMMAEN2q1N1dTfJJ2tRmI9tQho0COLjjgT0KD6YWoHaMCOCQQCxJDmt8MOOyh2GAgTBhy7fIwcOVLPBNsABgQTZecEoo8b/gSXy0ouoMHVV1+t+vfvrwimEyZ2IjHtOfDAA9W7774bzuJ0LaBBUFy2OkWpRYsWaeAAfbIFDFz4B1vWeuUCGohO9chPQIMeWTTlTECD4EgKaBCUR7uvmmSACWjQbm2qpv4m6Ww1EuupRUCDHll0xJmABtUPUztAA9NLjDaz88C1115rkgNHliewTIH9npkhTvIw8Bf84x//qF3NMdQpl3ULI1vQgN1RWIIQ3gedNtFmli2wXIIjbWLrs/fee8/fZKdzAQ2ixWWjU5Rky0mWxqBXbFuX5GHgr8mWv79M+NwWNBCdCkpOQIOgPJpwJaBBcBQFNAjKo91XTTLABDRotzZVU3+TdLYaifXUIqBBjyw64oxI86effnpHtLUpjST6NjPfNsR+4RhZRRLr/DGi2U85ju655x6dB7d+1+2bKAP/rNuZ2oAGABsss5g2bVpLF9iaq2/fvsoEQsRgxLOCNp155pkt+W0T6g4aEOAS4MaGTLwHm7w2eWx0it02WB7DOPDccSEb/kn8bEAD0alWCY4dO1axr3tWQqaMN94bQvWQQKeCBrxP8IArmgQ0KFqi+fg1yQDjvYPnZtEkOlu0RPPxa5LO5pOEe2kBDdxl1tYS4mlQvfjb6WlAbzHeWOt/6qmnRnZ+/vz5XvA6PA5Ye+4CHFx44YXaUCBwYRZKAw0IbPjNb35TXXHFFZHsL774Yl3/U0895f3PByd93nHHHb0015O6gwYAAby8bKho0CBNp9AfgDICEQIA4HGAB4EtpfFP45MGGohORUtQPA2i5dLJqZ0KGgAGb7/99oWLXgywwkWai2GTDDDxNMilCh1TuEk6W7XQBTSoWuI56xPQIKcAMxRvN2jwm9/8Jna21wAGxuXfLFU4+OCDrYEDQAaWAviJrfdslyukgQbjx49XfOj5CVd30qErr7xS9w/j1E8ABkOHDvUnOZ0LaBAvriSdAjA46KCDNGBAwEzILFV48MEH45n6/oni76JTaaCB6JRP2L5TAQ18wsh5CjBVBxLQIDgKAhqsl0dd9LNJgxOB4gAAIABJREFUBpiABsF7regr0dmiJVo9PwENqpd5rhoFNMglvkyFqwQNCEh40UUXeUsFzIwqa8rDRjwzv2yPZwAD0zkDHGD4+T0OXn/9dXXSSSepOXPm6G0Nyf/ss8/qpQGPPfaYKa5mzZqlZ/lZZmGMRu/PiBN2O8ClOdwOsk6YMEH/d+yxx6px48bpH1tFDhkyxNtBAQ+DXr16aW8Ew3716tVqgw02UOeff75Jcj4KaLBeZC46he4AOOFhEB57AxwAVPnJhr+rTt1///1ab4YPH+6vSp+LTrWIxEuoG2iADt1www0Kb6Yy6MUXX1Q8T/jYz0Po9jnnnOP9zjjjDA/U9PNNq2/JkiUKEHWfffbRz7cVK1b4i2c6F9AgKLYiQYOy9bMo/rb6mVYfwZQnTpyoRowYoUaPHq1uvPFG7ckYlLDblYAG6fISnT1HxT1T03S2jGdqk3Q2XfuKzSGgQbHyLJ2bgAali7ilgipBg1NOOUUbS+xswFKDAw44QBEnAWMuTBjiS5cuDSfra/Ifc8wx6vHHH/f+f+mll9Smm26q+e+000567d6RRx6pnnnmGS8PJ+gYIAC/pI9e1k6fcMIJXl68FfggMYSxYPiEjwACtMfQnXfeqbbbbjttsJ544okaDCGGQ1S/TZm0o4AG6yXkolPoE/LnRR5FfLwy5n6y4W+rU/CdNGmSQj/RGZaowP/RRx/VVYpO+SXfel4X0ACAc+bMmWrAgAF6HAGhiiRARYxz9AM9CT/DXOqirYMHD255VvkDytrUB3hGe0zgWtrFM2jx4sUuzWnJK6BBUCRFGGBl62eR/G3006Y+ggqj571791b9+vXz9J3vjHXr1gWF7HDVJAOszp4GNmPsMGwtWYvkX5TOlvVMbZLOtgxkyQkCGpQs4KLZC2hQtETT+VUJGtCat99+WxtJ1Fs0ffTRR2rlypX6I9vvhRCuhy0RBw4cGPBUCOcp4/qVV17RQMc777yTm72ABj0iLFOnqMWGv+hUz3iUdVYX0IDnzLJly9QjjzxSCmjw3HPPqbVr1+plNHlBg7lz5yq8pVgSY36///3vA0OUVh/xYLbeemv18MMP63IAoszk0jYCnuYhAQ2C0isCNChbP4vkb6OfNvWdffbZ2tOQrYxZHsi3JO9IdNQPkAWlnX7VJAOszqCBzRinj1Z8jiL5F6GzZT5Tm6Sz8SNazj8CGpQj19K4CmhQmmhjGVcNGsQ2pKI/eHkwuzt58uSKaiynGgENypFrFq6iU1mk5l6mLqCBaXlabAriXCR5CWDcxHlTUUdaPBXTjqTjvvvuq9h1Yvny5d6yrbj8cfXhATNjxoxAMZYyYJD16dMnkO56IaBBUGJFgAaGY5p+ko+le0nbzQLCr1mzxrAMHG34BwpEXLjoZ1x9zPyyS1LYc48Axehont1SmmSA1Rk0MKoRN8bmf45N0Nkyn6lN0ln/uFdxLqBBFVIusA4BDQoUpiWrbgMNmGWbPXu2pXTqm01Ag/qMjehUNWPRaaABgAFxWRYuXNgiIDyhCNJ69NFHt/xnEuKMePN/2pGPa4wm8+vfv7+O6RJXLq4+ZsWiDMvNN99c7b777nHsrNIFNAiKqWrQgJgZuPCHDW5aRVyhzTbbTHvvBVu5/srGwIsqZ9Jc9TOpvrD3DHVMnz5d6z4zw1mpSQZYU0CDJuhsmc/UJuls1vs2azkBDbJKrk3lBDSoXvDdBhpUL+FyahTQoBy5djPXuutUp4EG6BKu0RheCxYs8FTLAAaHHXZYpDFuMsYZ8eb/tCPLoYgZQ/yULbbYwgMP4gI3utS3atUqze+8885La0bi/wIaBMVTNWgAGIQejho1KgAcGMAgybU/yYgP9ir6ylU/XevD02DDDTdUxDvISk0ywJoCGjRVZ4t6pjZJZ7Pet1nLCWiQVXJtKiegQfWCdwUNBg0apNiazvzYHUCofAmwzZ+ROUeCkhG4r670D//wD4qXlw2R97LLLgv07/3337cpKnlySKDTdKoTQQOGZ9GiRRo4wBCzBQwo52LEp6kB9bL9K88NflHPbZf6cPnGc4FYHnlIQIOg9KoGDagdI+zQQw9VI0eO1PppAxhQztWID/Y0eGWjny718f4gaOcVV1wRrMjxqkkGWFNAA4awiTpb1DO1STrreLvmzi6gQW4RVstAQINq5U1tLqDBT37yE7XxxhsHfriKCZUvAXZvCMv+oYceKr/ijDW4gAbbbLNNS99eeOGFjDVLMVsJdJpOdSpowHgA8H3qU59SbPXKFrN89KaRixGfxsv8f+mll2oPgR/96EcmyTva1vef//mfivs7ahtaj5nliYAGQUG1AzSgBSxPYJkC+olnTJKHgWmxixFvyqQdk/TTpT68a9hel22d81CTDLAmgQaMaZN0tshnapN0Ns+9m6WsgAZZpNbGMgIaVC98F9Cg+tZJjZ0qARfQoFP7KO2uVgKdDBr8+c9/Vnvuuac22O+77z4rwdka8VbMPs6EZwAxDs4999yWYjb18aE+bNgwNW3atJbyWRIENAhKrV2gAa245557tG4QVJCZ/zRyMeLTeJn/k/TTtr677rpL7bjjjnrXG8M367FJBljTQAPGtAk6W/QztUk6m/W+zVpOQIOskmtTOQENqhe8gAbVy7wbahTQoBtGudo+dipogAF24IEHqiOOOEI98MAD2uMAF/A0sjHi03iE/8fDYYMNNlDXX399+K/U5RDM2rJOPK/Lt79iAQ380lCqXaDB/PnzvaCdeBwQpDMNOLA14oM9TL5K0k+b+h5//HG1yy67qKjAiMk1R//bJAOsaaBBE3S2jGdqk3Q2+q4sL1VAg/JkWwpnAQ1KEWsiUwENEsUjf2aUgIAGGQUnxWIl0ImgAYbXQQcdpAGDDz/8UPfNLFUgNkkSJYEGbPPJx6ErPfroozo4HO6wYUqqj7zjx4/XRq2/HEYe6VlJQIOg5NoBGhjjyyw3MW7fuPcnAQdpRjxbjrIdogsl6Wdafc8++6waOnSoWr16daDKefPm6RnpQKLlRZMMsCaBBk3R2TKeqU3SWcvbtLBsAhoUJspqGAloUI2c/bUIaOCXhpwXJQEBDYqSpPAxEqgbaHD//fdrd+7hw4ebJgaOGF8YXngYGMDAZDDAAR+/cbTHHnto/saYM/mYnRo8eLDq1auXuvvuu01yy/Goo45Sp556qsJYgDDi9tprL3XJJZe05CUhrj7+mzBhgm7Lscceq8aNG6d/xLMZMmSIyrODgoAGwaEoEjRI009qxuOFbUHDOmaAAwCvOOAgif+sWbN0wE1iJIR13/TYVT+T6nvppZd0LAaWVhj95MjOEPTvnXfeMdU6HZtkgHUCaJA0xmbgmqKzZT1Tm6SzZsyrOgpoUJWkC6pHQIOCBOnARkADB2FJVmsJCGhgLSrJaCmBOoEGkyZNUjvttJM2pNmN4JRTTlHMkvpp6dKl6sQTT4w1mgAOTjjhBH8Rff7EE0/odGIP8CNg5cSJE718eBnggs1/BFWMIww+8vTu3VsvjyCmAu/YMKXVd8MNN2g+pj3+I0sdMNiykoAGQckVBRrY6Cc1AwKhp1EEcHDMMccoXP7DlMYfPTN6smLFinBxfW2rn2ROqo/7YcCAAV59pl5zxIMmKzXJAKs7aJA0xv7xa4LOlvlMbZLO+se9inMBDaqQcoF1CGhQoDAtWQloYCkoyeYkAQENnMQlmS0kUCfQwKK5pWbBoGMLxauuuiqxnjVr1qhly5YpjnUkAQ2Co1IUaBDk2p4rghoOHDgw1lOBVtVdP5tkgNUdNGiPlgZrFZ0NyqPbrgQ06LARF9Cg+gET0KB6mXdDjQIadMMoV9tHAQ165M3s7T777KPeeOONnsQOPBPQIDhoTQENmP3H+2by5MnBDnbYlYAG6QMmOpsuoypzNElnq5QbdQloULXEc9YnoEFOAWYoLqBBBqFJkVQJCGiQKiLJ4CgBAQ16BHbLLbdkXqfdw6X9ZwIaBMegKQYYuxfMnj072LkOvGqSASaeBskKKDqbLJ9u+FdAgw4bZQENqh8wAQ2ql3k31CigQTeMcrV9FNCgWnlXUZuABkEpNwU0CPaqc68ENEgfO9HZdBlVmaNJOlul3KhLQIOqJZ6zPgENcgowQ3EBDTIITYqkSkBAg1QRSQZHCRQFGnz+85/X2yASiM38fvWrXzm2RrK7SuDOO+/05G3kvv322yueFZ1Gr776qqLtRRMGGMEljXzM8bjjjiu6KuEXIYFDDjkkIPt/+Zd/0QEWp06dGpG7s5LK9DQQnW2fLjRZZ6uWqoAGVUs8Z30CGuQUYIbiAhpkEJoUSZWAgAapIpIMjhLICxr89a9/Vf/8z/8c+Zs7d65jayS7qwRuu+22SNnz0dtpVBZocN1110XK6Gtf+1qniagj2/ulL30pUv5z5szpyP74G10WaCA665dy9edN1tmqpSmgQdUSz1mfgAY5BZihuIAGGYQmRVIlIKBBqogkg6ME8oIGjtVJdpFArATKAg1iK5Q/RAI5JVAWaJCzWVJcJFAbCQhoUJuhsGuIgAZ2cioyl4AGRUpTeBkJCGhgJCHHoiQgoEFRkhQ+eSUgoEFeCUr5qiUgoEHVEpf6Ok0CuUCDF154QT388MPyq1AGbM+DG57IvTq9u++++9SOO+4oMq9Qz7tBvz/72c+qBQsWiF6JXhWmAywtmDlzZmH8uuE+lD6W8y6955571M477yy6KM+3jtEBdrPYZZddOqa98uwq59lVZ7m+8847bcUZcoEGBKTZb7/95FehDL7whS/oh5rIvTq940N88ODBoucV6nk36PdOO+2k95Hvhr5KH6t5XmGk7bXXXvKskmdV23VA3pvV3PPybC1OznvvvbcaMmRI2+8dGdPixrRpsly2bFnnggZtbXmXVi7LE6ofeFmeUL3Mu6FGWZ7QDaNcbR9leUK18pba4iUgyxPiZSP/1FMCsjyhnuMiraqPBHJ5GtSnG93TEgENqh9rAQ2ql3k31CigQTeMcrV9FNCgWnlLbfESENAgXjbyTz0lIKBBPcdFWlUfCQhoUJ+xsGqJgAZWYio0k4AGhYpTmH0sAQENRBWKloCABkVLVPhllYCABlklJ+XaJQEBDdoleam3UyQgoEGnjNTH7RTQoPoBE9Cgepl3Q40CGnTDKFfbR1fQYOLEiWrTTTdt+e26667VNlxqi5XAlClTWsaHMdtmm21iy9ThD1fQ4H/+538i+0lf77jjjjp0SdqglNp8880jx2nGjBkdLx9X0EB0tjOGvMk6W/UICGhQtcRz1iegQU4BZiguoEEGoUmRVAkIaJAqIsngKAFX0IBgxr169VJnn3124HfppZc61izZy5LAokWLAmPDWA0bNkzx/KgzZQENPvGJT6h99923pb+/+c1v6tzVrmrbueeeGxifU089VTFuU6dO7Xg5ZAENRGfrP+xN1tmqpS+gQdUSz1mfgAY5BZihuIAGGYQmRVIlIKBBqogkg6MEsoAGf//3f+9Yi2Q3Evjb3/5mTis9/tu//VtjQYOrr766Ulk2qbJ26OP/+3//r+tBA9HZ7HeR6Gx22bWjpIAG7ZB6jjoFNMghvIxFBTTIKDgpligBAQ0SxSN/ZpBA3UCDDz/8UN1www3qwgsvzNCb9CIvvvii+ta3vqWYIcxKH3zwgWKZxogRI9To0aPVjTfeqP785z+3sPvlL3+pzjnnHO93xhlnqPHjx7fkIwG35euvv16NHTtWHX744eqhhx6KzJc1UUCDbJIrQl+Sai6C/5IlS9S3v/1tvR3veeedp1asWBFZpYs+PvPMM+qss85So0aNUngGFEkCGnxClQkaFKFTSeNdBH/R2SQJN+s/AQ06bDwFNKh+wAQ0qF7m3VCjgAbdMMrV9rEuoMH//u//qpkzZ6oBAwboWcgjjjiiUEGsXr1aG1Z/93d/p/ljFGWh9957Tw0ePFj17t1b9evXT/PC3fiQQw5R69at81jSH/Lxn//3q1/9ystjTn7+85+r7bbbTi8hePLJJ01yoUcBDdzEWZS+xNVaFP/rrrtOodP/+I//6OkZnkCLFy8OVG2rjxj03/zmN9UnP/lJddlllykAsqJJQINyQIOidCpuvIviLzobJ+Fmpgto0GHjKqBB9QMmoEH1Mu+GGgU06IZRrraPdQENPvroI7Vs2TL1yCOPaOOnaNDgueeeU2vXrlUHHXSQ5p8VNCA+wEknnaTeffdd9de//lXxfsVIAxjwAwJz585Ve+yxh3r55Ze93+9///uWwb399tt1jAj6C7+ySEADN8kWpS9xtRbB/w9/+IPaeuut1cMPP6yreemll7TnC7q43377Baq20UcAsb333lvrM/dhWSSgQTmgQRE6lTTmRfAXnU2ScDP/E9Cgw8ZVQIPqB0xAg+pl3g01CmjQDaNcbR/rAhqYXmNkY/TEgQb//d//rZIMfgzvpUuXGnYtR9y44Z/Eo6XQxwnM1n7xi1/USwn8eZiZhaff5ZjgfCw1WL58uYpbg/voo49qwGDgwIEKQ6pMEtAgm3TT9KWd+sgynvAOBLiOo4t9+vQJdNhGH7/yla/osmGeAUYFXAhoEHxWFCDSAAvR2YA4Crloks4WIhAHJgIaOAirDlkFNKh+FAQ0qF7m3VCjgAbdMMrV9rHTQAOM/U9/+tNq4cKFLYL6y1/+ojB8jj766Jb/TELaB7XJF3eM8haYPn26NraYzYUee+wxfY3xxq9///5q1qxZLSxHjhyp///pT3+qeGc8//zzLYBES6GMCQIaZBNcmr60Ux+ZtY3yTmG7uN13393rsI0+stsEuvqZz3xG/elPf1L/+Z//qV5//XWPR5EnTTLAsu6e4AcYi5QtvERni5ao0qAu90cTdvwoXjrJHAU0SJZP7f4V0KD6IRHQoHqZd0ONAhp0wyhX28dOAw2QDssANttsM7VgwQJPWAYwOOywwyINKZMx7YPa5HM54mmw4YYbKty7oVdeeUV/XB5//PFqiy228AAEf3DHVatWeek777yzt8SBfpUx0yuggcuI9uS10Zc66aPRKwIiGrLRR+Mts+mmm+p7C33GSNp///3VG2+8YVgVchTQoL2eBgyi6KybKjdJZ916nj+3gAb5ZVgpBwENKhW3rkxAg+pl3g01CmjQDaNcbR87ETRAQosWLdLGzS9+8QtlCxhQzsYIdBmB999/Xwehu+KKKyKL0bYrr7xSB6sjYN1TTz2l8/FexihjaQLBD1n6wIywCWgXFwE/shKLRAENLIQUkcVWX+qij8xg49ny1ltvRfRG6XslSh8BrtBHdgV55513tLfBySefrNO++tWvRvLKmtgkA6wTPQ3MuInOGkmkH5uks+m9LTaHgAbFyrN0bgIalC7ilgoENGgRiSQUIAEBDQoQorAISKBTQQM6wRZyn/rUp9QXvvAFhWET5aod6GwJoAHeBAcffHBs3AJT/6WXXqoNsB/96Ec6acqUKfraPyPMH7i/YrxdfvnlpmghRwENsonRFjSAe7v1kSUFvCN+/etfp3Y2rI+bbLKJ1juWJhhiG1A8ZTbaaKNCl800yQDrZNBAdNZoevqxSTqb3tticwhoUKw8S+cmoEHpIm6pwAU0mDZtmurbt2/gx4eoUPkSGDZsWEDujIOJRF1+7e41uIAGW265ZaBvfPgRXVuoXAl0mk51Mmjw5z//We25557a2LnvvvusBtbFCExjeNddd6kdd9xRvf3222lZ9cwvYMC5556r895222263eeff36g7LPPPqvTw9HvA5kyXAhokEFojiBTO/URA59nD98TNoQngl8fd9hhB32NZ4yfxowZo9P9O4P4/89y3iQDrNNBA9FZOw1uks7a9bi4XAIaFCfLSjgJaFCJmAOVuIAGzCzx4cn6XPN7+umnA/zkohwJsK2UkTlH3IeZLaoruYAG5GW20t8/XKmFypVAp+lUp4IGGDcHHnig3mXhgQce0B4HLFVIo6JAg8cff1ztsssuKiowYlQb8ILYYIMN1PXXX6//NoHnxo0bF8j+6quvaiNtxIgRgfS8FwIaZJOgrb60Ux/ZnYOYBHFLZKJ6HtZHs3MC8Q/8dNxxx2l9LBJMb5IB1smggeisX9OTz5uks8k9Lf5fAQ2Kl2mpHAU0KFW8kcxdQQPca4XaLwH2W28SaIAxJdReCdRdpzoRNOBj96CDDtKAwYcffqgH2LiGP/jgg4kDnmQEfvTRR1ZbH+INMHToULV69epAXfPmzVP33HNPIM1csL0iweVwIYeY4dt6663VNttsE1jaMGfOHG2knXPOOaZoIUcBDbKJMUlfDMey9JHtHIl1kUbjx49XF1xwQSAboADpcRTWx2uvvVbrHds4+glgDL0lzkFR1CQDrFNBA9FZN21uks669Tx/bgEN8suwUg4CGlQqbl2ZgAbFy5yPJ5sPqDw1193Ac/U0ENAgWRtEp5SqG2hw//33a+Nl+PDhkYOHGzYxBI444ghlAAOT0QAH8+fPN0ktxz322EPzD6/7ZrZ28ODBqlevXuruu+9uKWcSWOLDDgdf/OIXFV4C5seuDWwFiXF11FFHqVNPPVVhUEAYf3vttZe65JJLDBt9NFs1+g210047TW288cbWHgwBhgkXAhokCCfhrzh9MUXK0ke26MTzjQmFsJ6bujlOmDBB6/Oxxx7r6eK3vvUtNWTIEGXiZdjoI0YkABb3gNkFhC0dacOZZ57przL3eZMMsDqCBqKzorO5b9ICGQhoUKAwq2AloEEVUg7WUTVowKwVrom4tOJm+IMf/CDxQyPY2vQronqz9/nee++tZy+WL1+eXigixwcffKCjM9PO0aNHqxtvvFHPuIWzMuPHWl9m28zvy1/+snrhhRfCWfU1e2WfddZZatSoUfpjPTKTRaKABj1CKluniuS/ZMkSHRV/n3320R/KUZHnRad6xtZ/VifQYNKkSWqnnXbSRhDGyimnnKKYEfXT0qVL1Yknnhj7fAM4OOGEE/xF9PkTTzyh01nHzW+33XbTzyKTEf1gVpX/4qLFk2fAgAE6j+HjPzIrDeEFQXrv3r31EgriLvAeDhNABUuIiKUyduxYhbEH/yJdwU2dAhoYSdgd0/TFcClLH9EXo1tRzzPqB2wyecJHlsKYGDa2+ogXzK677qqXS55++un6XgT84lldJAloUM6Wi6KzorNF3qdF8RLQoChJVsRHQIOKBO2rpkrQgGjHIMtsmcSHZ79+/fSHBB/WRdDtt9+uIzJj5DO7xscJQfVefPFFJ/bMXjCLwYe0aSO8DjnkELVu3boArzvuuKPlYygqMBgfH6zl/OQnP6kuu+wyBSiRhwQ0WC+9snWqSP7XXXedng0zW9WhU4zj4sWLA6ogOhUQh3dRJ9DAa1SbTpg1Zju6q666KncL1qxZo5YtW6Y4phGzvHzwM2tZljeVgAZpo1C//wlWyJac6EdectHH3/3ud3r7zz/+8Y95q40sL6BBOaBBpLArThSdrVjgHVCdgAYdMEj+Jgpo4JdGNedVggbXXHONdlE0PXvzzTe1YY4rOzNZeYgZBgx9f3CkM844Qxv01OtCZ599tjrppJPUu+++q7dGQy8x7jDywpGZd999d0V08Zdfftn7+beCol5ACDwf4EHwuSJIQIP1UixTp6ihKP64z7Iu3MzMMrMGuIVOhUEm0anoO0RAgx65MKOLt8obb7zRk9iQMwENOmsg8WrB02by5Mmd1XCL1gpo0EzQQHTWQvm7MIuABh026AIaVD9gVYIG9957bws4gMHE+towscwgaS/zlStXBmbGXnvtNRVeioCBj1HGelxbYvYMLwVm8vyElwC8rr76ai950aJF2l2XdcWg1nFkoj3PmDEjLotzuoAG60XmolOs12Z5SByhb7jw+smFv79c+Bz33PD44wGDTvXp08fLLjrliaLlRECDHpHccssthQZ86+Hc/jMBDdo/Bi4tYFeO2bNnuxTpmLwCGgS/eTpm4FIaKjqbIqAu/VtAgw4beAENqh+wKkGDcO9wQ/zUpz7lbe3l/581sywHCBvv5GG7MgJ8ARwk0fe+9z01aNAg5eq6GLU1mQkENnfuXK9Kgpxh9PFjXTNBnMIzf2a7ss985jMKDwTWYr7++usej6wnAhpESy5JpwAMAKgWLlzYUhi3WsAd4mEkURL/pHJ4GkSBYJtvvrnCs8CQ6JSRROtRQINWmTQxRUCDJo5qZ/ZJQINmggadqY12rW6Sztr1uLhcAhoUJ8tKOAloUImYA5W0CzRYtWqVIujWsGHDAh4DpnEYWET5JmCgHzgwgEF4mYApx5EIzlOmTNHG/M033+z/K/M5ngZs52SiNcMIDwOCIO6///4eeMB6dWRqyHgobLrpphrogAcgA2XCAIMpY3MU0KBVSmk6RQn0BsBpwYIFHgMDGKBvUYa9yWjD3+S1OcIPXTCRwykjOhUvOQEN4mXTpH8ENGjSaHZ2X5pkgNVx94TO1o56tr5JOlu1hAU0qFriOev7+c9/niuifM7qu7I4hisGrA1NnTpVb6tkkzcpDzsmbLnllp6hvcMOO0QGBsSAO/TQQ9XIkSN1gCUbwOC//uu/dPwAAg4aLwAC0OWh999/XwEGsOtDHLEfuolozhZrhgj6SDsmTpyo3YnxNjj55JN1Wlzkc1M26Vh30AADz9bDg5gWebdctNUpZMoSAIAD9MkWMHDhnzRu/v9Y6tK/f//YpS2iU35pKTVmzBgdhC+YGn/FfvDcJ0KdJYFOAA14z7Czji0BfPMe8C9vsy0r+dongSYZYMTRYXcKWxKdtZVUvfI1SWerlqyABlVLPGd94mmQU4AZirfL04CmYrSZSPLXXnttZOt5cbFMgT2gMfSSPAz8DDBYcTXnQ41yeSJ9H3/88Xq/9bRgjex7jvs7Sy4MbbLJJroN/uCI9GmLLbbQOztwnoXqDhoABPDysqEiQANTj41OkZft7hgn9ArwJsnDwPAJ1SWNAAAgAElEQVTmaMvfXybqnGUq9PvXv/511N9emuiUJwolngY9smjyWSeABq+++qrafvvtrYdBDDBrUdUqY5MMMPE0qJVqldaYJulsaUKKYSygQYxg6posoEH1I9NO0IDeMsOMYY9hHkf33HOPzkOAQtctnczWi8wMZaG77rpL7wX99ttvWxVnr2j6g3cChBcF1+F2M2tKui0IEq5cQIOwRHqubXSK3TZYHsMY3HfffT2FLc5s+CexwYBgWc60adOSsnn/iU6tF4WABp5KNPpEQINGD29Hda5JBpiABh2lepkb2ySdzSyEjAUFNMgouHYVE9Cgesm3GzTAeCOIIIZRFM2fP98LXofHAcHqwgZ4VDmTduGFF2rDkEB0rvT444/rJQdRgRHjeBF8cauttvL+Njsn+LeC5M/jjjtOt8tswecVsDwR0CBeUGk6hf4ceOCBimUkAAB4HOBBYEtp/JP44K1CnIukpS7h8qJT6yUioEFYM5p5LaBBM8e1E3vVJANMQINO1ED3NjdJZ917n6+EgAb55Fd5aQENKhe5DtrHumobKiqmgb8us7tA1GyvAQyMCzcztAAHRJi3BQ4w2nfbbTd/lYqt99KWK7CefOjQoWr16tWBsvPmzVN4PsQRxugxxxzj/c2yC2az2XLPT8Q/ICgi7udZSECDeKkl6RR6w7pOAAMCZkJmqcKDDz4Yz9T3TxR/G52Cxfjx4xVr7f3E0gjS40h0ar1kBDSI05By0tOWY5VTq1ICGpQl2c7m2w59bJIBJqBB9fovOlu9zPPUKKBBivQeeughvSd9SrbK/q4CNGBvdLbz4wGaRmXJB2MFI5JZ8DQqqw2m3io9DQhIeNFFFymzVMDMurKmPGzEM/NLfAADGJj2GuAAw88PHLCN4UknnaTmzJmjzIMaw79v377qscceM8XVrFmztGcDa9mN0ej9+fEJAYOIg8DShnHjxnk/ouvTJgx92vflL39Z3Xbbbeqjjz7SJe+44w4d4PHNN9/0WNLGbbbZRg0ePNjbeQGvB7wrzjzzTC+f60lZoMEHH3yggzYS5Gv06NHqxhtvVMysu1JVMQ1cdArdAXDyAwamXwY4AKjykw1/G52C54QJEzSAdOyxx3o6xbNoyJAhegeFpuqUX55se3nWWWfpXVHivIv8+f3ndQINeKYQM2XvvffWgM/y5cv9Tc11zv2GJwr3IKAnQTjjnlVpFdnez+j/Oeec4/3OOOOMWCCL++j6669XY8eOVYcffrjiHVUkVQUa5OlHnWIaFKkvUeNYJP8lS5aob3/722qfffbRz7wVK1ZEVamBXFt9zPNMiazcl1gFaGAjkyKeN3UCDYrUKd9weadF8rcZHyp2eYZ2us666GOe56w3oBWdCGiQIOh3331XbbvttvojNmywJRQr9a8yQQNmjHlZYawx88tNm0RlyAc5z5w5Uw0YMEC3wR9lP6otZbQhXE+VoMEpp5yi+83OBngMHHDAAQrvBR4qYcKwWrp0aThZX5Of2XyWDxjC0GdbQ8Z2p5120rsuHHnkkS3jjI6Rh1/UBwsAgBkfk89/RIeghQsXKhPkkPq+9KUv6Ta99dZbpknekaB3u+66q46NcPrpp+v2YTDxYstKZYAGbCcJuNG7d2/Vr18/T06M1bp165yaWhVo4KJT6NOJJ54Ya4Dx0j/hhBMC/bThn6ZTMAQk9OuR/3yDDTZQ6G8TdcoIk49vlmVw71922WWRu6WYvHHHuoAGt99+uw5iCahmYqZstNFGCkA6LxEwdY899lDsuoJRbu5D9NaVbO9n3kvc936d5Dwq3go7HG233XY6JseTTz7p2iSr/FWABnn7URfQoEh9iRqcIvkDwPL9ZYIfo2O8xxYvXhyo2lYfi3imBCqOuCgbNLCRSVHPm7qABkXqVMSQqSL524wPbegmnXXRx7zP2ajxLTNNQIME6X7jG99QfKzy4Ebh60BlggbPPfecWrt2rXZNps9poEEZ8sEgXbZsmXrkkUe03NNAgzLaEB7nKkED6iag4KOPPqqXRYTbkvca+a5cuVKPrd8LIcwXw37gwIEBT4VwHptr6nvqqafU888/H2uI+vn87ne/014PtlsR+suGz8sADc4++2ztrQFYhcs89yP1xBkQ4Tb5r6sCDaizTJ2y5S865R/94DnGKzPy6BLPvqxUB9AAoA8D2x+jhFl57pFrrrkma9e8cvDAI8UQXkuAeNxPxoPK/Jd2tL2f586dq4GKl19+WZlfVBwXPhZ79eqlPXVsdxtJa2PU/2WDBkX0oy6gQZH6EjUWRfHHu27rrbdWJoYPICmgG/fNfvvtF6jaRh+LeqYEKo64KBM0sJFJkc+buoAGRelUxHDppKL424yPaUO36KyLPhbxnDXyreoooEGMpHGpHjVqlPr617+uH9rdABoYUTBTnAYa2MgH95ykDyeM1zVr1phqA0c+zGhDEmhg04YA04wXVYMGGZtZWDEMfWaPJ0+eXBjPdjBKAw1YY58EjKG7fk8OngHMmoa9PpgdRldd9xevEjRoh/z9dYpOrZdGWKeMjEww0BkzZpikTMc6gAavvfaaCi9FYEaee2T69OmBfrnegxS+9957W8ABjCqWRbmQy/287777aq8G+hUHTAD0AhgAtmJIlUm2oEGWd3BR/agLaOCiL+3URzytwvc/njncN3369Amok40+FvVMCVQcceECGrjqo41MXJ43Ec0PJNUFNBCdzfceDAxqxEWZOmurj0U9ZyO6V2pSLUAD1iL+6Ec/0u7SrMO+5JJLvLXN9J6P9ClTpmgDcuTIker73/9+YBaDBz2IDajsG2+8odc3Ehjrqquu0gHdQGy/853veL8777xTC/WFF17w0nB7NcQMyec+9znFDIYLaMC6XX89BANjbSpp3/3udzU/U0fWY5meBqZNaaCBrXxYi4zbdtjIoh7WJrMmHuAgitJAA9s2RPF2Tes20IAZtNmzZ7uKqXb500ADAAMMDf+9bzqBFwYfXazJ9lPU7CKGEB92IOku1E2ggeiU0l47UTplgkZ+5jOf0W6jLNUh/kgWqgNoENVudrcYNGiQCnsQZbkHw/wBntndgxgCrmRzP2PocH+bH0FxedeHiW8T8vz0pz/VXmJ4V0W9+8LlslzbggZZ3sFF9aMuoEFYvkn60k59ZNY2apJl8803V7vvvrvXDRt9LPKZ4lUcc+JigLnqo61Mwk2Le96E84Wv6wIahNslOhuWSL7rMnU2qmVR+ljUczaqvjLT2g4amLU1GKoY6Xx48+Jllh/CxYoI7RifuNiCvHKNG5cxOHG14eOfckSBZ80tAdi4/td//VfN59Zbb9XXrDX0E+6Jhx56qBeojRkxUFzWmUAuoAEzF5dffrmuxzzkL730UvVP//RPCrfrIqjdoIGLfHgBEhiPsfR/PBnAIGo9qJFREmjg0gbDL8+x20CDPLKqU9k00IC2ooOAVwsWLPCabgADdDfqI87L+PEJngbs8sCzyoW6CTRwkUud85ahU8ZThXgj6CK6xLtr//331yC4izzqBhowIQDgT39uvvnmyK7kuQdXrVql9txzTx0/gA/rIih8PwNQE1fm+OOPV1tssYXuC/3xB+mlHaTxI9YCesI54xmePS6ijbagges7uMh+1BE0sNGXOumjGY/zzjvPUxsbfSzymeJVHHPiYoC56mNUlVEyMflsnjcmb9SxjqCB6Kz7ezBqbP1pVelsnD4aHa7qfeHve97ztoMGrHUk8NP777/v9QXDH1AAI5zo6QjWH9CNG5tYA5///Oe9MgREIh9GNYRhyUfYDjvs4OUheBJ5mAEwxAcHbiKGiMjsD6jkAhoYHgaw+Pd//3cdKZ6Zo6Ko3aCBq3x4SQDKgKphjNkABsgqCTRwbUNe2QtokFeC7SlvY+DRskWLFumPe3TTFTDguUXQKnTSlQQ0cJVY+/OXoVMYmbyXJk6cqHcdAUg/+eSTdRq7prhQnUADdoAhTgPvd/rHj6BZUZTlHmTHhC233NLjzbuenRDyUNr9zPPhyiuv1MHqCFhHvBaI9zL9Y2kCwQ/5dmFG2AS0iwoom6edtqABdbi8g4vsR91AAxd9qYs+suQNz5ao4MGMbZw+FvlMSdNTFwPMVR+j6o6TicvzJoovaXUDDURns70H48bXpFehs0n6WORz1vSpqmPbQYOtttpKb/Hl7zCz0nw4QXgGgNaH1xHiDcBLmhcThKHPNUsODPHBQhoAAvSzn/1MX5tt3HBFw2vBEOsVifLuBzCygAYgwRtvvLGu64c//KFhX8ixnaBBVvkwnniKsIUfY5nkYWCEFAcaZG2D4ZvlKKBBFqm1v4ytgUdLzXaC6CiGGh/aNsTsI1sUhp9PNmUFNLCRUr3ylKFTZocR886jxzwzmdVmxwG/l1aaNFxBA1z62dqtTGJJAst8eBfz/MegjqKs9yBgnzHOr7322ijW1mm29zMehPSHZZWQ8abwzwiTjocC+fBALJKmTZumd9ax5Wn7Di6yH66gAbNye+21l8IrtEyy1Zd26yOTTbwjwlsqR8kmrI9FPlOi6vOn8dziucMSYVuy1ccwPxuZ2D5vwry5dgUNRGeDUrQZH1OiW3Q2Sh+LfM4aeVZ1bCtogMs+L9S4vaiJQsn/fBCEif3m+Q8jGooCDfgYIo8BDcyHGB8uILTEG+DlawhPBGIqsP7E/HbccUfNA1dEl0BnzARQNx8hRVI7QYM88rnnnnu0PAgkh+zTKA40yNOGtDrj/hfQIE4y9U53MfB41uB1xD173333WXXsrrvu0ltEsmwqCwlokEVq7S1Thk4xQ47ehZ+LY8aM0ek2IKuRiitocPHFF+t4AKZ8mUez9SIzMFGU5R40fB544AEtqzzvW5f7mZlfxuzcc8/VTSAoL9fnn3++aZI+Pvvsszo9HP0+kCnDBfXgZeFCNu/gIvvhChrwfda3b99CdthIk4uNvrRTH5HFsGHDAt+nSX0K62ORz5SkevkPo4hxCwc5TStno49+Hq4ySXve+Hmbc1fQQHTWSG490C062yOP8JlfH4t8zobrKfu6raABCCWui3gEhImbEWP/s5/9rH7p4k7ip3Hjxul0s2zBBjSg/AUXXKDLzZw5U3sxsHWaIT64tt1228CPmR4+BkhnFtKGCN5CfrwkKOtfL21TPilPO0GDrPKZP3++F3AOjwOCgYU/kMN9jgMNsrYhzN/lWkADF2nVJ6+tgYcuEjiVnTr4mCSoGrNRScRzZ5dddlFRgdSSyvn/E9DAL43OOC9Dp0yUczzU/HTcccfp94fZgs3/X9y5K2jA+5A+VUEA77wPeT+GKcs96OeBgcdygbgJCH/eqHPX+xlPJJZImuCLJvAc3yV+wnCmzyNGjPAn5z53WZ5AZbbv4CL7kQU0QFYukzNZBZmmL+3UR7zWiEngsuQtrI9FPlPSZOzq6u2ij6buLDJJet4YvuFjFtBAdFZpT0vR2bA2Ba/9+ljkczZYS/lXbQUN6N7w4cP1S9U/u8cDkDXw3MDMHHBThl3W2N0AjwHj0mkLGjDLwbZIfCiFX/BR4j7mmGN0/XEulVFlCKDGzg3st82HBcCHf8lDVBnbtHaCBlFtTJOP+VgxLnaAQQAHuHQnAQdxoEGWNkSVcUkT0MBFWnZ5uZ9c7ik7rsFcNgYeOoh3EYABroaQcUt98MEHgww/vmL2kGVNq1evDvw/b948xeyJLQloYCspu3ydqlO41POOY3sxPwFKERTxnXfe8ScnntcZNMCQIV5RmLLcg2Ee5iPM/x3BpEN4siFcjuss9zNxkBgbE68II5Q4TNtss01gqdKcOXP02J5zzjlRVWdOcwENXN7BRfajzqBBlL6YwShLH9nly+adN378eD25ZdrDkW9i0uMorI9FPlPi6jTprqCBiz6aOrLIJO55Y3hGHesMGojO2r8Ho8bWn1aFzvrr49yvj0U+Z8P1lH3ddtCADyU+mHgBszf8pEmT9Iy+cft7+umnFVvO8JGOGxREGmXY2sgQhjppBCEyZLwU1q5da5L08fDDD9d5/QEQAxl8F1FG8X/8x3+oAQMGtPwwIgj0RFvXrVunuZx++um6LmaNiqAqQAMTMNIY+kntjpKPyc9sLbtahPkY4ABjLQ44uP/++7XcAJXSKKkNaWVt/q8aNOCBwiwDs1M8aAiGYwxam/am5SFAF2uM8fDhZUyciCxE0DGCt9FOtju98cYbFW0PEx/vuNPy4Wx+BAv1xx/xlyHWCEuH2HUj68wh/NJAA/QQ8MoPGJh2GOCADxw/sX0rYCWuZoCO5sfzB113MfCqBA3K1qki+S9ZskSxmw7Ly1gjHhVErkk6xTMQY3Pw4MHeDhzMxjNzbuLv+HUw6bwOoAHbRbJ8EIPZxPrAMMeFmWePn7Lcg7xjL7roImWWOZhZSGKRGKOMNOTJBMHdd9/trzJwbnM/H3XUUfo5hEEBYfyx9p6tof1ktl71gz+nnXaajm+UxyPJX4c5twUNsryDi+pHXUADG30xci1LH9mik/sZb9Wkd/mECRP0d8+xxx7rvVvYpnDIkCH6WUg7bfSxyGeKkU3c0cUAy6KPaTJxed7E9cGk1wU0EJ1dvxNV1vegGc+4Y5k6a6uPRT1n4/pYVnrbQQM6RgAVswygd+/e2sDgo9AQxgWzLkQmxgWGj4FbbrnF/K1n9fkgATRgq0NcDY0hSRqGp3/dMQYB/GzI8DEfI5RB4XAlDf8woAA/+KAwAAdGBW3gx0eNv1829YfzlAkaPPHEE3q7StNeZoXoUxJFycfk58W3dOlScxk48nKmrFle4v8T4IiAlLSDFy1gUhLAk9QGP9+s51WCBnjOANoQ/ZgdQfr166flgCdNEcS9hrGKkW/WWHHvsZWpC7G9IPch96tpI+OFF4kBzAy/O+64w7sHjG5FrfHlvuL+ZsnSZZddljsSehpogG4i17iPOJ4TbN9qiHsXsND0IXzE0HWhqkCDsnWqSP58LHHPm8B2yJhxXLx4cUC0TdEp0ylmrHfddVcdIwOgmecfgFkUCGfKRB3rABpgiLNzEWNHP9g958gjj1SAgWFyvQcpz/sA3jwneN4ccMABOuAg7xRD3Ku848kXtwOF7f0MuA0fnnUsYyL2Ce/hMAFUEPCQbxGe3Rh7PC9clpeEecZd24IGWd7BRfWjLqCBjb4YOZelj+gLOsQvCgSlfjOBZvL5j3iscl9BtvpY1DPFyCbu6GKAueqjjUxcnjdxfTDpdQENRGd3VHneg2Y8445l6qytPhb1nI3rY1nptQAN6Bzu+zzkkj6S8Bgwswt5BVI08p+3PbblywQNbNvQbfmqBA2uueYaBbJu6M0339QfqxiYPGTyEPcWhr5/7TRbnvJxQr0udPbZZ+vZRGKC4DqJXmLcwSscuA0gj8AvLDkxP7OsyNQJCIHnAzxY1lMEpYEGRdSRh0dVoEGZOkX/i+LPrAIu3sbI4uULuIVOhUGmpuoUwYGZjTegs6t+1QE0oM0Y5CtXrtRAQZw3mWvf/PmZBABI5tkcR4AIbI/IUsG8tGbNGrVs2TLFMY3oLwA8Boh/siGtnMv/tqCBC89w3rz9qAtoQL9s9CXcf5drG/4EK2Tiq4j7wUUf8z5T0uTgYoCl8cr6f1HPm7qABsjBRqeyysuWv+hsNgm76GPe52y2FmYvVRvQIHsXuqukgAbVj3eVoMG9997bAg5gMOH6HiaMCwz2OOKj3f+R+9prr7UsRcDAxyhziXzMhzBeCv6ZPdqAlwC8/IGs2O+amTdchHkBxRHLMCg7Y8aMuCzO6QIarBeZi07heh01I2yEj76FvYdc+Bs+UUdmlcLjjwcMetGnTx+viOiUJ4qWk7qABi0Na0MCM7oscXnjjTfaUHu5VVYBGuTtQZ1Ag7x9yVseI4LZ48mTJ+dlVbvydQANihJKnUCDovqUlY/obFbJNbucgAYdNr4CGlQ/YFWCBuHeYfQTzd9E6fb/j/sr7rlh4508rB1k7T3AQRKxteigQYOcZzajPHXMGq25c+d6VRIzAKOPH27nrMcMf8SbAD+f+cxndGBTPI5YF5aXBDSIlmCSTgEYAFAtXLiwpTCIOOAO8TCSKIl/Ujk8DaJAMGLa4FlgSHTKSKL1KKBBj0xYwugSY6SnZP3PBDSo/xj5W8j7cvbs2f6kxpwLaBCcKGnKwIrONmUki+2HgAbFyrN0bgIalC7ilgraBRqsWrVKr59l71u/x4BpIAYWAfgIGOgHDgxgEF4mYMpxZB3/lClTtDF/8803+//KfI6nATE9WGpgCA8DgiDuv//+HnjAenW/W7HxUGAdNEAHPAAZKBMGGAxfm6OABq1SStMpSqA3jIN/q1gDGKBvUYa9qcmGv8lrc4QfukBAREOiU0YSrUcBDVpl0sQUAQ2aOKqd2ScBDZoJGnSmNtq1ukk6a9fj4nIJaFCcLCvhJKBBJWIOVNIO0IAdE7bcckvP0N5hhx0iAwNiwBFojC1KMexsAAPighA/gEBixguAAHR5iJgkgAFJe0sTQd0EJ2PHAkMEfaQdBN1kZpB4ByeffLJOiwtiZsomHQU0CErHVqcoxRIAgAP0yRYwcOEfbFn8FUtd+vfvH7u0RXQqKDsBDYLyaOqVgAZNHdnO61eTDDBZntB5+pelxU3S2Sz9z1NGQIM80mtDWQENqhd6O0AD00uMNhNJnr2XowgvA5YpsJ0Thl6Sh4G/PMHWcDXHYKdcnqBdxx9/vN6+MC1YI6AA7u8suTC0ySab6Db4gyPSpy222ELvquL3ojBlbI4CGkRLyUanKGm2nUSvAG+SPAz8Ndny95eJOmeZCsEiw1u2hvOKTvVIRECDHlk0+UxAgyaPbmf1rUkGmIAGnaV7WVvbJJ3NKoOs5QQ0yCq5NpUj6BizsELVSQAXeT7GbWjq1KnaeLfJa5vngQce0EY1hnkc3XPPPToPAQqZGXYhs/Vi1p1J7rrrLr1VHNF+bYit5AAq8E6A8KLgOtzuMWPG6HRbECRcd91BA7wubKPkYzyjB0WRjU6x2wbbyzE29913n1PVNvyTGAIUsSxn2rRpSdm8/0Sn1ouC5SPLly/35JJ2csEFF+gdS9Lyyf/1kkAngAa8T/bdd19rwXHP86zxB9K1LiwZ2yaBJhlg7NjDskhbEp21lVS98jVJZ6uWrIAGVUs8Z33iaZBTgBmKt9PTgOZivBFEEMMoiubPn+8Fr8PjgGB1YQM8qpxJu/DCC/XHGoHoXOnxxx/XSw6iAiPG8SL44lZbbeX9bXZO8G8FyZ/HHXecbpfZgs8rYHlSd9Cgqi0Xo8SVplPoD3vSs4wEAADPEDwIbCmNfxIfvFWIc5G01CVcXnRqvUTE0yCsGc287gTQQHZPaKbuhXvVJANMPA3Co9vM6ybpbNUjJKBB1RLPWZ+ABjkFmKF4u0EDs7tA1GyvAQyMCzfIN8ABEeZtgQOM9t122y0gGbbeS1uuwHryoUOHqtWrVwfKzps3T+H5EEcYo8ccc4z3N8sumGFiyz0/MRNPUMSsEdAFNPBLM3iepFPozUEHHaQBAwJmQmapwoMPPhhkFHMVxd9Gp2A3fvx4xQy4n1gaQXociU6tl4yABnEa0qx0AQ2aNZ6d3JsmGWACGnSyJtq3vUk6a9/rYnIKaFCMHCvjIqBBZaL2KqoSNCAg4UUXXaTMUgEz68qa8rARz8wv8QEMYGAabIADDD8/cMA2hieddJKaM2eOMrEHMPz79u2rHnvsMVNczZo1S3s2sJbdGI3enx+f4MZHHASWNowbN8774R5NmzD0ad+Xv/xlddtttyn2/IXuuOMOHeDxzTff9FjSxm222UYNHjzY23kBrwe8K84880wvn+uJgAbrJeaiU+gOgBMeBuGxN8ABQJWfbPjb6BQ8J0yYoAGkY4891tMpthYdMmSI3kFBdMov+dZzAQ1aZdLEFAENmjiqndmnJhlgAhp0pg66trpJOuva97z5BTTIK8GKywtoULHAldLbAxLB3YbyxjQ45ZRTtNHEzgZ4DBxwwAEKnhhzYcKwWrp0aThZX5Of2XyWDxjC0GdbQ2b1d9ppJ73rwpFHHqmeeeYZk0Uf0THy8FuxYkXgPy4AAAYMGODlMXnN8dvf/rYus3DhQmWCHFLfl770Jd2mt956q4UnQe923XVXHRvh9NNP1+1jOQZu7llJQIP1knPRKfTpxBNPbAEMzBgAHJxwwgnmUh9t+KfpFIzwNDE6FD5usMEGCv0VnQqIvuWinaABIBNjyHKnMqhI/i+++KICjMJIiCKWSn3nO9/Ra/JZJoXehemDDz7QO76MGDFCjR49Wt14442JzyuA2rFjx6qZM2eGWTlfC2iQLrIi9SWqtjQdiioTl5bEi8mCm266Sb+v0bXLL79c4bUVpiVLlijevfvss48GWKPe3f4yReljkwywdoMGorOt35t+nX3ooYf0RJU/Lct5k3Q2S//zlBHQII/02lBWQIPqhV6lpwG9I6Dgo48+qsGKonuLwb9y5UoNFPi9EML1YNgPHDgw4KkQzmNzTX1PPfWUev7552MNUT+f3/3ud9rrwTZAoL9s+FxAgx6JlKlT1GLDX3SqZzzKOmsHaIBRgyFsgET/dqpF9LNI/iylwrDCiwlgKgyY0t7XXntN79oBeAYwwFKrXr16qZ/97Gded9577z3tGdW7d2/Vr18/D+wC6F23bp2Xz3/ywx/+UOe75JJL/MmZzgU0iBdbkfoSVYuNDkWVi0qz4XX22Wdr8P3JJ59Ua9euVcOHD9eGEzpoCG8vdNrstIRu8/5bvHixydJyLEofm2SAtQs0EJ1dP0mVpLPvvvuu2nbbbfUzFHnloSbpbB45ZCkroEEWqbWxjIAG1Qu/atCg+h4Ga8TQZ/Z48uTJwT867EpAg/oMmOhUNWPRDtCAsV22bJl65JFH9Add0aBBkfyfe+45bXixdCsONMAbgMCfAAaGSOvTp48uSxqGHEu9+C/7yL8AACAASURBVJAl3gbvZZ438Iza7eXpp5/Wy8D4X0ADI9XgEe845JN394Qi9SXYwvVXNjoUVS4qLY0X/wNYTZo0ySuOVwJyOvfcc3UaS/m23nprZQIG45GF5wt59ttvP6+c/6RIfWySAdYu0EB0Nl1nv/GNbyg8DtFrAQ38d3O15wIaVCvv3LUJaJBbhM4Mug00YCeE2bNnO8upbgUENKjPiIhOVTMW7QANTM9efvll/UGXBBoQOwUjO47wglqzZk3k3zb8IwtGJOJtwMdn2NPgt7/9rU4nhoyfbrnlFp3+gx/8QH+wEsslvGSMHT/gGTZ6WWJFUFdczPlfQAO/ZHvOiwINDMc0fcHFPzz+pixH9DRu+R//x+mQn4fteRyvo48+WutMeKnB9ttvr2MHoVssCZoxY0agKgMsAHSFqWh9FNCg9Z4Py9z2WnT2ExqcDcuLuFijRo1SX//61/X9IKBBWELVXQtoUJ2sC6lJQINCxOjEpNtAAyfh1DizgAY1HpwObVrddaruoAFxBHDhDxvcqANBLgmuCnAQRWkf1FFl4tLijLQ777xTf5ReeumlgaIEjMXgJ7ArFLXF7PTp03WeuXPnBsoSo+X73/++euGFF/T/AhoExONdVA0aABgQtDcqXgVL99hVCKM9juJ0KC5/UnocL2IB4WlgAhcbHmPGjNG6hHcPngZRQNzmm2+udt99d1PEOxatjwIaVAcadKPOEl/mc5/7nCJ4toAG3m3cthMBDdom+mwVC2iQTW55SrmCBoMGDVJsTWd+rOkXKl8CbPNnZM6RNZ4E7qsr/cM//IPig8uGyHvZZZcF+vf+++/bFJU8OSTQaTpVd9AA44YdVpg18gMHBjCIcu03w1cFaPC9731PG2MAAH5i5xlAgx133NGfHDjH04AtYv1rzXkO4ZVAnAMBDQLiarmoGjSgAegbQNWCBQu89hjAAD2NMsZNxjhD3/zvcoziRTsADAA2wnTyySdrfWQ3oihatWqV/v+8884L/F2GPgpoUB1owGB2k86ybGPfffdVP//5z7UeC2gQuJ3bciGgQVvEnr1SAQ2yyy5rSRfQ4Cc/+YnaeOONAz9m14TKl8Buu+0WkDvjQLTdupILaMCWlGG9wggRKlcCnaZTdQcNGC0MsUMPPVSNHDlSB1q1AQwoVwVowI4zgAO33nprQLEIzEr6RhttFEg3FwB4BKG74oorTJJeZsEMGQYcJKCBJ5rIk3aABjRk0aJFGjhAD20BA8pFGfqRHbNIjOLF+np0jgCjYTrnnHP0fwQzjCKWyLDjk3+nIpb9lKGPAhpUCxow3t2iszxPCUhrSEADI4n2HQU0aJ/sM9UsoEEmseUq5AIa5KpICneVBFxAg64SjHQ2swQ6ATSgcxiILFP4whe+oA22JA8DI4wqQAN2JcBQI/6An9555x2dDjAQRccff7w6+OCDA27khx9+uAJENiSggZFE9LFdoAGtwSON4JfoI/EskjwMTOujDH3zn+sxipcxxgGMw3TGGWdofQzHMiAf2xfzbvn1r38dKFaWPpp2sjV0p1O7AiEaubk845qus8uXL9dbb/s9KgU0MJrSvqOABu2TfaaaBTTIJLZchQQ0yCU+KRwjAQENYgQjyZkl0CmgAR1kK0MMdNz3meFNI5cP6jReUUYaZTDyadM111wTYMHWeKT/y7/8SyCdi7vuuksvW2DbUUP333+/3i3hwgsvVCx54MduC/Agoj3XfBRnJdlyMV1yLvpCcMA999xTj899992XzrwCTwMascUWW2gPs3CDjj32WN3WcKBGgJdhw4apadOmBYqUqY8CGlTvacDgNl1n99hjD8UuN+b5yZHlYTxDea6GA84GFD7lokk6m9LVwv8W0KBwkZbLUECDcuUbxV1AgyipSFpeCQhokFeCUj4sgU4BDebPn+8FocPjgKBzacCBixEYlkv4Og40wO2Xj9IzzzwzUIRZW9LPOuusQPrjjz+ud0YIB0YESGBPcf+PbfHgsemmm+r0uPXogQpiLgQ0iBGML9lWX9C7Aw88ULHrxwMPPKA9DliqkEZxOpRWLur/OF6s50Zn2NrTT8OHD9fp7ABhiGCJxNXwL5Ex/5Wpj00ywDrF06AbdJZ3mf/5yTnLw7gfOMcrKCs1SWezyiBrOQENskquTeUENKhe8AIaVC/zbqhRQINuGOVq+9gJoIEBDIz7tFmqgHt/EnCQZgRiQNluxRVnpNEWAuMRy8JPl19+uf5YNW3mP3ZUGDp0qMILwU/z5s3TXhT+NM7NGnXZPSEsmfXX7ViegL4xmwlg8OGHH+qGGLdvggYmUZwOUYYAbhgmthTHiy0+MZL83g8snejbt68COPDT+PHj1QUXXOBP0sssSI+iovSxSQZYJ4AG3ayzJuaM7XM+Su9Ja5LOxvWxrHQBDcqSbEl8BTQoSbAJbAU0SBCO/JVZAgIaZBadFIyRQDtBA1ygMXDCxoy/qczgEg3eb3zzvwEOMODigIMk/rNmzdK7pTD7ZIw/f73hc1xfaWu4HeS76qqr1AYbbKCWLFmiixEEkWB03/jGNzw2L730kgYXWFoxbtw470fEffpHDIQwFWWkwVc8DcLSbb1O0hdyo3MAVX7AwHAxwAEAVxzF6RAz/oMHD9Y7H9x9991xxQPpcbwAwrbaais1YsQIDxD78Y9/rHkDWhmaMGGC1meWLRh9JADzkCFDVHgHBVOmKH1skgHWbtBAdDZZZwU0MHdv+44CGrRP9plqFtAgk9hyFRLQIJf4pHCMBAQ0iBGMJGeWQLtAg0mTJumgVRjibHV6yimnqEcffbSlHxg14XXYJhNGHB+FuPyHKY0/70Xq5rdixYpwce/6iSeeUCeccIKXF4+CiRMnev9zgtH3/e9/X7Gc4LTTTtNeB8Qy+MMf/qDzMYsMiGDqCx+ZNY6ioow0eAtoECXhnrQ0fSEnekhk9jiQCeAAXQlTmg6hH7vssovWD4IqJlEaL8o+//zzGoRgCQVxMYhzcPPNN3tsb7jhhlhdBPwC4IqiovRRQINiYhqIzq5/fifprIAGUXdytWkCGlQr79y1CWiQW4TODAQ0cBaZFLCQgIAGFkKSLE4SaBdo4NTIkjKzvdzAgQNjPRVcq/3ggw/UY489pl599VXXoqXnF9CgdBHnqgAA7Morr9ReK7kY+Qpj/BM8E72sEwloUAxo0O4xFZ1t9wh0Rv0CGnTGOHmtFNDAE0VlJwIaVCbqrqpIQIOuGu5KOtutoAGzu3g3TJ48uRI5t7sSAQ3aPQLJ9ePtss8++6g33ngjOWMD/hXQoBmggehsA27GCrogoEEFQi6yCgENipSmHS8BDezkJLncJCCggZu8JHe6BLoVNGD3gtmzZ6cLqCE5BDSo90DecsstkXEt6t3qbK0T0KAZoIHobDb977ZSAhp02IgLaFD9gAloUL3Mu6FGAQ26YZSr7WO3ggbVSrn9tQlo0P4xkBasl4CABs0ADbpJn5uks1WPm4AGVUs8Z30CGuQUYIbiAhpkEJoUSZWAgAapIpIMjhLIAhoQeIpdC/y/4447zrFmyV6WBO68887A2DBO22+/veL5UWciFgTttCXWVBNU8vOf/3xLf3/1q1/ZspF8JUvgkEMOCYwPQUIZt6lTp5Zcc/nss+6eIDpb/tjkqaHJOptHLlnKCmiQRWptLCOgQfXCF9Cgepl3Q40CGnTDKFfbR1fQ4LrrrlP//M//3PL72te+Vm3DpbZYCdx2220t48OY8SFcZ3IFDf76179G9pO+zp07t85d7aq2felLX4ocpzlz5nS8HFxBA9HZzhjyJuts1SMgoEHVEs9Zn4AGOQWYobiABhmEJkVSJSCgQaqIJIOjBFxBA0f2kl0kYC0BV9DAmrFkFAmUJAFX0KCkZghbkUBtJSCgQW2HJrphAhpEy6XMVAENypRu9/IW0KB7x76sngtoUJZkha+rBAQ0cJWY5G+3BAQ0aPcISP11l0Au0ODyyy9Xhx56qPwqlMHw4cPVF7/4RZF5hTIfOXKk2nXXXUXmFcq8G54ru+yyixo1apTolehVYTqwxx57qAMPPLAwft1wH0ofy/mG+8pXvqKGDRsmuijPt47RgYMPPlh0VvS11vq6fPnytuIKuUCDJ598Us2bN09+FcrgsssuU4cffrjIvEKZ/9//+3/V0KFDReYVyrwbniuDBg1Sd999t+iV6FVhOsDazenTpxfGrxvuQ+ljOd9wt956q9ptt91EF+X51jE6cPPNN6s999yzY9orz65ynl11lutbb73VuaBBW1vepZXL8oTqB16WJ1Qv826oUZYndMMoV9tHWZ5QrbyltngJyPKEeNnIP/WUgCxPqOe4SKvqI4Fcngb16Ub3tERAg+rHWkCD6mXeDTUKaNANo1xtHwU0qFbeUlu8BAQ0iJeN/FNPCQhoUM9xkVbVRwICGtRnLKxaIqCBlZgKzSSgQaHiFGYfS0BAA1GFoiUgoEHREhV+WSUgoEFWyUm5dklAQIN2SV7q7RQJCGjQKSP1cTsFNKh+wAQ0qF7m3VCjgAbdMMrV9tEVNJg4caLadNNNW34EfhWqhwSmTJnSMj6M2TbbbFOPBsa0ogjQ4H/+538i+07/77jjjpiaJblKCXSqfkbJqAjQQJ6pUZKtV1qTdLZqyQpoULXEc9YnoEFOAWYoLqBBBqFJkVQJCGiQKiLJ4CgBV9DgggsuUL169VJnn3124HfppZc61izZy5LAokWLAmPDWLErAc+POlNRoMEnPvEJte+++7bI4De/+U2du981betU/YwaoCJAA3mmRkm2XmlN0tmqJSugQdUSz1mfgAY5BZihuIAGGYQmRVIlIKBBqogkg6MEsoAGf//3f+9YS3dk/9vf/lbbjv7bv/1bV4EGV199dW3Hol0NE/0sXvJFgQbyTI0eG9HZaLl0UqqABp00WkopAQ2qHzABDaqXeTfUKKBBN4xytX2sG2jw4YcfqhtuuEFdeOGFpQjixRdfVN/61rcUH/t56Je//KU655xzvN8ZZ5yhxo8f38Iyrb4lS5aob3/722qfffZR5513nlqxYkULjyISBDQoQopKla2fRfG31c+0+j744AOF+/yIESPU6NGj1Y033qj+/Oc/FyNMH5dO0E9fc73TTgAN0sbY60zGk6L4F6Wz8kzNOJAlFRPQoCTBlsVWQIOyJBvPV0CDeNnIP9klIKBBdtlJyWgJ1AU0+N///V81c+ZMNWDAAIV7+RFHHBHd4Iypq1ev1sb53/3d32n+zzzzTEZOStHWwYMHaz601fx+9atfeTxt6rvuuusU7fnHf/xHjwczjosXL/b4FHXSCUZZkcsTivY0KFs/i+Rvo5829b333ntaz3v37q369evn6eghhxyi1q1bV5Rqaj6doJ9RHa4zaGAzxlF9sk0rkn9ROivPVNvRqy6fgAbVybqQmgQ0KESMTkwENHASl2S2lICABpaCkmzWEqgLaPDRRx+pZcuWqUceeUQbJ0WDBs8995xau3atOuiggzT/PKDB3Llz1R577KFefvll7/f73/8+IPO0+v7whz+orbfeWj388MO63EsvvaRncgEg9ttvvwCvIi46wSirM2hQtn4Wyd9GP23qIxbGSSedpN59913117/+VXutAmqho36ArFv0M6qfdQYNbMY4qk+2aUXyL0Jn5ZlqO3LV5hPQoFp5565NQIPcInRmIKCBs8ikgIUEBDSwEJJkcZJAXUAD02gMcYySONDgv//7v1WSwY9xs3TpUsOu5chSAPgn8WgpFEogyN7YsWPV8uXLVdqa27j6WIIxY8aMAGeWMtC2Pn36BNKLuBDQoAgpKg0SJekntTz22GPayI6rceXKlWrNmjWRf6fpf2ShUKKLfsbVx8zvF7/4RcVuFH765je/qXW0aE+OTtBPvxzMeZ1BA9PGuDE2/3Nsgs7KM9U/ovU5F9CgPmNh1RIBDazEVGgmAQ0KFacw+1gCAhqIKhQtgU4DDTD2P/3pT6uFCxe2iOIvf/mL+spXvqKOPvrolv9MQpwRb/5PO/JxjdFofv3791ezZs2KLRZXH7NiABxh2nzzzdXuu+8eTs593QlGWZ09DcwA2BhgxMzAhT9scMPjF7/4hdpss80UwEEU2fCPKmfSXPUzqb6w9wx1TJ8+Xes+M8NFUifoZ1R/mwIaNEFn5ZkapaHtTxPQoP1j4NQCAQ2cxFVIZgENChGjMAlJQECDkEDkMrcEOg00oMO4RmN4LViwwOu/AQwOO+ywSGPcZIwz4s3/acdXXnlFTZ06VR1//PFqiy228MCDuMCNLvWtWrVK8yMgYtHUCUZZU0ADwCD0cNSoUQHgwAAGSa79SUa8jU646qdrfXgabLjhhop4B0VSJ+hnVH+bAho0VWe7/ZkapbNVpwloULXEc9YnoEFOAWYoLqBBBqFJkVQJCGiQKiLJ4CiBTgQN6CL7ZgMcYIjZAgaUczHi00RJvVdeeaUOZkhAw6eeeqqliEt9uHzjufDWW2+18Mmb0AlGWVNAg//f3pmATVEcfTzGI4rGI4r3hSiConglqKggisH71kgUxPuWoMZbENHgfd/6IV7AJxgEISoaRcEbBRXFz2C8HjWKGvFIFJP+nl9rLb2zM7MzuzOzM7tVz/O+s9vTZ3XtTNe/q6qZK5SwXXfd1fTu3dvKZxTAgHJxlfgwuYgin3Ha++qrr2zQzgsuuCCs2ZruFUE+/QbWLKABY2tGmW31Z6qfzGadpqBB1hyvsz0FDepkYA3FFTSogWlapCoHFDSoyiLNEJMDRQUNGCZHdC277LJmiy22MLvvvnuohYGwJY4SL2WqXQcPHmwtBK666qqKrFHbe/311w2/7yeeeKKijiQSiqCUNRNowJzhnoCbAvIJwBVmYSBzHEeJlzLVrmHyGac9rGt22mmnqnE8qvXH734R5NOv380EGjC+ZpJZfab6SWz2aQoaZM/zulpU0KAu9tVUOA5ocPXVV5slllii7I+Xs1L6HOjSpUsZ35kHiWaefuvxW4gDGqy44oplY2vTpo0hQrtSuhwomkwVGTTgvPjNN9/cKuzjxo2LNLFRlfhIlf2UCcsAYhyceuqpFcWitMdCHbnhXZAWFUEpazbQgLkcM2aMlQ2CCrLzX43iKPHV6pL7YfIZtb1Ro0aZDh06mE8//VSqTfRaBPn0G3CzgQaMsRlkVp+pftLamDQFDRrD95pbVdCgZtbVXDAOaIB/LC9j/HPl7+WXX665bS0YnQMc7yY854qJMbuXeaU4oAF5hwwZUjY+zEuV0uVA0WSqqKABCtiOO+5oT1l48MEHrcUBJuDVKIoSX60O733MehdaaCFz4403em9VdYfg9AX8xNMw+XY7UwSlrNlAg4kTJ5aCdmJxQJDOasBBVCXendtqn8PkM0p7zz77rNloo42MX2DEam1HvV8E+fQbS7OBBs0gs/pM9ZPUxqUpaNA43tfUsoIGNbGtrkJxQQPMF1uZqh1blhVvOIO6mUADlKlWJY4M46/RlHeZKiJogOLVq1cvCxh8//33dorFVWHSpEmhUx4GGnDu+Jdffhla3u/m1KlTbXA4zGG9FNYeeY888khzxhlnlBVDySM9SSqCUtZMoIEoX+JuImbfmPeHAQfVlHiOHI37XAuTz2rtvfLKK6Zz585mzpw5ZeI4YcIEuyNdlljHlyLIp9/wmgk0aBaZ1Weqn6Q2Lk1Bg8bxvqaWFTSoiW11FcoaNMBMl52qnj172t2Miy++2Mhiuq6B/FSYY5w4xmzLLbe0i1nOJ6+VWNwPHDiw9HfiiSf6LpDpP+fuBkUl//rrr82gQYPsmPfaay9zyy23GPhQD+VdwYtraVAPaJC2TCVZP8re6aefXpIp5GuHHXYws2bNKhMHlakydtgveQMNxo8fb825e/ToUdnZn3xuUbz23nvvimecAAcsfoNos802s/WLMif5AC47duxoFl54YXPfffdJcsV1v/32M8cee6xBWYBQ4rp27WrOO++8irwkBLXHvVNOOcX25ZBDDjF9+/a1fxx91qlTJ5P0CQpFUMqKABpUk0/mFYsXjgX1ypgABwBeQcBBWP0c7Yk1HJsMQe/3uPIZ1h7ubMRiwLVC5JMrJ0Mwvs8++8xX5mtJLIJ8+o2rCKBB2BzLmJpFZvWZKjOan6uCBvmZi0g9UdAgEpsSzZQlaPDNN9/YhekGG2xgDjzwQLPMMsvYhehhhx2WyJjuueceG6ALxZzFA767+Me/8cYbsetnh4SFuZxxLlc3QBR5brvtNrP22mvbfCgHXuK4J+pZdNFFS+OlLkxA58+f780e+buCBj+yKm2ZSrr+e++9t0Kmttlmm9K8q0yVWFHxIU+gwdChQ836669v5xLl6JhjjjHskro0ZcoUw7MtSGkCOOjfv79bxH5+/vnnbbo8czbZZBMLOkpGgCdMsLlPUMUgQuEjD88e3COIqcA71kvV2gMQlb54r7g6JB1/pAhKWd5BgyjyiRwAAiGnfgRw0KdPH4PJv5eq1Y+ciaxMnz7dW9x+jyqfZA5rj9+DvIOlTfeKBU2SVAT59Btv3kGDsDl2x9MMMqvPVHdG8/NZQYP8zEWknihoEIlNiWbKEjS49NJL7Y6VDOCjjz6yC1p2pes1+2c3GOWcs5+FsAxg8UC7cemBBx6wAAcmkfLn9ZNksTJt2jSDbzjt+IEGAwYMMIcffrj5/PPPbcR0ZByFn/wuABG3fwoa/MixNGWKFpKuf9NNNzUjRowoyRSyBTAhpDIlnKi85gk0qOxdtikodByheNFFF4U2/Mknn9hnFNeiUBGUsryDBnmYa4Iatm/fPtBSgT6qfGY3U3kHDbLjRHBLKrPBvGmFOwoaFGyWFTTIfsKyBA3uv//+CnCAXVbMB72EmwH+skE0Y8YMu+CQ+++9957xuiKglKOcX3PNNZIt8rVbt27WGoI6qwEaQb6W7Bpj8cAC3yWCidEvzuWtlRQ0+JFzcWQK8+yZM2cGshx58+66xak/sOKfbkyePNmeEoFJOYuTMFKZquSOggYLeMLu7dZbb20+/PDDBYlN8klBg+JPJOAn1jfDhg0r/mA8IyiCfHq6bL8qaODHlQVpKrMLeNGqnxQ0KNjMK2iQ/YRlCRp4R8cuA2eX+0Xyxl8WE36vwk0d+LThvwhwEEZnnXWWWW+99cy8efPCslXcA7BAqZe/VVZZxeCjGURBCh75vdYJpAFiUDfWDLWSggb+nAuTKQADAKqHH364ojB+u0QMJx5GGIXVH1aOe/i3i0xh0o5Pb5DSpzJVyU0FDRbwZPjw4Yn6aS+oufGfiqCUqaVBuJzw3hs9enR4poLeLYJ8+rFWQQM/rixIU5ldwItW/aSgQcFmXkGD7CesUaDB7NmzrY8tZ36jiHmJXV+CGO28885lwIEABmGm/fgQX3bZZVZBu/32271VV/2OiwPHSx566KGmbdu2JUUvKNBhmILn1xiWBosssogh3kGtpKBBJeeqyRQlkBsAJ46tFBLAAHkLs26JUr/U6XfFwoAgiNttt11JplZYYQXDb9BLKlNejhijoEElT5oxpQhKmYIGzSh50cZUBPn0G4mCBn5caY20osps1rOjoEHWHK+zvXHjxtloz3VWo8VjcICdzu7du0cqgSKdxJGLnJiw4oorlhSndu3aGU4Y8BIK3K677mp69+5t/SKjAAbvvPOOPTlhscUWK9V/ww03eKuO/B2FEt9hdob5e+mllyrKxlHwvvrqK4OiWO9Z53kHDYjSHtXCg5gW9ZyewIRElSny4iYAcIA8RQUM4tRfISA+CRwPJsHs/GJhqExVMm3fffc1BO2LShwPyO9EqVgcKMICl/cMp57UQ1jRYXlUj5taPe1r2do4UAT59BsZAUuxdquH9JlaD/caV7aoMps1xxQ0yJrjdbanlgZ1MrCG4o2yNKCrKG0o0CycrrzySt/es7DCTQGwAkUvzMLArQCFFVNz6qYc8QXqocGDB9u6rrrqqopq4ih4WC/w4q4WJ6GiEU9C3kGDLI9cdFkTRabIL0feIVdEoA+zMKilfrdM0GeOAcNdAhcdL6lMeTmilgaVHGnOlCIscNXSoDllL8qoiiCffuNQSwM/rrRGWlFlNuvZUdAga47X2Z6CBnUysIbijQQN6C47zCj2KNNBNGbMGJuHoILsDMchOXqRnaF6iMB19PPUU0+tqCaqgjdq1CjToUMH8+mnn1bUETdBQYNgjkWRKU7b4Ag65hQLpzgUpf6o9R177LG2D1iguKQy5XLjx8/qnlDJk2ZMKcICV0GDZpS8aGMqgnz6jURBAz+utEZaUWU269lR0CBrjtfZnoIGdTKwhuKNBg1Q3jD7R3nyo4kTJ5aC12FxQLC6OMABcQhQDD/++GO/6iOnsRPNmeR+QRujKHicdY05ul9gxMidcDIqaOAww/OxmkwhP5xbj1sAAAA7/VgoRKVq9Ueth3wE61xppZUqiqhMVbBEYxpUsqQpU4qwwFXQoClFL9KgiiCffgNR0MCPK62RVlSZzXp2FDSIyHFMt+s1347YVGg2BQ1C2ZPKzUaDBs8880zgbq8ABk888YQdu7gqYN4fFTgAZNhkk03KeMfRe3HlferUqTZ44euvv15WF1+qKXj4r3fu3NnMmTOnrOyECRMMVhS1kIIGwVwLkynkplevXhYwIGAmJK4KkyZNCq7UueNXfy0yRZWAF3369HFq//GjylQFSxQ0qGRJzSn1ukfV3HCEgkVY4CpoEGEi68ii8lkH8wKKKmgQwJiEklVmE2JkA6tR0MCH+ZxFSgTvgQMHlv4I6DNr1iyf3NkmNRo0IGCeyxf38+OPP143M9Kuv5YOZgkaMP6zzz7biKsAD1lOEsCn3KvEs/OLv7cABjI2AQ5Q/Fzg4IMPPjCHH364GTt2bCleAMr6EkssYThCUYijE7FswJddlEa5J1eOwsPygZcshEJIYL/zzjtPspRdx48fb4GP3G20BQAAIABJREFUHj16lKXzheBDxFTATaJv376lPyL1Mz782muhtEADAlIOGjTI9OzZ0+y1117mlltuMeysx6WsYhrEkSlkB8AJCwPv3AtwAFDlUpT6o8gU8sxzdsSIEYZnMHTvvffagKAfffSR26T93EwyhfwQ+BOZAsQjqKSX/xUM8EnIk3sCzxRipmy55ZbmyCOPNM8995xPj2tLSopf0jqy7b7LTjzxRNtnuS/XN954w3DUrTz3JF2uvAMPPvhgs/XWW5vTTjvNTJ8+XW4lek0bNEhi7vIOGiQxxrBJTbL+qPLJM+Pmm282QacYJfXuChs399KWz6R//zKevIMGScqUjNm9Jll/UjLbLM/UtGTWnb8sPito4MNlFqqYa7t/22yzjU/O7JMaCRpw7J8bcd/lD59ZxNdDaddfa9+yBA2OOeYYK3fwGVcDTm3gRAaUOS8dcsghZsqUKd5k+5387M5i8i+Ecr700kvb+tdff3176gLR1mfOnClZ7BUZk7kNWvQCSJBn0UUXtTvB+L5Tzo+GDh1qaI/8gBGMEasECOVw7bXXLrUn7cqVBXitlAZowBGQHTt2tONeZpllSv1mrubPnx+rq1mBBnFkCnk67LDDAhVWFgL9+/cvG2eU+qPI1MMPP2yWWmopy1PkZdttt7UyTKwMLzWTTH3zzTdms802MxtssIE58MADjcgV8xCX8gIa3HPPPQb5BlSTmClt2rQxKN31UpL8oi+Asfym5ZkjVzegLBZQPIt4fnHf+8ykHsAz7kvgWvLxDPrrX/9a75AryqeplCU1d3kGDZIaY8XE/JSQZP1R5JM8t912W+ld6nfaTJLvrqBxS3qa8pn071/6zDXPoEGSMuWOWT4nWX9SMtssz9Q0ZVbmL6urggY+nN50003tbhfmr/LHpOeBGgkaXHLJJYYdZs5iB7GWP45DYoHop9jG4Vna9cfpi5s3S9CAdgkCiFJNu0kTSvqMGTPsote1QvC2g6LWvn37MksFbx5AnmnTphmueaQ0QIMBAwZYa43PP//cnibA75F2UBBcJSMKP7ICDehLmjIVtf4oMoV8cmTna6+9FghcROFtWnnSkKlLL73UnHLKKaUuY1UBGId8xDXnzANowI4KSvjbb79dGhM79/xGGGu9lCS/6MsDDzxgQRt513P1xlV59dVXzdy5c63bjh9oQDyYlVde2Tz55JN2eAC0ACbkTWPDIS2lLMm5yytokOQY/WQ56fqjyCfPTd7FTz31lJU5P9AgyXeX37jdtLTkkzaS/v27/c4raJC0TLlj5nPS9Schs83yTE1bZr1zmfZ3BQ08HOZ8csy177vvPuO3w+XJnvnXRoIGWGDwcPFSt27drAm9Nx1Tp7Bj2lBeXYUzbv3e9tL6njVokNY4otbLAoTd42HDhkUtkst81RQ8XCr8dgxlMMiua8kBes6uqRccw30E5SDuWeJZggYypkZdVaZ+5LxXpki9//77K8ABFE1cc+JSHkCD9957r8IVAUCN38g111xTNqS4v8Gk+UV9vL+w8MB9ohpIg7WBH2iASfh1111XNjasKsi7+OKLl6Un8SWqUhb3HRxn7qqNI6+gQdwxNpKH8DiOfAJ4IXNe0CDpd1e1uY8qn3n4/btjySto0Ioym9dnat5k1pXfLD7nAjTAD4uz3XfddVeL5OMXjSmVEIv0yy67zD4Ie/fubc4555yyXQwmEdMakP0PP/zQ+oMSPOuiiy6yvtag/kcddVTpb+TIkbZqYhRIOqaxEP68PHT5w9SQnXXqjEL47Up9XAkGdvLJJ9u0o48+2vj55Uap183TSNDA7Yd8xk+eiPmALF7C9xOzba+SRT78l/FjBzgIo7D6w8olea/VQAN22UaPHp0kCxtSVzXQAMAAxUx++24nscLAtxyfbJe8O5DcQxHieQG6HodaCTRQmTLWasdPprwyA5DKaRV+p5B483q/5wE08PaJ75yAsd5665l58+aV3a7lN1hWgTEWeK6VXyiE8r7nusoqqxje40EUBBqwK+YHkC+//PIGy8WkKapSlsQ7OGjuqo0pr6CBX7/DxthIHsaVzyDQgDEn+e7y46GbFlU+G/37d/vM57yCBt5+8r3ZZTavz9S8yayfbKSZ1nDQQHw9eBmjVLPw5uW9884723EDHhBVHeUTE1vQe75jCigKJ+ZKLP4pRxR4fG4JqMX34447ztZzxx132O9rrLFGGT8x2QKsYCcMQvklCOJ2221n81MHPopRTMVBc4cMGWLLyUJh8ODBZsMNNzTvvvtuWbu1fskbaHD11VdbywxcFbzEIopgdsylCxwIYBDFnDusfm97aX1vNdAgLT5mXW810ID+IIOAVw899FCpewIYILt+ikAp408fsDRYZJFFyoBObx6/760EGviNv4hpacsUrl/EB+nSpUuZFVZUXuUNNGBDAMCf9+jtt9/uO4x6foP18gsXCmLGHHrooaZt27ald35QILkg0MBvYPSNcRMQMWmKqpTV8w6OMndh4yoCaBBljI3kYVz5DAMN/Oaq1neXX11uWlT5pEwjf/9un/lcBNCglWU2D8/UvMmsV4bT/t5w0ABfR4K+ffXVV6WxovgDCqCEn3TSSfbF6wZ044fN7va6665bKoN5IS9olGoIEICgb+3atSvlIdgUefCXFWKBJkHZJE2uRJbn3HjKeM29JI/fVQCLK664wkb+9juCzq9clLS8gQaY0YbxhhcuoAwWIihjcQAD+FGt/ig8qzePggb1crAx5aMoePQMlySAA2QzLmDAcwtQkcj3cUlBg7gca3z+NGWKExNWXHFF+77hncO7yw+MDeNCnkADToDh5AQ3eC6Brfyolt9gEvxy+8Jv/8ILL7QWhlgZElvDS3FAA9yVsFxIw80xjlJWyzs4ztx5eSTf8w4axBljo3govOQaRT7jgAb1vLvcfvl9jiOflM/D759+5B00aHWZzcszNU8y6/f7SzOt4aDBSiutZF0C3EGyKy2BB7EMYEHv9TXEz4uFFS8miEjTfHePRWTBQppYEdx55532O0AEhJkJVgthxHFvWDFg/hiVQIeXXHJJ2xbB/ZKkPIEGKNOAN3fffXfoEJlPLEU4wo+5jGJhQIVR6w9tPIGbChokwMQGVBFVwaNrnArAbxwZ5XhLFolRiB1KXJq8z6coZRU0iMKlfOXJQqYAryQC/5VXXhmLAXkCDaTjuCTg5sO7mOc/mwF+VOtvsB5++fUD60D6isukl6KCBmwU8Pv2Hofrra/W73GVslrfwVHnzm8ceQcNpM9Rx9gIHkof3WuYfMYBDep5d7n98fscVz6pIw+//7yDBsLrVpTZvD1T8yKzIhNZXRsKGmCyz8uZ8979iKB73GcB5SXOm+eeWBb4gQaclUweAQ146GOCyMIF1JZ4A5i/VyP6Rz2uNUS1Mjw0KcODOUnKE2iALze7SG78iaCxjhkzxvKDQHLwPgrFqT9KfbXmUdCgVs41tlwcBY9nDVZH/GbHjRsXqeOjRo0yHTp0sG5TkQp4Milo4GFIAb6mLVPCggcffLCm90dc0AAwd+GFF5ZmU73K0YvslvlRLb9BqadWfkl594plAM+BU0891U22n6OABqwzcC+JsraoaCBiAtaMnLARh2p5B0v91eZO8rnXJEAD1lxsTGBJmjZFGWPWPPQbc5h8RgUN6n13+fXLTatFPvPw+08CNMjTM5U5aQaZzeszNQ8y6/7usvjcUNAAawKUTiwCvISQoOyvueaa9gX+5ZdflmXp27evTRe3hSigARWcccYZthxn2mLFwNFp1YiAI1hERCUCeKy++uq2fhYfrr901DqC8uUJNOAcdR6Q1WjixImlgHPkJxhYFOAgav3V2q/3voIG9XKwMeWjKnjIIoFTcbNB+cDigN3LMOK5g+uSX3CpsHLuPQUNXG4U43OaMuVygMUIJvJBgLqb1/0cFzTgfciYsiDiBPA+5P3opVp+g24dtfLLrUM+Y2WEouoXiLIaaIDFEX7itbgrSftRrnF3cmt9B0tfwuZO8nivSYAGrAORmbgn03j7EuV7tTE2god+/Q6TzyigQRLvLr9+uWlx5TMvv/8kQIO8PFOZj2aQ2bw+U/Mis+7vLovPDQUNGGCPHj3sS8Hd3eOhiA88P2B26nlpEMjQpXXWWcdaDIgbQ1TQgF0OdlZYKAE8RCEUij59+kTJavMQQI2TGzgzl8UHwEccK4WwhvICGqBIs6gNCm4lY5CHlphpsggAOMCkmx9dEEWtP6h8kukKGiTJzezqiqLgIYO9evWygAEBhiAxk5w0aZJvZ4l1glvTnDlzyu5PmDDBovpliSFfFDQIYU5Ob6UlU97hcvIO7z33vejN4/c9z6ABYDHxirxUy2/QW4cfv9h08G42eMv5fSfGEYFN/WIRVQMNjjzySLsx4dbLeob0JCmOUlbrO9jtb9DcuXm8n4sGGoSNMS0ecvJXkLuOl5/yPUw+q4EGSb27pC9B1zjymdbvP6hvYelFAw1aQWbz+EzNk8yGyXMa9xoOGnAWJ4sjXtKcDT906FDrVyymgS+//LLh2CIW6fjxQKRR5qabbirxBEWdtBdeeKGUJlYKc+fOLaXxYc8997R5vQEQ2V3ErGrEiBEll4Z7773XBqdyj0t88803DeZd3j/6R6An+jp//nzb5gknnGDb6tevX1kfav2SF9Dg2muvteCLl7fuuOAn8SAEMJB7AhygrPHj86Mo9fuVSyNNQYN4XK3Fvz9eC9FyV1PwkEPAKywMBDCQmgU4YLHoEse34t6EKSugo/zx/EHWiYESlRQ0iMopYxfWcRfX0WuPnjMNmeKdcfbZZxsx25edFWJrxB1zHkADjsnFfXDs2LGlWB8oK0sssYThCDmXavkNRuEXPOzYsaN9R/kdByx94EhlrDlQFiCUuK5duxqOffYjCabsfaeR95RTTrHv+kMOOaT0XOC4vk6dOiV+gkJUpSzuOzjO3Pnxx03LK2gQd4xp8ZCjPdl4IY6O9/0jfIwrn+PHj7cyyGacl5J8d3nr9n6PKp9p/f69/Yn6Pa+gQavKbB6fqXmT2aiynVS+hoMGDOSee+4xbdq0sQ87/PQ48lDiEHCf4IaYArdv396a/rEYGD58eIkH7OqzIAE04KhDzK+wDOA7fzxAOa5RCIWA+rzEee1LLbWULbP++usbzOOpxxv9mB3IAw44oOIPoAPwg0WHABziRkE/WAS64/K2H+V7XkADjqQEYAkjFk9TpkzxzcIPD96Ke4k3U5T6vWXS+p41aICpLeatPXv2tK4cRAkPWlTUMmYW7gQmwy0IFPe5556rpRpbht/SwIEDS3+chuK3q0b/AQiDjjIjSvygQYPsmPfaay9zyy23GPhQD1VT8JBNLJSCeMvYOL5ViN/u2muvXXquyPNFruxCxqEsQYO0ZSrJ+uEz7wBXrnjWuEFu4XMzyBTjACxHhnDVwwqre/fu9hhAnpFxKQ+gAcoJJxcxJt6jnJ6z77772sDD3vHE/Q1G5RcyJCcf8d4NIoBr+sm6A4tC4prwjvXS888/b58F8lvHYoLnlZBsfsh994q1ITxJkqIqZXHfwXHmrtp48goaxB1jWjxEzkROpk+f7svOqPJJYTbc+L1RJ2AEzxXZGEv63eXbWScxqnym9ft3uhLrY15Bg1aU2bw+U/Mms7EEPIHMuQANGAfm+5gDhikK7GrLbky9Yw/yRebhylFLHMsYpEzU23Y95fMCGrz33ns1nSMedexp1x+1H+TLEjTA3YbdrA022MAGf1pmmWXsIgDlNgkCoENZRTGXwE8Adm+88Ubs6tkFBcCThY9c3dMxyEP8EFG2/Y7nJJAm9bBwl/FSFwqUWOzE7pwx1gUJxT+vlBVokLZMJV0/1l0iS3Ll6FWhZpQpQG0W+Dxr6qE8gAb0n/fojBkzLFAQZE1Wzzij8AvQhSMU2VQIo08++cRMmzYt1fdZWPu13IuqlNVSd1Jzl1fQAJ4kNcYg/katnw0pNsPCfiMqn5VcjvL7ryxVPSWvoAE9jypT1UfpnyNq/Sqz/vyrlpqWzFZrN+n7uQENkh5Ys9aXF9CgWfnrN64sQYNLL73UmrlKP3CLQZlGwazX7B9ADuWcI0GFsAxAMaPduPTAAw9YgAM/SvnzgnG8iFiQE9+DdvxAgwEDBlhzZoKS4v+LjGMlQH4XgIjbv2qWBnHrSzp/VqBBmjIFT5KuH2sxXMREprhK7BraU5kKlsS8gAbBPczuDru3nKD04YcfZtdoRi2lCRokNYQ8gwZJjbGeeniOYQ0wbNiweqrJZdkiyKcf4/IMGvj1N+s0ldmsOZ6/9hQ0yN+chPZIQYNQ9qRyM0vQ4P77768AB9hlxV/eS7gZoGQHETt97FIIYb3hdUVAKUc553jLuNStWzdrDUGd1QANFD8/0IBdYywevKbYRCAnfz1RsxU0+HFG48gUPt0zZ84MFAXkDfM8l+LU75bz+zx58mTraoYfutctzJtfZcrLEWMUNFjAE1wY48QYWVAy/5+KoJQpaBAuRwDso0ePDs9U0LtFkE8/1ipo4MeVBWkqswt40aqfFDQo2MwraJD9hGUJGnhHh9LPEYB+x38RZAsTfq/CTR0EbyJgH8BBGHGc6HrrrVeKwRGW170HYIFSL3+rrLKKIbBTEAUpeOT3WieQBohB3Vgz1EoKGvhzLkymAAwAqIjv4iVMaInWTDyMMAqrP6wc9whMKTKFXy6BwIJ2ilWmKrmpoEElT5oxpQhKmYIGzSh50cZUBPn0G4mCBn5caY20osps1rOjoEHWHK+zPQUN6mRgDcUbBRrMnj3bBubq0qVLmcWADIFdX6L277zzzmXAgQAGYab9xOu47LLLrIJW7dhMac+94uJw+eWX2yNR27ZtW1L0ggIdhil4br3yGUsDgooS76BWUtCgknPVZIoSyA2A00MPPVSqQAAD5C3MuiVK/aVKfT5gYUAQRAKhCniwwgor+Pr6q0xVMlBBg0qeNGNKERa4Cho0o+RFG1MR5NNvJAoa+HGlNdKKKrNZz46CBllzvM72FDSok4E1FG8EaMCJCSuuuGJJcWrXrp3hhAEvocARnbx37942mFIUwIBgopycQLR2Ucw4xqxWQqEk4Bg7w/wRSNRLcRQ8gqKiKHKCRD2koEE596LKFKVwEwA4QJ6iAgZx6i/vmf83jumTCPh+sTBUpir5pqBBJU+aMaUIC1wFDZpR8qKNqQjy6TcSBQ38uNIaaUWV2axnR0GDrDleZ3sKGtTJwBqKNwI0kG6itKFAo9xfeeWVklx2xT0BNwXOe0bRC7MwcAtyLCim5tRNOeIL1EODBw+2dV111VUV1cRR8A499FBrpl4tTkJFI54EBQ08DPnpaxSZIisnT+Aag1xxbF2YhYHbUtT63TJBn/FJx12CfnhJZcrLEY1pUMmR5kwpwgJXQYPmlL0ooyqCfPqNQ0EDP660RlpRZTbr2VHQIGuO19kePt4nn3xynbVo8TgcwKcaF4AohMk+SlaS9OCDD1plHGU6iMaMGWPzEFSQneE4JEcv1nucKYHrACBOPfXUiuajKnijRo0yHTp0MBxPUy/lHTTo2bNn5FgSnLSAHCRFUWSK0zY4t545HTduXKymo9QftcJjjz3W9gELFJdUplxu/PiZOCfPP/985Y2AlDPOOMOeVBJwW5NzyoEiLHB5n+DOVA8BiPP8qScgbj3ta9naOFAE+fQbGe+UPffc0+9W5DR9pkZmVa4yFlVms2aiggZZc7zO9tTSoE4G1lC8kZYGdBflDbN/lCc/mjhxYil4HRYHBKuLAxwQh4CF2ccff+xXfeQ0dqIXWmgh36CNURS8Z5991pqj+wVGjNwJJ2PeQYOsjlx0WFL6WE2mkJ8dd9zRHpEJAMBOPxYEUala/VHrIR/BOldaaaWKIipTFSzR0xMqWdKUKUVY4KqlQVOKXqRBFUE+/QailgZ+XGmNtKLKbNazo6BB1hyvsz0FDepkYA3FGw0aPPPMM4G7vQIYPPHEE3Zk4qpAFPqowAEgwyabbFLGGY7ei+uuMHXqVBu88PXXXy+riy/VFDz81zt37mzmzJlTVnbChAkGK4paSEGDYK6FyRRy06tXLwsYEDATEleFSZMmBVfq3PGrvxaZokrAiz59+ji1//hRZaqCJQoaVLKkKVOKsMBV0KApRS/SoIogn34DUdDAjyutkVZUmc16dhQ0yJrjdbanoEGdDKyheJagAQEJzz77bCOuAvj1c5IAPuVeJZ6dX/y9BTCQoQlwgOLnAgcffPCBOfzww83YsWONxAtAWV9iiSUMRygKcXQilg24WYjSKPfkylF4WD7wkoVQCLt27WrOO+88yVJ2HT9+vAU+evToUZbOl7feesvGVMBNom/fvqU/TFsZX61nrSto8COr48gUsgPgROBB79wLcABQ5VKU+qPIFPK8ww47mBEjRpgffvjBNnHvvffagKAfffSR26T9rDJVwZKGggbIy80332yCTlCp7G28lCTqJ5jsoEGDDK5Be+21l7nlllusJZe3J5wOc9RRR5lu3bqZfv36+R5B6pbheXrggQea2267zU22wWsvuugia/3Fs2/o0KEVwGhZgYhfirDAzSNo8MYbbxhceOS9FZHdkbMlUf/jjz9uDj74YLP11lub0047zUyfPr2ifdYCt956qw2CjCwPGTLEvoMrMv6UECSf3AbgPeSQQ2xwZFwgR48eXbHWCKo3KL0I8unX9zyCBknIlN9YJS2J+lVmhZvNf1XQoGBzrKBB9hOWJWhwzDHHWOWakw1wNejevbs92hBlzku86KdMmeJNtt/Jz+4sJv9CKOdLL720rX/99de3C459993XzJw5U7LYKzKGuwJ/fgsWMgFIcH/RRRe1O8H4vlPOj1go0x75ASMYI1YJEMrh2muvXWpP2pUri6daSUGDHzkXR6aQp8MOO6wCMJA5ADjo37+/fLXXKPVHkamHH37YLLXUUlYWkJdtt93WyjCxMrykMuXlyI/fG3F6AgoMyrL8jv1OuvDvbbTUpOrn+NaOHTvaZ9YyyyxTeubwnJ0/f36pM++9957BdYjfASADlk4LL7ywufPOO0t5vB8uueQSW58LmvIMBgjl+FCsr3j+4i/NqTj1umAVQSnLE2iABRvvEt4/vFu87zzvfMb9nlT9ALD0UYIf01feY3/961/LujRgwAD7rHzhhRfM3LlzDYAUshZ0RLGffFIhso1LIccuU5Yjb1l71Av8FUE+yxj605c8gQZJyZTfOElLqn6V2SAON2e6ggYFm1cFDbKfsCxBA0ZHEECUatpNmlDSZ8yYYRdNrhWCtx0Utfbt25dZKnjzfPLJJ2batGmGax5JQYMFs5KmTNFKlPqjyBTyyZGdr732WiBwsWBU2X/Ku0w1AjRgzngOPPXUU1YhSxo0SKp+FC0srT7//HN7EgjvUuYTxcw9cQaLAWJ4uEfckrb44otbBc0rdS+//LK11qIeFzQgeChpBC8W4tlL2rXXXitJNV2LoJTlCTR49dVX7dwJ2J00aJBE/cQUWnnllc2TTz5pZQKQCWsY5GWbbbYpyQltAWIBnAqxW0w+vyDEQfJJWdwSN910U6nGXgG2AC3qoSLIp9/48gQaJCFTfmOUtCTqV5kVbrbOVUGDgs21ggbZT1jWoEH2IyxvkUU6u8fDhg0rv1Gwb3lX8BoZCDHrqVSZyobjjQANZGTVYkyQDzeosKM7UaqDQMgo9UtfvFesFdiJ9Vps4fqFsiXR+d988037HXcwl4YPH27TL774YjfZujZstNFG1lScelzQAPNx0jAdF8IdjLQ77rhDkmq6FkEpyxNoIEzG2gD+B4EGuNkF3aMOZDfIuo/71eqXfvhdce257rrrym4JGABgJSTHJHutANdaay3rzkcQWiE+B8kneVZbbTVrsfDNN99IEbPPPvuYdu3alb7X8qEI8uk3rjyBBtK/ajKlMmtaWmZFTrK6KmiQFacTakdBg4QYGaOaVgMNMJ3Fr7HopKBBfmZQZSqbucg7aIA/Oe4AXuUd7hDTYrnllrOWUH7cqgc0oD4/l4BrrrnGKpFiDTBy5Ej7ffDgwWVdEGWfmBsunXDCCeacc84xs2bNsuVc0ED6K8el4leOwscubq1xWqTtIihlRQQNAAyIo4OrlJewzCNoMHMYRNUUvKBypLNr6weoLb/88mXWALhuYWkgcYmkTpR9ABEsfoTC5JM8uDhSBpCMI21xd1hyySXLgC6pK861CPLpN54iggYqs60ts35ynGaaggZpcjeFuhU0SIGpVapsNdCgCjsKc1tBg8JMVWE6mneZyjtogFJEgNOdd965DDgQwMB1E/AKhSjhSbo/YGmwyCKLlHzBOd4TJQowwSWCyJLeoUOHUjIniWC9QDwEP9CAjIAIlMNPfbPNNrP5Z8+eXaqj1g9FUMqKCBowH8gg4NVDDz1Umh4BDJBdP8VeMtYDGkgd7hVZQX4IiAjRDwADgA0vHXHEETYvwWOhKPJJ/A6sDUS2AbTE6sZbf5zvRZBPv/EUETRgHCqzf/KbzlhpRZXZWINMILOCBgkwMcsqFDTIkts/thUXNFhvvfXsC5uXNn/4aCulzwGiQAvPubJQJ3BfXimue8L5559fNj52hpTS5UDRZCrvoAGzhdK16667mt69e1slKApgQLmkQQN+PyhJF1xwQUmICB6LAuV1H5g3b55Nb9Omjc2LC8U666xjBAAIAg3IfPTRR9uy1MvxocRUqJeKsMAtKmjA3EyePNkCB8hmVMCAckmDBijwq6yyipFgsCi1yBFBR700cOBAe4+gh3Hkk5NCOEGJenGDYI1ZLxVBPv3GWFTQgLGozPrNaPS0osps9BEmk1NBg2T4mFktChpkxupSQ3FAg+uvv96a92HiJ3+Y5CqlzwGCOgnP5frYY4+l33CNLcQBDdgNkjHJFUVFKV0OFE2migAaMGO4J+CmwLFdAhvRAAAgAElEQVSu7OqGWRjIDCcNGnC8HMeLumbeLBxRnohH4BLuBKRLgDiCxfGsFwoCDRgX5uVYMHClDmQqKMq91FftWoQFbpFBA/gvR8wio5jvh1kYyHwlCRpw4gbvCPdI5S+//NLKEO8DL5144on2HnERosonMQ/2339/G2iRY5SRT/68oJm3rWrfiyCffmMoMmjAeFRm/WY1WlpRZTba6JLLpaBBcrzMpCYFDTJhc1kjcUCDsoL6RTkQwoE4oEFINXpLOVDiQFFAAzrMcW8oKJj4s5tbjZIEDUaNGmVdDTj1wyWAAPp06aWXusn2eDLSt99+ezN+/Hi7M8uxdIAB/HEqA/eJcs/35557zqA0s4MrgRDpPwHmyHfSSSeV1R/3SxEWuEUHDVCoOUqY+eIkjCiUFGgAqNalSxdz9dVXVzTbtm1bCyB7b0h8gosuuiiSfFKegMcAYWL9Iu40WBx8+OGH3iYify+CfPoNpuiggcps68msnxynmaagQZrcTaFuBQ1SYGqVKhU0qMIgvV0TBxQ0qIltWiiEA0UBDSZOnFgKOIfFAQHmqgEHSYEGzz77rI0o7xcYERNfP6We3V7STz75ZAPgsPrqq5f9cVQe95deemmbjl/5ueeea9Nc97R33nnHuk25sRFCpjPwVhGUsiKDBsgiriTEz3jwwQftEZy4KlSjJEADLF+IteG6zbjtduvWzcqVKPpyr0ePHjb99ttvL5NNZNVPPr///nsbH2GPPfaQKuxVADCJjVB2M+KXIsin31CKDBqozP7MtKLM+slxmmkKGqTJ3RTqVtAgBaZWqVJBgyoM0ts1cUBBg5rYpoVCOFAE0EAAAzG7FlcFXAXCgINqoAFHj3G0YhhxCkLnzp2t5YCbb8KECdbygb7gLoELgUtYCwAKSJ/de3xG2eC+e3rChRdeaNNQOl0CMKAP9VARlLKiggbIYK9evSxggGINidk3sXLCKAw0iCKf1H3kkUeaM844o6wZXCNIhzj2E1lzrR+4j1ULwIEf+cknYyNGB+4XLqF4UT+WQLVSEeTTb2xFBQ1UZltXZv3kOM00BQ3S5G4KdStokAJTq1SpoEEVBuntmjigoEFNbNNCIRxoJGiA2T7KRpDiQrfZrSXyu1f5FuAAZS0IOAir/6677rI7+ChAouh52fTWW29ZQAB3iL59+5b+iIhPn+QYRMy7F1poIfP444/bKgiCSOC5Aw44wFtl6bufUoaFAZHu2TUWmjNnjq379NNPl6SarkVQyvIIGnCCBTLqlT+ZBOQQ8AoLA68cCXAA6BVEQfVHkU/qPOWUU2z/cDUQGSUmUqdOnUonKAA+rLTSSqZnz54lkOzaa6+1sgYo5kd+8kk+OaZRAnqS1q9fP2sxwxGQtVIR5NNvbHkEDYJkSvqvMtvaMitykNVVQYOsOJ1QOwoaJMTIGNUoaBCDWZo1MgcUNIjMKs0YkQONAg2GDh1qOD8ehYxTS/CVnjp1akWvUYamTJlSkU4Ci19OL8B9wEvV6ue9SNv8TZ8+3Vvc/PDDD1bxlzzeKzvEQpiHn3POOdak+/jjj7dWB8QyCFOigpSykSNHmjXWWMMqoocddpgFJwjAyFjroSIoZXkCDZ5//nnTv3//koxgSTJo0KCKKUA2mScvYCAZAQ6ox0vV6q8mn9R38803l/rnlU9ALEAvoddee8107NjRulDgTkCcA9wSgihIPgmsSJBHXBiQ9S233NL+ThhnPVQE+fQbX55Ag2oyJf1XmW1tmRU5yOqqoEFWnE6oHQUNEmJkjGoUNIjBLM0amQMKGkRmlWaMyIFGgQYRu5dqNo6la9++faClQtzGv/76a/P000/bgIZxy3rzc6wdYIhYM3jvx/1eBKUsT6BBXP6mkT9p+aSPAAkE3URW6yEC6HG87Jtvvmnmz59fT1W2bBHk02+QeQIN/PqXdZrKbNYcz397Chrkf47KeqigQRk7MvmioEEmbG65RhQ0aLkpT33ArQoaYEmAdcOwYcNS53EeGiiCUqagwQJJUflcwIs8f1LQYMHsqMwu4IV+WsABBQ0W8KIQnxQ0yH6aFDTInuet0KKCBq0wy9mOsVVBA05CGD16dLbMbmBrCho0kPk1NK3yWQPTGlBEQYMFTFeZXcAL/bSAAwoaLOBFIT4paJD9NClokD3PW6FFBQ1aYZazHWOrggbZcrnxrSlo0Pg50B4Ec6AI8unXewUN/LjSGmlFldmsZ0dBg6w5Xmd7ChrUycAaiitoUAPTtEhVDihoUJVFmiEmB2oBDQiyxqkF7h8R1JXywQGCKbpzw+e11lrL8PzIMyXpnrDuuutW8ODRRx/N8/Bbpm9FlU+/CUoKNNBnqh9385PWTDKbNVcVNMia43W2p6BBnQysobiCBjUwTYtU5YCCBlVZpBliciAuaHDDDTeYrbbaquJvjz32iNmyZk+LAyNGjKiYH+Zsl112SavJROpNAjT47rvvfMfO+B944IFE+qmV1MeBosqn36iTAA30merH2XylNZPMZs1ZBQ2y5nid7SloUCcDayiuoEENTNMiVTmgoEFVFmmGmByICxrErF6zKwcicyAJ0CByY5pROZAAB5IADRLohlahHMgtBxQ0yO3U+HdMQQN/vqSZqqBBmtxt3boVNGjduU9r5AoapMVZrTcuBxQ0iMsxzd9oDiho0OgZ0PbzzoG6QIN3333XvPrqq/qXIQ+uvPJKs9tuuynPM+T5448/btZYYw3leYY8b4XnygorrGDPbm+FseoYs3lPbrHFFgZ/TeV3NvxWPgfz+ZFHHjHrrLOOyqK+NwsjA5MmTTIdOnQoTH/1+RP8/GlW3sybN6+huEJdoMEJJ5xgNtxwQ/3LkAc80HgRK9+zk7tOnTrZwFPK8+x4rrxWXqsMqAyoDKgMqAyoDKgMqAyoDPwoA0888URxQYOG9rxFG1f3hOwnXt0Tsue5tqgcUA4oB5QDygHlgHJAOaAcUA7kgwN1WRrkYwit1QsFDbKfbwUNsue5tqgcUA4oB5QDygHlgHJAOaAcUA7kgwMKGuRjHiL3QkGDyKxKLKOCBomxUitSDigHlAPKAeWAckA5oBxQDigHCsYBBQ0KNmEKGmQ/YQoaZM9zbVE5oBxQDigHlAPKAeWAckA5oBzIBwcUNMjHPETuRV5Ag++//97cfPPN5swzz4zc9zgZ064/Tl8UNIjDLc2rHFAOKAfyx4FZs2aZK664wvTq1ctcfPHFNXfwjTfeML///e8Nx7N56b///a+59dZbza677mp69uxphgwZYr744gtvNvP222+bo446ynTr1s3069fPPPzwwxV5otZVUdCTQD2cZPCHP/zBtG/f3vzwww+eHOVfyX/hhReaHj16mLXXXtscc8wxZv78+eWZGvgt7/1rIGu0aeWAckA5kCoHFDRIlb3JV95o0IAX9m233WYXEz/72c/M3nvvnegg066/ls4qaFAL17SMckA5oBzIDwcmTpxojyvmvTVo0KDYHZszZ445+OCDzc9//nNDHTNnzqyoY8CAAWappZYyL7zwgpk7d65VvH/961+bf/7zn6W87733nvnlL39pDjvsMPP111+bMWPGmIUXXtjceeedpTx8iFJXWYGAL4AEV111le0X/a4GGpx77rlms802s0DB4YcfbscK4JIXynv/8sIn7YdyQDmgHEiaAwoaJM3RlOtrNGjAgmPatGnmqaeesouJpEGDtOuvZXoUNKiFa1pGOaAcUA7kiwPjx4+3761aQAPO/QYIwFLBDzTgPsr/0KFDS4PGKoG8p556aintwAMPNMsuu6wFDCSRtMUXX9zWT1rUuqR8lGvXrl1tX8JAAyz86BtWEBB5//73v0epPpM8Yf3jKLLLLrssk35oI8oB5YByoBU5oKBBwWa90aCBsOtvf/ubXYCEgQZPP/20+e6776RIxXXGjBnmk08+qUgnIUr9vgVTSFTQIAWmapXKAeWAciBjDvzlL3+x761aQAPpKtYGfqDBQQcdZNOnT58uWe11rbXWMr/61a/Mt99+a958802bZ/fddy/LM3z4cJsubhNR6iqrIMKXrbfe2rYRBhq8//77Ns8JJ5wQocbsswT174MPPjArrbSSdavIvlfaonJAOaAcaA0OKGhQsHkuEmiA3+cuu+xi/v3vf1dwmcXbcsstZwAO/EhBAz+uaJpyQDnQjBz46quvzF133WVN1rfZZhvrF/+f//zHDhU/fHZ++Tv22GNLpu7Dhg2zaa6CN2nSJIPCia/8SSedZD788ENbBz7pmOfvv//+5p133rH3UFz/9a9/2fsouoMHDza//e1vrb8+pvguAf6i0O64446GchdccIF5/PHH7Y6467Mf1L5bl3ym7bFjx1oXN0z2zzrrLGvOj1LuNYd/7rnnzHHHHWe23357GwPg7rvvlmpKV94z7DQDZPfu3ducc845NnZAKYMxJk3QYP3117eWBjJv0u4+++xjFXGs80aOHGk/w2uXXnnlFZu+ww472OQodbnl/T7DM2Rm2223tZYOG264oW0jCDS4+uqrzX777WfzrLfeerYsrgBCuGNQH/LZp08f8+ijj8qtyNeHHnrIHHrooWavvfYyp512msE6wKWweQ7qH7JK7AWAHFxB6CPuIa+99pqV0zPOOMMA/J944olWfpBd3CCx5iCte/fu5uyzzy5z2wj7PX766adWFmmHP+QWXsh33DeVlAPKAeVAM3JAQYOCzWqRQAMWmrvttpvZeeedy4ADAQzCFh0KGhRMMLW7ygHlQM0ckKBzX375pZk9e7ZZZJFFzO9+9ztbH0r5JptsYpWi22+/vdQGfvILLbSQwaILuuiii8xvfvMbqxgTjG+JJZYwq622mgUZ+vbtaxZddFFbB3k6duxoP6PkP/bYY1bZveaaa6xlGL72v/jFL8oA3T333NOgdAI4jBgxwpalbXavJYhfWPulTjsfaGexxRazdaEkEzxwq622st+XX355w64yRMDdNm3amAceeMDMmzfPXH755TbP8ccfb0RBhxedO3e2IDVKHW4BfF955ZXLxpEWaAAAgmsCFgVeOuKII2x/7733XqtgotzCa5fYKSe9Q4cOFsiJUpdb3vuZOAnETRg9erSBHyjo1M9fEGiAFQTAFXkAXlDgUawhQBp28pEXeA0oRb5nn33W23Tgd+pbZpllrALPeHGXuPLKK0v5q81zUP8+++wzCxbRH2Iw0A6bEQBkpK266qq2LQCQzTff3KaxobHlllsa0rbYYgubdtNNN5X6EvZ7JBP9X2ONNWw55JLf7dJLL21jR4hMlirTD8oB5YByoEk4oKBBwSaySKABrAU4YDHIzg8LqyiAAeUUNCiYYGp3lQPKgZo4wDMSf3bZZaYSFPsVVlihVB+KCQoQO8FCEyZMsDv/fEdJBmhwd24POeQQW+baa6+1RYjmTx0oZxCKFQrO+eefb9PZCYdQDMl33XXX2e/s2PL9j3/8o/3Ov3XWWccqyezIQlHaLxV2Pmy33Xa2bmINQOwAi7JH+wAHSy65pH1/OMWsNQR9EosDrCr47iqxnG4AsLHuuuuWiqYFGtAW7bPj7aWBAwfae5dccondoSffHXfcUZYNMIR0wJGodZVV4HyhrhVXXNFahEgysQBQnmkjCDQg78svv2zzHH300VLUYAXCHLCjLnT//ffbfDfeeKMkVb1iJUMfRGaQaaxloKjz7Nc/ykusCk59ECLIJONl/sXaUcq3a9fOAlDklbR9993XFo3yeyTjlClTrHwB6GEFwykYSsoB5YByoJk5oKBBwWa3aKAB7OWFjZsCiD4uCWEWBjIdChoIJ/SqHFAONDsHXnzxRbsDy7PynnvuMW3btrVAgowbZRrlB2uBjz/+2CazG3zffffZz+zYoiB16dKl9Ic1QadOnayZPpn22GMPm+ejjz6Sau0VJROwgTawcmAXlrpEocOSgO+Y2Qv179/fprH7C0VpX8q6V94L1M1usRCuEqRhwo5lBZ9x0XBp8uTJNl0UNXZ9ebd4d3llR1yC+aUFGrDTTD+x7PASJvDcAwTh2EM+YwniEuMnHaAoal3Ml/ePOjmFgbqwyHApSkwDUaBd0OCGG26w9YlFi9TpzpmkhV2xrqBfWKygcNN3OVUi6jz79Y82/UAD6qc9LAqEAE9Iw6JFiM0M0gCwhKr9HiUfQAhlZd4kXa/KAeWAcqAZOaCgQcFmtYigASzGXJKXKz6HvKSrkYIG1Tik95UDyoFm4QAxB/70pz/Zo+7Yvd10003LQAPGKWb5KPMEkF199dUNShCEnzhHAYbtIgtoIKCDyzusDrAGw1f90ksvtc9qAQ0AFQArUIzk2c2uLAq5UJT2Ja979QMN2OnFQgDA4/TTT7d9EasHKSsB8TbYYAMbYFAUN7kvVzkykPcmlBZoQN0APezIe0ksPlCUr7/+ejseeOwSfvmMgZgNUJS61lxzTVuGcvxhXQDhw893cRuxicZYVxLSw2TETykXgOgf//iHVFXTFUDsgAMOKPUZmRF5ijLPNOrXP9KjggaASvDABQ3gB2mAKkJRfo/kBTjBlQRLIQA3JeWAckA50MwcUNCgYLNbRNCAAFz4erKIYZFIsC1ZLASxX0GDIM5ounJAOdBsHMCHmh1YdpkhgtehiLj0+eefW/P19u3bWx9uFC0hgiGi+DzzzDOSVLqKNUAQaMBzmdgCEi+BGAfUJaABFWEdhkKMHzrAAoHy3FMCorRf6pDzwQ80IHgj7dNf2YHGxN+lt99+2+YB6IBEgRb+SV5iOVCXuC2kCRqIVQPz5BJzSx+ITSEWErhTuISlB3lOPvlkmxylrj//+c+WP/CIPyxUIAJAUpfXBaJWSwOCBFIfQQy9hAtAVAIMYvef2AGAItSJ6yIUdZ6zAg2i/B7pNzER+C0wFubMa+kSlTeaTzmgHFAOFIEDChoUYZacPhYNNBDAQHxtxVVhp512CgUOFDRwJl0/KgeUA03LARRylI4zzzyzNEZMqglG6CUJqgegwDNSiLgF1EEkeLE+4B4ggrgVBIEGRMNnZ59nM4RySF1YPghhTn/ggQeal156yQbHYyfWpSjtu/nlsx9oICcMXHXVVTbwIn3BBx2FU0hM8Am+CLFrTT6vokzsBdwWvvnmG5vPDzRgp9kLNkg7ftegIxc5XYI+jBs3rlQMRZmAlCihEDymP/jBuzRkyBBbVt6TUepyy7ufsWigHwKoyD0JMkmfgshPKRdAg/Iu2A8vkUchQBF3jiRdrlgsYLUCYSmz8cYbW+sYYhwQYDPKPPv1j/qI70F5N+6Cn3tCFEuDqL9HgCjcUbA2YD1D+5zwoKQcUA4oB5qVAwoaFGxm8wIaiDmgLIb82MiiAgsDWQhJHgEOevXqVbYIkftco9Tv5k/zM8c1rbLKKmk2oXUrB5QDLcoBnukoHJwggMKCIozJM2mAri44gNJOOkcfusTuNtHbuYeVAgo3vvTEQZBjFwEHuP/888+7RQ0m/qQTEJHnruxIc3oDAAKWCoAKBCgEHEBhJxDe66+/XqonSvulzM4HAQ0koCEKPKftYE0hIAanLNC///mf/7ElUQaJdwAg8O2339o0lElOXODEBFFMRcF0o+IPHz7c1sXJCxBKJLEf4LfEh7A3Qv5tttlmtg7vew2lmRMGCDgpyjP8om6OVBRifuEnR1ZC9JcAipjuC0WtS/K7V0Aj3rvwjJ1wAhkC+vCdP46lnDt3rluk9Jk+kQeASAiQYa211rLpxMwg2CDHC+IeQ90Qpy7gHkPcIhe0kjq4Ara4sSkIHohLhfAqyjz79Y+633rrLds/dvv5jDsL7hSMhT4LSRp9FwLAIB8gBhTl90gsBiwMALggQA8scfiTEyfsDf2nHFAOKAeaiAMKGhRsMvMAGgwdOtQucHnRslA45phjzNSpUys4iS8nux5+xIIQM1cxG3XzRK3fLZPmZwUN0uSu1q0caG0OsMtNDAOep1gQYF4uJuEE+EMJcgmlfuzYsW6S/cwzWM6rpy4Ub5QslDIUUgEiUJJFAacgu/M8xynDDviTTz5pj+vjO9YPKJiAD3z3/hGMUSiofbnvdxXQAACAeDco/fj1C9BBGfrPyQ0owhzhS8A6zNq9AR1nzZplNtpoIztuAA/GCUggRDwBlEXGsOyyy9o6ASkoQ9ruu+8uWX2vgC3i309+eDVo0KCyvJw0QbuAOsRTwAwf03uXACqYY46DBLygHsbsjTURpS63XvczFiZiNk9fAfcBh4gTccEFFxivCwVl6acASFi5HHnkkSU/fY5tZEzUxR/zRLBAIVG0uee6rch9roAGAFv0hbqR1UceeaSUpdo8h/WPSrCyoX34irWHnMwBQMO8ccKHpJEP4AmZAWTjO78B+gWIEPZ7xMUEIIIyjBuC3wBGpHEFfFNSDigHlAPNxgEFDQo2o3kADQrGsrq7q6BB3SzUCpQDyoEQDqC8ctSe7K6TleB4fqbkPI/CfKcpJzvAIU2W3QIYcMsAZNAOxLn37MKyg4pCCBDx4IMP2t1rFHnXEoL8cdoX0ABFjXrYYQ8ixozVg7gaBOVjLOz8RiV4zu65uDpELReWD6AHvoX5/HOPEwnkZIeg+qLU5VcWflFWwAgXiPHLXy0NpR6+unLilmEXH6DKdWFw78u8MdcEDQyySIg6z27d8plYF2G/DclX7Rrn91itLr2vHFAOKAeahQMKGhRsJhU0yH7CFDTInufaonJAOdB4DqA8rbrqquaUU06p6AzKGXESgkzdKwr4JAhoEPf4Pp+qak4CCMF6o16luuYONEFB5ASLQzd4ZhMMS4egHFAOKAeUAw4HFDRwmFGEjwoaZD9LChpkz3NtUTmgHGg8B9iF56hFfLVxERg1apT1/SfgHIq2xCKotaecxoBJ98yZM2utou5yuDA0ErSoewA5qIAjMEePHp2DnmgXlAPKAeWAciAtDihokBZnU6pXQYOUGBtSrYIGIczRW8oB5UBTc2DatGnWF7xNmzY2gB++6AcddJD1B6914Ji6cxyixFkAgHDjLNRar5ZTDigHlAPKAeWAciAdDihokA5fU6tVQYPUWBtYsYIGgazRG8oB5UCLcABFP8hfvRYWcPIBfv3y58ZzqKU+LaMcUA4oB5QDygHlQHocUNAgPd6mUrOCBqmwNbRSBQ1C2aM3lQPKAeWAckA5oBxQDigHlAPKgSbmgIIGBZtcBQ2ynzAFDbLnubaoHFAOKAeUA8oB5YByQDmgHFAO5IMDdYEGnDHMub76lx0POHu5Xbt2yvMM5Y5zt9dcc03leYY812dKds8U5bXyWmVAZUBlQGVAZUBlQGUg3zLAkceNpLpAA87rfe211/RPedDUMvDEE0+Y1VdfvanHqL/j7J9jyy+/vD3LXXmfPe+bleebb765GTlypD6r9J3ccBmYPHmy3eBo1t+ajqv5ntuTJk0ybMzp3Dbf3DbLnH711VeNxAxMXaBBQ3uujSsHMuKAuidkxOgWa+aXv/yl+fLLL1ts1DrcNDnwm9/8xjzzzDNpNqF1KwciceDvf/+7WWuttSLl1UzKgTxw4P/+7//Muuuum4euaB+UA7nkgIIGuZwW7VSeOKCgQZ5m48e+oGyfeeaZ5phjjjH9+/c3r7zySv46WaVHChpUYVDGt5tBphQ0yFho6mzu3nvvNf369TOHH364GT58eJ215au4ggb5mo9aesPuLLJ57LHHmlNOOcWedFJLPUUpo6BBUWaqej+b4X1efZTZ51DQIHuea4sF44CCBvmasO+//95ghn3JJZfYjr399tsGU/9PPvkkXx2t0hsFDaowKMPbzSJTChpkKDR1NnXBBReYbt26me+++8788MMPZptttjF33nlnnbXmp7iCBvmZi1p68vLLL5tll13WvPnmm7b4FVdcYXbfffdaqipMGQUNCjNVoR1tlvd56CAbdFNBgwYxXpstDgcUNMjXXE2bNs387Gc/M59++mmpY927dzcswotEChrkZ7aaRaYUNMiPTFXryaqrrmquv/76UjY+b7zxxqXvRf+goEGxZ/Dkk082PXr0KA0CUJ737uzZs0tpzfZBQYPmmNFmeZ/ncTYUNEhoVlBYBg4cWPXv/vvv980TJbjFv/71L3Prrbeao48+2u5K7L333mbo0KFmxowZZaO4/PLLK9o499xzzahRo8zrr79udzXKCuiXUA4UGTR44403zO9//3vDyzAKff311+aiiy4yv/3tb+2CAfmaM2dOlKKx8kyYMMHKY1Ch6dOnW9nmhJY///nPZTJLWRYv8+bNKxXfdtttze9+97vS9yJ8KBpo8O2331pgpmfPnlY+Lr74YgOiH4dmzpxpWIzuvPPO1uQ1Ttlqef/5z3+a0047zdBPP2oFmWo20ODpp582Bx10kNlyyy3NkUceaQOH+s2tN424Docccogtd+ihh5rRo0eb//73v95sdX2vJm+Yx+J+cNxxx5lhw4aVPUf/85//mCWXXNLcfvvtpT5cc801ZtFFFzXcawZqdtDghhtuqFhnyRowaoTzf//73+bGG280Bx54oNlzzz3NY489lujU1/Oe7du3r+ndu3epPx9//LF9744dO7aU1mwfmgk04N188803WzfOsHmKu0ZMYh0Q1h+5V+352grvc+FFnq4KGiQ0G3PnzjV9+vSxD1UWA7fccou544477B8vlyOOOMIstNBC5tFHHzXPPvusWXjhhW3eXr16GZTSavTiiy+aTp06mV/96le27ldffdUQ1X+PPfYwiyyyiLnwwgtLi43PP//cnHjiibb+xRdf3NA+97faaiubtummm5pZs2ZVa1Lv/8SBIoIGKPoHH3yw+fnPf27nHGWtGrGA+fWvf2222247Cy699dZbdiGz4oormvfff79a8ar3X3jhBXPGGWeY7bff3vYJP0k/uvLKK83aa69tXnrpJcMLjcUUIAYmvNAXX3xhllpqKQOaDMkOCMBBkbG9uMUAABF1SURBVKhIoME333xjNttsM3vsKAvcZZZZxs7hYYcdFonlKFCAOosttpg5//zzE/WNvfTSS+3zdYUVVrB9+sc//lHRp1aRqWYCDe655x7Db2SvvfayzyWAwjZt2thnQsUEOwljxoyx71oUchae9913n5U7YqAkQVHkjWdShw4d7IKdz4AHyOcjjzxS6gKg/4ABA0rfee4yRpSzZqBmBg2YU55lzJff3/jx46tOIWD4GmusYbp06WJ4NyZFSb1nkVmOmpb37k033WTHeu211ybV1dzV0wygAeDobbfdZtdQyCbPGT+qZY1Y7zrArx/etCjP11Z5n3t5k4fvChokOAtYEfAjDYq+yo7Jww8/bFvEDJG8rnliUFfeffdduysBAOC364ufGXWddNJJpSpArElD+XJJwAQXQXbv6+dKDhQRNABUAsgClEIOooAG48aNs3kfeOCBEhOwYqF8EgsFrFxo46OPPrJ1+oEGxCdgMcbCXwiLgiWWWMLuyEga8s1uNRY+/K5QaNXSQLiT/JUXOYGwhJhDdkVR6qrtjKK4sVP8i1/8wjz11FNSRWJXZIUd6bPPPtvKlRc0aCWZahbQgN2sjh07GuZOSN5dyGIYbbLJJgZg3CWAR5T2JKiavNEGmwSdO3cua+6cc84xq622WkkJ++yzz8xuu+1m5faoo46yGwA8+0RJKytcwC/NDBoQT2e//fazpvpY58nfn/70J/tMBIAPIwAxNo5Q6IhpkSQl+Z4977zzrMUOgBtWf6wF1NIgydlKvi6eH2yo8K5lvoJAg1rWiPWsA6KOtNrztZXe51F5lmU+BQ0S5DZWBPxIOefVj0AxWShABD0iLy+PaoQ1AXldUMAtw48IQIGXEA8CaMqUKbaMFzQgqA11kffDDz90q9HPARwoImggQ8HagPmOAhrg+kLeIUOGSHF7KgFpWM24hJIWttgBbGA3xo9AwqnTDzQg2BL3vO46mMTvsMMOFdXJ72nDDTc0mMsXiYpkaQAg6gUHeIZh+VSNsBJhTq+77rrQrFiQhMkp8sZzLYhY4NKOFzRoJZlqFtDgvffeq3BFkPcrZvxhhGKOJRK7YkL77LOPadeunXy117TkjUX7csstVway0eCTTz5p5dMLnAGKYko8ePBgs8UWW5T1schfmhk0YBfezw2KwJbVwOupU6fa9Vf79u2rHrmbh/cs8gzwi3Uq1rJ+G1dFllO3781gaSDj+dvf/mafN0GggeSLs0aMsw5I6/naSu9zmaM8XRU0SHA2ZFHjBxpwNBwxCYSiggYorCyE+cNcO4i8Jt9BoAEPfKmP3ULooYceMvh9YgaKTzBuD0oLONAqoIG8ZFBmH3zwQasksovPDp0o58IV4iTssssuxm9H5S9/+YtdNHtjbUjZMNCAOnG38RKuP+zCyW+IwIfiN4r/8korrVR1Aeats9HfiwQaeHkFIERkbfxxw4i54XlD0DeUOHbBPvjgA98iAAaAEGKN5WZi3gEfkMcgCgINWkmmmgU08Jvjs846ywLybiwTv3zEMkDmsMADfMRcG5dBFwylXFry9vzzz9v2iQfjEgoJ/SK+EISJrWwEAIihREYxa3frzPPnZgYN/PjOcw2lGneYMMLKEznA3J+1Bcca+r1HqaOR71lcAwHj58+fb4eDpRm/rWYmBQ3izW7YOiCt52srvc/jzUY2uRU0SJDPAhrgB4aSxR+7Xvgx4ovpItNRQQMUel4w/IUtlggSRR6JdhsEGmAiST5816HnnnvO+ifz8uKl17VrV7uYSZAtha+qVUADJkoUL2IhYPKPnPhFS2aRi2ktLgLugkcAA34LQRQGGmBWjL+8lwj+idyKwsl3duZwmyBWB0FxikZFBQ2QB468xBc3yJpE5oJdN+Zt6aWXtkASgBDf8d/2s3RCbtil5bknJIAB8hZm3SKy67U0aCWZakbQgF34yy67zMqNGzhQ5MN7xUoBawPkjLgCgJ6YjftRGvKGexdtAwq4JG5ZuC5AgJ64j911110WEKtmQeHWVYTPrQYaXH311daNDleFIOLZiWzwt8EGG1iXLT7zzPOzxGrkexaQF1efu+++28be2H///QsHzAfNQ1C6ggZBnKlMj7IOSOP52krv80quNz5FQYME54AfiLwQ2Pnkj/PjJRhdLaABCw/qrGYGzKKIfOzoQQIa0D4PfZQrcXMgoKJYGWAiThkxB2fBQ6RnpQUcaCXQgFGLgo487bjjjobAmn7EgmbXXXe1EZZR7KIABtQTBhqw2yYy7LaJnNIfATAwlWcn5JVXXqkwm3fL5flzEUEDXEAIjMlc8IfJd9gimYUx+QYNGmRBVBaiKE2kBZ35PXnyZLuIRp6iAgbMcxBo0Eoy1WygwTvvvGPjYbhB5wjsW41w2SMOCnKG697//u//BhZJWt4AAWiXYMguAWaR7pqvE/SQwMiuK4VbpsifWw00YCOomik4cogM8EzCAoZ3IS4IAFuk+4HfjXzPIpdsLLEGagVS0CDaLMdZByT9fG2l93m02cg2l4IGCfJbQAOvewI7HyjvtYAGsgAh6JiYifl1mYBwvHQwJ4MENGDhRIRzFupErieIDQtxIXY3pBxleInhv6a0gAOtBBogw8gqpsBckQ12G4JkAisDzMXwxWW3hPLVKAw04LfDLqGX+vXrZ/sCUNAsVETQQHiPQi8LXe+OquThim85MuQqRchM27ZtrfWVa6XilsM6C/cH5ApwIczCQMoFgQatJFPNBhrI3GJlh2sKssRzhmdIEPGeZVcUJY5gdZThzxuXxS2fpLwRp4j2iBHjEko06Zw+0grUSqABawRcE9igCSOxmMEN1CWOyUY2vC40kkffs8KJdK8KGsTjb9R1QJLP11Z6n8ebjWxyK2iQIJ+DQAOawBLAPdM8qnsCcQx4mfDHEXhB1L9/f5tHdjEENPAGQvSW52V0wAEHlNogtoELKnjzt+L3VgENWOQBMsnChRgH7CQje+J76zf/RLslD64MUWQnDDRASUSh9BI7OLTRTDseRQYNmB/iXjAnPDOCSOTHKxcEpqNsEMiE4ocLBHk4cSMKBYEGrSRTzQoayPzzjEEmsEAIIuIHAWiJhZTIBRYHfi4x1JOkvMnvwnsyEj6+9B1XwlagVgIN2HzBGiYIXJf5HjFihJWB008/XZLsFYs5ZIN1YRDpezaIM8mlK2gQn5fyvAtbByT5fG2l93n82Ui/hIIGCfI4DDTwNlMNNGBnDasAlPqVV17ZvlBGjhzprab0fa211rJ5ZKESFTSgHZQ4gvKgrPHiwuRcaQEHWgU0IEAX8+8G3GRxjnsNvsF+NHHixFLwOiwOCFbnVRC95cJAA3YGOdnDG6mfkxMIZuYCb956i/a96KABCwFkw+8UDJkLOTnBPTqPe2I5QkR5LyE/uMUAFLEgweKAHY1qJMqhN6ZBK8lUs4MGHP3GMwqzfj/i+cDzA1c8lw4//HBbjqj3Xkpa3ghsRx/PP//8sqbkCLQLL7ywLL1Zv7QSaLDttttai7tqcymBYfv27VuWFV4hM5wS5Ef6nvXjSvJpChrE52m1dUDSz9dWep/Hn430SyhokCCP8d3hwb/uuutWrXXrrbe2eYOOXMRcbeDAgbae4cOH27yY5fiZ6Y4aNcreJzCZuDBwAgJ9AUwIIywUJMAiQc023nhjqwhIjIOwsq1yr1lBA2TFNfNlMYvMoKi5BGDgPXOc+7KQkdM2xIRyp512CgUOwkCDO++80/bh/fffd7tg2ycQXjNR0UEDWQB7LQHcZ5TEZLn55pvLpm6jjTayp2R4T+VggUFwOAADAYjEtHHSpElldXi/BIEGrSRTzQ4aAELhLuWSK2/IDEGH2Y1yCbCAZxu7tS6lIW/Uv8466xiACpdkp/jFF190k5v2c6uABqwPAE+DgnS671kULDaBcMFzgXE2iJBPWfO5QqHvWZcb6X5W0KCSv+7ztfKuMUHrAPKm8Xxtpfe5H78bnaagQYIzIMLMzpgo737VozThl8lLglgEQix4cEH4wx/+YHdL5Ogx8nP0Dvm9RzeisOF7TvC4l19+WaqygZ/Ij2IS9qPnjFbOPRU67rjjbKAzV5mUe616LTJowAkIyIEo9jKH7777rt3B5fgnISwM2KUTFxfSOaITX02vOSU7vwTn9NYrwAGKHy8MP5KAYCDGXsKkmEB7+H4Kvfnmm3YMnBHcTFQk0IDgc2effXbJLJwFL3JCvAH3WcGzi/grchY9MsACuWPHjiXTXXaJWWR7XV6QHQAnFzCQ+RbggAV0EEmwTHZ6XWolmWoW0IBTUlC6UaZEucKEG/cpAscJeeWNdHF9kaCppGHZwgkeroVCWvJGewCwBEJ2Y3kQkwHAw/29yDia8doqoAFBpnlvzp07t2Ia/d6zEkfKBVKPP/54a0nnBcv1PVvB0lQTmgk04PhW1n5yoloQ44LWiOT3Pl+jrgMom9bztZXe50Fz1sh0BQ0S4j4/Lgkcxw+VxRsLHi8RKRlTNvLIHzsjLGh48Uga/pdepYvASkQjB6nGhYDdFNpkcfXFF1+UmuJYRTfCOfkANPwI0IC2ebDga0kMBBboSgs4UETQgLPCJc4FMsVilQj2QiyoUdwkcKak4wKzxhprWOWNAJoAA/iq8QJwifOacYHxI/L26dPHRgV372OJw+8CP3cUZo5W5PgcrwUBvr8ompj3cgwVFjZ//OMf3aqa4nORQAPASuQIv13cULp3726whvLKhYCb7lnlr7/+urVgwmLlhBNOMOuvv751aWDXzSXkCZkTCwP3Hp95LiHTXiKwHPEPAGvhKdZVyJlrAdEqMtUsoAHgOe8lZA554X237777GubRJT95+/LLLy2YtfrqqxuUsS233NL3vZamvAEMEHyYdz0BGOXdym+hVahVQAOOj8V9zo/83rOAYMQNAgDj2YUMs+7yc9XS96wfV9NLaxbQYOjQofa5yfOTdR7v76lTp5Yxrtoakcze52vUdQBl03y+tsr7vGzCcvJFQYOcTEScbrCg4gUDil0vyU4Irgm84IIW7PW2U+TyRQQNovAb+fEqblIOH3QALq/5uNxP+4p7DEg5rjfwvxmpSKAB/P/000/twiNsPrBq8sYvkLlD3tglFncoSc/q2goy1SygATLxww8/mBkzZligwAugi8yEyRvPNkxnsVQKs/yTutK4AhJgto7ct9q7tVVAA07HYv0UREHvWWQaxQ1FtVHWJ63wTAyaF7/0ZgEN/MZWS5rf8zXKOqCWtuKWUdmNy7Fk8itokAwftZYm5kCzggZNPGWFGFrRQINCMLXFO9lMoEGLT2Xhh98qoEHhJ0oHUOKAggYlVugH5YAvBxQ08GWLJioHFnBAQYMFvNBPyXFAQYPkeKk1/cgBBQ1UEvLCAQUN8jIT2o+oHFDQICqnNF+rckBBg1adeR13ZA4oaBCZVZoxBgcUNIjBLM0aiQMKGkRik2bKgAMKGmTAZG0iUQ4oaJAoO7WyJuSAggZNOKk6pGQ5oKBBsvzU2n7kgIIGKglJc0BBg6Q5qvXVygEFDWrlnJZrFAcUNGgU57XdonBAQYOizJT2s2EcUNCgYaxv6oYVNGjq6W3I4BQ0aAjbtVEfDiho4MMUTco1BxQ0yPX0aOdywIG6QIPRo0fbo2M4Pkb/lAfNKgNnnnmm6dq1q8q4/s4TlQGOCTz33HMTrbNZf4M6rmjvl+23394MGDBAZUqfVQ2XgdNPP91stdVWDe+HPjuiPTuUT0Ps0c7dunVTmdXnZ25lAGCrkVQXaHD33Xebc845R/+UByoDKgMqAyoDKgMqAyoDKgMqAyoDKgMqAyoDKcjA7NmzG4kZmLpAg4b2XBtXDigHlAPKAeWAckA5oBxQDigHlAPKAeWAciBVDihokCp7tXLlgHJAOaAcUA4oB5QDygHlgHJAOaAcUA4UlwMKGhR37rTnygHlgHJAOaAcUA4oB5QDygHlgHJAOaAcSJUD/w/8WYYjvtkItAAAAABJRU5ErkJggg==;" vertex="1" parent="1">
          <mxGeometry x="30" y="30" width="1037" height="440" as="geometry" />
        </mxCell>
      </root>
    </mxGraphModel>
  </diagram>
</mxfile>
